<?xml version="1.0" standalone="no"?>
<!DOCTYPE svg PUBLIC "-//W3C//DTD SVG 1.1//EN" "http://www.w3.org/Graphics/SVG/1.1/DTD/svg11.dtd" >
<svg xmlns="http://www.w3.org/2000/svg">
<metadata>
Created by FontPrep 20130207 at Wed Aug 13 10:14:33 2014
 By Simon Petersen
Copyright (c) 2012 by atipo. All rights reserved.
</metadata>
<defs>
<font id="d67becf5de89115118c397ed4bae7ff0" horiz-adv-x='1024' >
  <font-face 
    font-family="Bariol-Regular"
    font-weight="400"
    font-stretch="normal"
    units-per-em="2048"
    panose-1="2 0 5 6 4 0 0 2 0 3"
    ascent="1612"
    descent="-436"
    x-height="930"
    cap-height="1394"
    bbox="-340 -516 2122 2080.5"
    underline-thickness="40"
    underline-position="-231"
    unicode-range="U+0020-FB06"
  />
<missing-glyph horiz-adv-x="1187" 
d="M82 1434h1024v-1434h-1024v1434zM180 98h828v1235h-828v-1235zM625 469h-97v80q0 76 34 139t75 98q110 94 108 185q0 67 -45 105t-110 38q-162 0 -162 -166h-98q0 135 72 202q73 67 188 67q114 1 186 -61t72 -174t-78 -192q-33 -34 -67 -66q-80 -75 -78 -175v-80z
M633 254h-113v113h113v-113z" />
    <glyph glyph-name="ellipsis" unicode="&#x2e;&#x2e;&#x2e;" horiz-adv-x="1439" 
d="M1276 -16q-96 0 -96 97t96 97t96 -97t-96 -97zM719 -16q-96 0 -96 97t96 97t96 -97t-96 -97zM164 -16q-96 0 -96 97t96 97t96 -97t-96 -97z" />
    <glyph glyph-name="f_f" unicode="ff" horiz-adv-x="1138" 
d="M1075 1280q-223 0 -223 -229v-121h186q27 0 44 -18q18 -18 18 -44q0 -27 -18 -44t-44 -17h-186v-758q0 -29 -18 -47t-48 -18t-47 18q-18 18 -18 47v758h-416v-758q0 -29 -19 -47t-46 -18t-46 18t-20 47v758h-70q-27 0 -44 17t-17 44t17 44t44 18h70v121q0 152 89 252
t265 100q27 1 44 -17q18 -18 18 -45t-18 -44t-44 -17q-223 0 -223 -229v-121h416v121q0 152 89 252t265 100q27 1 44 -17t17 -45t-16 -44q-18 -17 -45 -17z" />
    <glyph glyph-name="fi" unicode="fi" horiz-adv-x="966" 
d="M528 1280q-223 0 -223 -229v-121h463q27 0 46 -18t20 -48v-815q0 -29 -20 -47t-46 -18q-27 0 -46 18t-20 47v758h-397v-758q0 -29 -19 -47t-46 -18t-46 18t-20 47v758h-70q-27 0 -44 17t-17 44t17 44t44 18h70v121q0 152 89 252t265 100q135 0 217 -45q37 -23 37 -54
t-17 -48t-35 -17q-18 1 -76 21q-56 20 -126 20z" />
    <glyph glyph-name="fl" unicode="fl" horiz-adv-x="1017" 
d="M305 1051v-121h397v319q-84 31 -186 31t-157 -62q-54 -62 -54 -167zM174 807h-70q-27 0 -44 17t-17 44t17 44t44 18h70v121q0 152 89 252t254 100t271 -53q45 -23 46 -64v-1063q0 -117 81 -117q25 0 43 -17t18 -44t-18 -44t-43 -17q-213 0 -213 239v584h-397v-758
q0 -29 -19 -47t-46 -18t-46 18t-20 47v758z" />
    <glyph glyph-name="f_f_i" unicode="ffi" horiz-adv-x="1513" 
d="M1075 1280q-223 0 -223 -229v-121h463q29 0 47 -18t18 -48v-815q0 -29 -18 -47t-47 -18t-47 18t-19 47v758h-397v-758q0 -29 -18 -47t-48 -18t-47 18q-18 18 -18 47v758h-416v-758q0 -29 -19 -47t-46 -18t-46 18t-20 47v758h-70q-27 0 -44 17t-17 44t17 44t44 18h70v121
q0 152 89 252t265 100q27 1 44 -17q18 -18 18 -45t-18 -44t-44 -17q-223 0 -223 -229v-121h416v121q0 152 89 252t265 100q135 0 217 -45q37 -23 37 -54t-17 -48q-18 -17 -36 -17q-18 1 -74 21t-127 20z" />
    <glyph glyph-name="f_f_l" unicode="ffl" horiz-adv-x="1564" 
d="M852 1051v-121h397v319q-85 31 -187 31t-156 -62t-54 -167zM528 1280q-223 0 -223 -229v-121h416v121q0 152 89 252t254 100t271 -53q45 -23 45 -64v-1063q0 -117 82 -117q25 0 43 -17q19 -17 19 -44t-18 -44t-44 -17q-213 0 -213 239v584h-397v-758q0 -29 -18 -47
t-48 -18t-47 18q-18 18 -18 47v758h-416v-758q0 -29 -19 -47t-46 -18t-46 18t-20 47v758h-70q-27 0 -44 17t-17 44t17 44t44 18h70v121q0 152 89 252t265 100q27 1 44 -17q18 -18 18 -45t-18 -44t-44 -17z" />
    <glyph glyph-name="f_j" unicode="fj" horiz-adv-x="966" 
d="M528 1280q-223 0 -223 -229v-121h463q27 0 46 -18t20 -48v-936q0 -131 -85 -219t-214 -88q-27 -1 -45 17t-17 45q0 27 17 44t45 17q75 0 121 53t46 131v879h-397v-758q0 -29 -19 -47t-46 -18t-46 18t-20 47v758h-70q-27 0 -44 17t-17 44t17 44t44 18h70v121q0 152 89 252
t265 100q135 0 217 -45q37 -23 37 -54t-17 -48t-35 -17q-18 1 -76 21q-56 20 -126 20z" />
    <glyph glyph-name="f_b" unicode="fb" horiz-adv-x="1595" 
d="M528 1280q-223 0 -223 -229v-121h187q27 0 44 -18t17 -44q0 -27 -17 -44t-44 -17h-187v-758q0 -29 -19 -47t-46 -18t-46 18t-20 47v758h-70q-27 0 -44 17t-17 44t17 44t44 18h70v121q0 152 89 252t254 100t271 -53q45 -23 46 -64v-461q38 55 112 95t166 38
q412 0 412 -491q0 -248 -109 -371t-301 -123q-192 -1 -302 103t-110 301v872q-84 31 -174 31zM834 377q0 -141 74 -213t196 -72q289 0 289 374t-289 374q-110 0 -178 -62q-67 -62 -82 -100l-10 -19v-282z" />
    <glyph glyph-name="f_f_b" unicode="ffb" horiz-adv-x="2142" 
d="M1380 377q0 -141 74 -213t197 -72q289 0 289 374t-289 374q-109 0 -174 -59q-66 -59 -88 -103l-9 -19v-282zM528 1280q-223 0 -223 -229v-121h416v121q0 152 89 252t254 100t271 -53q45 -23 45 -64v-461q39 55 113 95t166 38q412 0 412 -491q0 -248 -109 -371t-301 -123
q-192 -1 -302 103t-110 301v872q-84 31 -174 31q-223 0 -223 -229v-121h186q27 0 44 -18q18 -18 18 -44q0 -27 -18 -44t-44 -17h-186v-758q0 -29 -18 -47t-48 -18t-47 18q-18 18 -18 47v758h-416v-758q0 -29 -19 -47t-46 -18t-46 18t-20 47v758h-70q-27 0 -44 17t-17 44
t17 44t44 18h70v121q0 152 89 252t265 100q27 1 44 -17q18 -18 18 -45t-18 -44t-44 -17z" />
    <glyph glyph-name="f_h" unicode="fh" horiz-adv-x="1595" 
d="M528 1280q-223 0 -223 -229v-121h187q27 0 44 -18t17 -44q0 -27 -17 -44t-44 -17h-187v-758q0 -29 -19 -47t-46 -18t-46 18t-20 47v758h-70q-27 0 -44 17t-17 44t17 44t44 18h70v121q0 152 89 252t254 100t271 -53q45 -23 46 -64v-471q32 61 104 103t168 40
q377 0 377 -362v-547q-1 -29 -19 -47t-47 -18t-47 18t-18 47v520q0 133 -54 203t-192 70q-272 0 -272 -287v-506q0 -29 -20 -47t-46 -18t-46 18t-20 47v1200q-84 31 -174 31z" />
    <glyph glyph-name="f_f_h" unicode="ffh" horiz-adv-x="2142" 
d="M528 1280q-223 0 -223 -229v-121h416v121q0 152 89 252t254 100t271 -53q45 -23 45 -64v-471q31 61 104 103t169 40q377 0 377 -362v-547q0 -29 -20 -47t-46 -18q-27 0 -46 18t-20 47v520q0 133 -53 203t-192 70q-272 0 -273 -287v-506q0 -29 -18 -47t-47 -18t-47 18
t-19 47v1200q-84 31 -174 31q-223 0 -223 -229v-121h186q27 0 44 -18q18 -18 18 -44q0 -27 -18 -44t-44 -17h-186v-758q0 -29 -18 -47t-48 -18t-47 18q-18 18 -18 47v758h-416v-758q0 -29 -19 -47t-46 -18t-46 18t-20 47v758h-70q-27 0 -44 17t-17 44t17 44t44 18h70v121
q0 152 89 252t265 100q27 1 44 -17q18 -18 18 -45t-18 -44t-44 -17z" />
    <glyph glyph-name="f_k" unicode="fk" horiz-adv-x="1497" 
d="M528 1280q-223 0 -223 -229v-121h187q27 0 44 -18t17 -44q0 -27 -17 -44t-44 -17h-187v-758q0 -29 -19 -47t-46 -18t-46 18t-20 47v758h-70q-27 0 -44 17t-17 44t17 44t44 18h70v121q0 152 89 252t254 100t271 -53q45 -23 46 -64v-751l483 395q18 16 45 16t46 -18t19 -49
t-26 -52l-336 -268l365 -469q14 -16 14 -43t-20 -45t-49 -18q-30 0 -54 30l-363 465l-124 -100v-330q0 -29 -20 -47t-46 -18t-46 18t-20 47v1200q-84 31 -174 31z" />
    <glyph glyph-name="f_f_k" unicode="ffk" horiz-adv-x="2043" 
d="M528 1280q-223 0 -223 -229v-121h416v121q0 152 89 252t254 100t271 -53q45 -23 45 -64v-751l484 395q18 16 46 16t46 -18t18 -49t-26 -52l-336 -268l364 -469q14 -16 14 -43t-18 -45t-49 -18t-55 30l-363 465l-125 -100v-330q0 -29 -18 -47t-47 -18t-47 18t-19 47v1200
q-84 31 -174 31q-223 0 -223 -229v-121h186q27 0 44 -18q18 -18 18 -44q0 -27 -18 -44t-44 -17h-186v-758q0 -29 -18 -47t-48 -18t-47 18q-18 18 -18 47v758h-416v-758q0 -29 -19 -47t-46 -18t-46 18t-20 47v758h-70q-27 0 -44 17t-17 44t17 44t44 18h70v121q0 152 89 252
t265 100q27 1 44 -17q18 -18 18 -45t-18 -44t-44 -17z" />
    <glyph glyph-name="f_f_j" unicode="ffj" horiz-adv-x="1513" 
d="M1075 1280q-223 0 -223 -229v-121h463q29 0 47 -18t18 -48v-936q0 -131 -85 -219t-214 -88q-27 -1 -44 17t-17 45t17 44t44 17q74 0 121 53t47 131v879h-397v-758q0 -29 -18 -47t-48 -18t-47 18q-18 18 -18 47v758h-416v-758q0 -29 -19 -47t-46 -18t-46 18t-20 47v758
h-70q-27 0 -44 17t-17 44t17 44t44 18h70v121q0 152 89 252t265 100q27 1 44 -17q18 -18 18 -45t-18 -44t-44 -17q-223 0 -223 -229v-121h416v121q0 152 89 252t265 100q135 0 217 -45q37 -23 37 -54t-17 -48q-18 -17 -36 -17q-18 1 -74 21t-127 20z" />
    <glyph glyph-name=".notdef" horiz-adv-x="1187" 
d="M82 1434h1024v-1434h-1024v1434zM180 98h828v1235h-828v-1235zM625 469h-97v80q0 76 34 139t75 98q110 94 108 185q0 67 -45 105t-110 38q-162 0 -162 -166h-98q0 135 72 202q73 67 188 67q114 1 186 -61t72 -174t-78 -192q-33 -34 -67 -66q-80 -75 -78 -175v-80z
M633 254h-113v113h113v-113z" />
    <glyph glyph-name=".null" horiz-adv-x="0" 
 />
    <glyph glyph-name="nonmarkingreturn" horiz-adv-x="681" 
 />
    <glyph glyph-name="space" unicode=" " horiz-adv-x="487" 
 />
    <glyph glyph-name="exclam" unicode="!" horiz-adv-x="425" 
d="M213 -16q-96 0 -96 97t96 97t96 -97t-96 -97zM213 1395q74 0 72 -72l-31 -965q0 -36 -41 -36t-41 36l-31 965q-2 72 72 72z" />
    <glyph glyph-name="quotedbl" unicode="&#x22;" horiz-adv-x="573" 
d="M401 1395q60 0 58 -56l-19 -352q-4 -35 -39 -35t-39 35l-18 352q-2 25 12 41t45 15zM172 1395q31 1 45 -15t12 -41l-18 -352q-4 -35 -39 -35t-39 35l-18 352q-2 25 12 41t45 15z" />
    <glyph glyph-name="numbersign" unicode="#" horiz-adv-x="1126" 
d="M436 811l-43 -279h285l43 279h-285zM143 434q-20 0 -34 14t-15 35q0 21 14 35t35 14h146l43 279h-144q-20 0 -34 14q-14 15 -14 35t14 34t34 15h160l58 383q8 43 51 43q23 0 37 -14q14 -13 14 -29t-2 -26l-53 -357h284l58 383q8 43 51 43q23 0 37 -14q14 -13 14 -29
t-2 -26l-53 -357h141q21 0 35 -14q14 -15 14 -35t-14 -34t-35 -15h-158l-43 -279h156q20 0 34 -14t15 -34q0 -20 -14 -35q-14 -14 -35 -15h-172l-64 -414q-6 -43 -51 -43q-19 -1 -35 15t-16 30t2 25l60 387h-285l-64 -414q-6 -43 -51 -43q-20 -1 -36 15t-15 30q0 14 2 25
l59 387h-129z" />
    <glyph glyph-name="dollar" unicode="$" horiz-adv-x="1142" 
d="M575 1280q-153 0 -225 -63t-72 -157t80 -156q80 -60 194 -96t228 -80t193 -133q80 -89 80 -226q0 -177 -111 -279t-317 -117v-153q1 -20 -15 -36t-39 -17q-23 0 -37 16t-16 37v153q-152 8 -266 79t-168 171q-10 20 -10 42t18 41q18 20 51 20t54 -33q119 -195 364 -195
q170 0 261 69t91 202q0 88 -57 149t-143 91q-87 30 -187 66t-186 73q-86 36 -143 116t-57 206t96 223t282 112v156q0 20 16 36q16 17 38 17t37 -16t16 -37v-156q258 -18 389 -209q12 -18 12 -42t-19 -43t-49 -19t-51 26q-131 162 -332 162z" />
    <glyph glyph-name="percent" unicode="%" horiz-adv-x="1527" 
d="M1144 641q156 0 228 -91t72 -243q0 -153 -72 -243t-228 -90t-229 90q-71 92 -71 244t71 242q72 91 229 91zM1144 68q198 0 198 240t-198 239q-198 1 -198 -239t198 -240zM86 1073q0 152 72 243t228 91t228 -91t72 -243t-72 -243t-228 -91t-228 91t-72 243zM386 834
q198 0 198 240t-198 239q-198 1 -198 -239t198 -240zM1092 1395q27 1 41 -15t14 -32t-4 -25l-668 -1313q-13 -26 -39 -26q-58 1 -57 51q0 12 4 20l668 1313q14 27 41 27z" />
    <glyph glyph-name="ampersand" unicode="&#x26;" horiz-adv-x="1261" 
d="M1235 54q-1 -70 -69 -70q-32 0 -118 43t-139 82q-151 -137 -361 -137t-334 102t-124 284q0 213 225 375q-94 176 -94 359q0 137 78 226t206 89t205 -74q76 -75 76 -199t-77 -225q-78 -100 -228 -213q127 -201 408 -411q53 78 84 207q12 47 61 47q27 0 51 -24t7 -81
q-35 -129 -99 -227q61 -39 201 -101q41 -18 41 -52zM221 358q0 -120 90 -194q91 -74 233 -74t259 100q-156 120 -255 218t-169 213q-158 -102 -158 -263zM352 1092q0 -160 68 -289q98 66 167 159t69 169q0 77 -42 117q-40 40 -110 40t-111 -54t-41 -142z" />
    <glyph glyph-name="quotesingle" unicode="'" horiz-adv-x="344" 
d="M172 1395q31 1 45 -15t12 -41l-18 -352q-4 -35 -39 -35t-39 35l-18 352q-2 25 12 41t45 15z" />
    <glyph glyph-name="parenleft" unicode="(" horiz-adv-x="602" 
d="M123 606q0 424 76 619t272 280q16 6 33 6t34 -17t17 -47t-37 -46q-126 -62 -182 -167q-55 -105 -66 -227q-16 -164 -16 -480q0 -315 39 -445t118 -201q44 -39 94 -62t50 -53t-17 -48q-18 -17 -34 -17t-33 6q-197 87 -273 281t-75 618z" />
    <glyph glyph-name="parenright" unicode=")" horiz-adv-x="602" 
d="M479 606q0 -424 -76 -618t-272 -281q-16 -6 -33 -6q-18 0 -34 17t-16 47t49 54q50 25 94 63q121 105 145 355q12 136 12 317t-4 327t-26 221q-23 74 -53 132q-54 104 -181 167q-37 16 -37 46q-1 30 17 47t34 17t33 -6q197 -87 273 -281t75 -618z" />
    <glyph glyph-name="asterisk" unicode="*" horiz-adv-x="731" 
d="M364 1458q46 0 46 -41l-9 -217l215 64q44 14 54 -31t-31 -55l-207 -48l131 -180q25 -34 -11 -60t-60 13l-127 191l-127 -191q-25 -39 -61 -12t-11 59l131 180l-207 48q-41 10 -31 55t54 31l215 -64l-9 217q-1 41 45 41z" />
    <glyph glyph-name="plus" unicode="+" horiz-adv-x="929" 
d="M930 446q0 -22 -16 -38t-40 -17h-350v-348q0 -25 -17 -42t-42 -17t-42 17t-17 42v348h-351q-23 1 -39 17t-16 38t16 39q16 16 39 17h351v350q0 25 17 42t42 17t42 -17t17 -42v-350h350q24 0 40 -16t16 -40z" />
    <glyph glyph-name="comma" unicode="," horiz-adv-x="331" 
d="M264 47q0 -213 -147 -366q-12 -12 -27 -13q-31 0 -31 31q0 10 7 18q76 104 75 187q0 39 -37 86t-36 90q0 98 98 98t98 -131z" />
    <glyph glyph-name="hyphen" unicode="-" horiz-adv-x="745" 
d="M633 516q-1 -23 -17 -39t-38 -16h-410q-23 0 -39 16t-16 39t16 39t39 16h410q23 0 39 -16t16 -39z" />
    <glyph glyph-name="period" unicode="." horiz-adv-x="327" 
d="M164 -16q-96 0 -96 97t96 97t96 -97t-96 -97z" />
    <glyph glyph-name="slash" unicode="/" horiz-adv-x="833" 
d="M688 1538q29 0 52 -24t8 -72l-541 -1596q-14 -47 -64 -47q-29 1 -47 19t-18 39t6 39l541 1595q14 47 63 47z" />
    <glyph glyph-name="zero" unicode="0" horiz-adv-x="1232" 
d="M616 1407q258 0 382 -174t124 -543t-124 -544t-382 -175t-382 175t-123 544q0 369 123 543q124 174 382 174zM616 94q193 0 282 140t89 456t-89 454q-89 140 -282 140q-194 0 -282 -139t-88 -455t88 -456t282 -140z" />
    <glyph glyph-name="one" unicode="1" horiz-adv-x="718" 
d="M76 1107q0 32 28 50l322 223q20 14 45 14t44 -18q19 -20 20 -49v-1276q1 -27 -19 -47t-49 -20t-48 20t-20 47v1155l-219 -157q-48 -31 -85 7q-19 20 -19 51z" />
    <glyph glyph-name="two" unicode="2" horiz-adv-x="1089" 
d="M547 1407q205 0 321 -109t117 -290q0 -115 -56 -218q-57 -102 -141 -174q-163 -138 -362 -259t-201 -230h715q27 0 45 -18q19 -17 19 -45t-18 -46t-46 -18h-790q-27 0 -46 18q-18 18 -18 45q0 125 79 227t191 175q112 75 223 147q113 72 191 172t78 224t-80 200t-221 76
q-205 0 -291 -188q-18 -41 -52 -41t-57 23t-10 63q43 127 149 197t261 69z" />
    <glyph glyph-name="three" unicode="3" horiz-adv-x="1110" 
d="M561 836q231 0 333 -124t101 -323q0 -199 -121 -309t-352 -109q-301 0 -440 232q-10 16 -10 39t17 40t48 17t51 -33q104 -172 334 -172q168 0 253 77t85 222q0 319 -309 320h-143q-27 0 -44 17q-18 17 -18 42t16 45l377 438h-528q-27 -1 -44 17t-17 45t17 44t44 17h668
q27 0 44 -17t17 -43t-16 -44l-383 -438h20z" />
    <glyph glyph-name="four" unicode="4" horiz-adv-x="1105" 
d="M715 444v689l-479 -689h479zM850 444h117q29 0 47 -17t18 -44t-18 -46t-47 -20h-117v-266q0 -27 -20 -47t-48 -20q-29 0 -48 20t-19 47v266h-598q-27 1 -45 19q-38 39 -4 86l659 942q23 29 53 29q30 -1 50 -21q19 -20 20 -47v-881z" />
    <glyph glyph-name="five" unicode="5" horiz-adv-x="1136" 
d="M576 913q200 1 328 -117t128 -354t-128 -354t-347 -117q-166 0 -288 72t-185 205q-8 16 -8 37t18 39t50 18t53 -35q65 -111 149 -160t226 -49t234 85q91 85 91 259t-92 260t-248 86q-111 0 -185 -28t-143 -96q-27 -27 -55 -27t-45 18q-18 19 -18 35t4 37l118 602
q5 17 21 33t41 16h623q27 0 45 -18t18 -45t-18 -45t-45 -19h-578l-82 -420q118 82 318 82z" />
    <glyph glyph-name="six" unicode="6" horiz-adv-x="1159" 
d="M584 94q342 0 342 338q0 168 -91 250t-239 82q-227 0 -352 -223q0 -201 89 -324t251 -123zM596 887q211 0 338 -115q127 -114 127 -346t-127 -344q-128 -112 -362 -111t-354 185t-120 501q0 750 514 750q113 0 201 -34q147 -57 150 -126q-1 -27 -19 -45t-42 -18t-46 16
q-113 84 -244 84q-379 0 -379 -577q49 72 145 126t218 54z" />
    <glyph glyph-name="seven" unicode="7" horiz-adv-x="989" 
d="M227 49q0 188 60 352q59 164 144 277t170 208t144 188t60 177h-690q-27 1 -45 19t-19 45q1 27 19 45t45 18h764q27 0 45 -18t18 -45q0 -222 -206 -457q-85 -98 -171 -204t-146 -264q-60 -157 -61 -341q0 -29 -19 -47t-46 -18t-47 18t-19 47z" />
    <glyph glyph-name="eight" unicode="8" horiz-adv-x="1134" 
d="M567 686q-166 0 -255 -74t-89 -222t92 -222t252 -74t252 74t92 222t-89 222t-255 74zM850 1050q0 234 -283 234q-135 0 -209 -58t-74 -176t75 -180q75 -61 208 -61t208 61q75 62 75 180zM567 -29q-219 0 -349 108t-130 310q0 131 64 226t178 139q-180 96 -180 286
t111 278q113 89 307 89t306 -89q112 -88 111 -278q0 -190 -180 -286q115 -42 178 -138t64 -227q-1 -203 -131 -311t-349 -107z" />
    <glyph glyph-name="nine" unicode="9" horiz-adv-x="1159" 
d="M575 1284q-342 0 -342 -338q-1 -168 91 -250t239 -82q227 0 352 224q0 202 -89 324t-251 122zM563 492q-211 0 -338 114t-127 346t127 344t361 111q234 0 355 -184q120 -184 120 -502q0 -750 -514 -750q-113 0 -201 34t-129 79q-20 20 -20 47t18 45q39 39 88 2
q113 -84 244 -84q379 0 379 578q-48 -72 -144 -126t-219 -54z" />
    <glyph glyph-name="colon" unicode=":" horiz-adv-x="327" 
d="M164 739q-96 -1 -96 97t96 98t96 -98t-96 -97zM164 -16q-96 0 -96 97t96 97t96 -97t-96 -97z" />
    <glyph glyph-name="semicolon" unicode=";" horiz-adv-x="327" 
d="M164 739q-96 -1 -96 97t96 98t96 -98t-96 -97zM264 47q0 -213 -147 -366q-12 -12 -27 -13q-31 0 -31 31q0 10 7 18q76 104 75 187q0 39 -37 86t-36 90q0 98 98 98t98 -131z" />
    <glyph glyph-name="less" unicode="&#x3c;" horiz-adv-x="690" 
d="M0 481q0 29 27 47l575 455q14 10 35 10t37 -16t16 -42t-22 -42l-533 -412l533 -411q22 -16 22 -42t-16 -42t-36 -16t-36 10l-575 454q-27 18 -27 47z" />
    <glyph glyph-name="equal" unicode="=" horiz-adv-x="929" 
d="M930 289q0 -23 -16 -39t-40 -17h-819q-23 1 -39 17t-16 39t16 39t39 16h819q24 0 40 -16t16 -39zM930 602q0 -23 -16 -39t-40 -16h-819q-23 0 -39 16t-16 39t16 39t39 16h819q24 0 40 -16t16 -39z" />
    <glyph glyph-name="greater" unicode="&#x3e;" horiz-adv-x="690" 
d="M690 481q0 -29 -26 -47l-576 -454q-14 -10 -35 -10t-37 16t-16 42t23 42l532 411l-532 412q-23 16 -23 42t16 42t36 16t36 -10l576 -455q26 -18 26 -47z" />
    <glyph glyph-name="question" unicode="?" horiz-adv-x="944" 
d="M420 -16q-96 0 -96 97t96 97t96 -97t-96 -97zM313 481q0 91 44 148q43 57 107 97t126 81t107 105q44 64 44 162t-71 155q-72 57 -199 57t-197 -61t-69 -185q-1 -29 -21 -48t-47 -19t-47 19t-20 48q0 172 104 270t294 97q190 0 297 -90q108 -90 107 -256q0 -100 -43 -179
t-105 -127t-124 -88q-148 -95 -149 -169q0 -39 22 -73q23 -33 23 -59t-22 -44t-48 -18t-47 20q-66 66 -66 157z" />
    <glyph glyph-name="at" unicode="@" horiz-adv-x="1640" 
d="M776 76q88 0 155 52t66 146v68h-237q-164 0 -164 -133q0 -63 46 -98t134 -35zM768 -14q-119 0 -197 59q-77 59 -77 163t70 163q71 59 196 59h237v51q0 76 -52 117t-148 41t-170 -84q-17 -18 -39 -18t-37 14q-14 15 -14 33t10 32q89 119 245 119q156 1 230 -71t74 -193
v-250q0 -82 32 -116t101 -33q115 0 171 74t56 253q0 307 -169 457t-473 150t-467 -155t-163 -500t163 -497t469 -153q306 0 474 113q12 8 28 8t32 -13q14 -13 14 -36t-21 -37q-203 -125 -541 -125t-530 184q-190 184 -190 557t190 558q190 186 534 186t549 -178
q204 -178 204 -519q0 -210 -87 -312t-247 -102q-160 1 -213 126q-80 -125 -244 -125z" />
    <glyph glyph-name="A" unicode="A" horiz-adv-x="1255" 
d="M125 -16q-29 0 -49 20q-36 36 -15 80l500 1264q21 47 67 47t66 -47l500 -1264q6 -16 6 -38t-20 -42t-60 -20t-59 47l-148 377h-571l-149 -375q-18 -49 -68 -49zM870 535l-243 626l-242 -626h485z" />
    <glyph glyph-name="B" unicode="B" horiz-adv-x="1148" 
d="M643 0h-410q-29 0 -49 20t-20 50v1239q0 29 20 49t49 20h349q211 0 314 -96t103 -268q0 -100 -55 -177t-143 -102q119 -29 191 -115t71 -227q1 -181 -109 -287t-311 -106zM303 657v-530h338q137 0 209 70q72 69 72 195t-75 196t-206 69h-338zM303 1251v-475h277
q134 0 206 64t72 174q0 238 -278 237h-277z" />
    <glyph glyph-name="C" unicode="C" horiz-adv-x="1292" 
d="M729 -29q-639 0 -639 717q0 356 167 538t472 181q145 0 266 -58t195 -159q14 -20 14 -46t-18 -44t-49 -18t-52 26q-55 76 -150 124t-206 48q-240 0 -368 -147t-128 -451t125 -443q125 -140 371 -141q107 0 203 43t153 125q19 27 51 27q32 1 50 -19t18 -44t-12 -42
q-68 -98 -195 -158t-268 -59z" />
    <glyph glyph-name="D" unicode="D" horiz-adv-x="1245" 
d="M233 1378h289q307 0 470 -163t163 -527t-163 -526t-470 -162h-289q-29 0 -49 20t-20 50v1239q0 29 20 49t49 20zM303 1251v-1124h219q242 0 367 128t125 432t-125 434t-367 130h-219z" />
    <glyph glyph-name="E" unicode="E" 
d="M913 0h-680q-29 0 -49 20t-20 50v1239q0 29 20 49t49 20h658q27 0 45 -18t18 -45t-18 -45t-45 -19h-588v-493h451q27 0 45 -18t18 -46q0 -27 -18 -45t-45 -18h-451v-504h610q27 0 45 -18q18 -17 18 -45t-18 -46t-45 -18z" />
    <glyph glyph-name="F" unicode="F" 
d="M303 614v-561q0 -29 -20 -49q-19 -20 -49 -20t-50 20t-20 49v1256q0 29 20 49t49 20h658q27 0 45 -18t18 -45t-18 -45t-45 -19h-588v-510h451q27 0 45 -18t18 -45t-18 -45t-45 -19h-451z" />
    <glyph glyph-name="G" unicode="G" horiz-adv-x="1357" 
d="M233 682q0 -304 125 -444t373 -140t379 164v297h-342q-27 1 -45 19t-18 45t18 45t45 18h414q25 0 44 -18t19 -45v-359q0 -35 -26 -67q-193 -225 -490 -226q-639 0 -639 717q0 356 167 538t472 181q145 0 266 -58t195 -159q14 -20 14 -46t-18 -44t-49 -18t-52 26
q-55 76 -149 124t-207 48q-240 0 -368 -147t-128 -451z" />
    <glyph glyph-name="H" unicode="H" horiz-adv-x="1318" 
d="M1016 643h-713v-590q0 -29 -20 -49q-19 -20 -49 -20t-50 20t-20 49v1272q0 29 20 49t49 20t49 -20t21 -49v-555h713v555q0 29 20 49t49 20t49 -20t21 -49v-1272q0 -29 -20 -49q-19 -20 -49 -20t-50 20t-20 49v590z" />
    <glyph glyph-name="I" unicode="I" horiz-adv-x="466" 
d="M303 1325v-1272q0 -29 -20 -49q-19 -20 -49 -20t-50 20t-20 49v1272q0 29 20 49t49 20t49 -20t21 -49z" />
    <glyph glyph-name="J" unicode="J" horiz-adv-x="845" 
d="M33 77q0 34 20 53q34 33 94 3q60 -29 146 -29q129 0 189 84t61 228v909q0 29 20 49t49 20q30 0 50 -20t20 -49v-909q0 -203 -93 -323t-296 -120q-139 0 -221 47q-39 23 -39 57z" />
    <glyph glyph-name="K" unicode="K" horiz-adv-x="1134" 
d="M951 1395q32 0 54 -22q46 -46 1 -99l-428 -479l495 -699q14 -20 14 -46t-20 -46t-53 -20t-56 32l-475 676l-180 -203v-436q0 -29 -20 -49q-19 -20 -49 -20t-50 20t-20 49v1272q0 29 20 49t49 20t49 -20t21 -49v-639l596 682q20 27 52 27z" />
    <glyph glyph-name="L" unicode="L" horiz-adv-x="989" 
d="M303 131h561q29 0 47 -18q19 -18 19 -47q0 -30 -18 -48t-48 -18h-631q-29 0 -49 20t-20 50v1255q0 29 20 49t49 20t49 -20t21 -49v-1194z" />
    <glyph glyph-name="M" unicode="M" horiz-adv-x="1558" 
d="M767 223q-42 0 -60 39l-428 797v-1008q-1 -27 -21 -47t-47 -20t-47 20t-21 47v1276q1 29 21 48t55 19t53 -38l496 -928l498 928q22 39 56 39q34 1 53 -19t20 -49v-1276q1 -27 -19 -47t-49 -20t-48 20t-19 47v1008l-431 -797q-20 -39 -62 -39z" />
    <glyph glyph-name="N" unicode="N" horiz-adv-x="1269" 
d="M1059 1395q27 1 47 -19t20 -49v-1274q0 -29 -20 -49t-52 -20t-55 28l-720 1088v-1049q-1 -27 -21 -47t-47 -20t-47 20t-21 47v1276q1 29 21 48t51 19t51 -28l725 -1090v1051q1 29 21 49t47 19z" />
    <glyph glyph-name="O" unicode="O" horiz-adv-x="1458" 
d="M729 1280q-240 0 -368 -147t-128 -443t128 -444t368 -148t368 148t128 443t-128 443t-368 148zM729 -29q-303 -1 -471 181t-168 537t167 537t472 181q305 0 472 -181q167 -180 167 -536t-168 -538t-471 -181z" />
    <glyph glyph-name="P" unicode="P" horiz-adv-x="1114" 
d="M303 578v-525q0 -29 -20 -49q-19 -20 -49 -20t-50 20t-20 49v1256q0 29 20 49t49 20h408q174 0 283 -101q108 -101 108 -297t-108 -299t-283 -103h-338zM303 1251v-546h318q127 -1 199 71t71 204q0 132 -73 202t-197 69h-318z" />
    <glyph glyph-name="Q" unicode="Q" horiz-adv-x="1458" 
d="M729 1280q-240 0 -368 -147t-128 -443t128 -444t368 -148t368 148t128 443t-128 443t-368 148zM729 -29q-303 -1 -471 181t-168 537t167 537t472 181q305 0 472 -181t167 -538q0 -510 -340 -661q94 -41 148 -107q20 -28 20 -54t-20 -45t-50 -19t-51 22q-77 84 -143 116
t-203 31z" />
    <glyph glyph-name="R" unicode="R" horiz-adv-x="1118" 
d="M303 596v-543q0 -29 -20 -49q-19 -20 -49 -20t-50 20t-20 49v1256q0 29 20 49t49 20h408q170 0 281 -112q110 -112 110 -277t-101 -275t-265 -118l374 -500q14 -16 14 -44t-20 -48t-53 -20t-55 32l-416 580h-207zM303 1251v-528h342q106 0 176 76q70 75 70 189t-71 189
t-181 74h-336z" />
    <glyph glyph-name="S" unicode="S" horiz-adv-x="1142" 
d="M575 1280q-153 0 -225 -63t-72 -157t80 -156q80 -60 194 -96t228 -80t193 -133q80 -89 80 -226q0 -193 -127 -295t-365 -103q-166 0 -294 73t-183 179q-10 20 -10 42t18 41q18 20 51 20t54 -33q119 -195 364 -195q170 0 261 69t91 202q0 88 -57 149t-143 91
q-87 30 -187 66t-186 73q-86 36 -143 116t-58 193q0 152 112 251t324 99q143 0 259 -56t180 -155q12 -18 12 -42t-19 -43t-49 -19t-51 26q-131 162 -332 162z" />
    <glyph glyph-name="T" unicode="T" horiz-adv-x="1101" 
d="M481 1247h-366q-29 -1 -47 19t-19 47q1 27 19 46t47 19h870q27 0 46 -19t19 -46t-18 -46q-20 -19 -47 -20h-364v-1194q-1 -29 -21 -49t-49 -20t-49 20t-21 49v1194z" />
    <glyph glyph-name="U" unicode="U" horiz-adv-x="1277" 
d="M1124 420q0 -449 -480 -449t-480 449v905q0 29 20 49t49 20t49 -20t21 -49v-905q0 -228 170 -292q70 -26 172 -26q193 0 267 87t73 231v905q1 29 21 49t49 20t49 -20t20 -49v-905z" />
    <glyph glyph-name="V" unicode="V" horiz-adv-x="1179" 
d="M1061 1395q39 0 64 -26t10 -75l-480 -1263q-16 -47 -65 -47t-66 47l-479 1263q-6 18 -6 39t20 41q19 20 59 20t56 -44l416 -1102l416 1102q16 45 55 45z" />
    <glyph glyph-name="W" unicode="W" horiz-adv-x="1675" 
d="M476 -16q-54 0 -68 51l-363 1265q-4 16 -4 35t20 39t50 21q53 0 67 -52l299 -1058l293 1058q12 51 68 51t67 -51l293 -1058l299 1058q14 51 68 52q29 -1 49 -21t20 -38t-4 -36l-362 -1265q-14 -51 -68 -51t-67 53l-295 1042l-295 -1042q-13 -53 -67 -53z" />
    <glyph glyph-name="X" unicode="X" horiz-adv-x="1024" 
d="M39 1328q0 26 20 46q19 20 53 20t58 -34l342 -524l342 524q26 35 58 35q32 -1 52 -21t21 -46q0 -26 -10 -40l-385 -581l409 -617q11 -16 11 -41t-20 -45t-55 -20q-34 0 -50 26l-373 572l-373 -572q-16 -26 -50 -26t-54 20q-21 20 -21 44t11 42l409 617l-385 581
q-10 14 -10 40z" />
    <glyph glyph-name="Y" unicode="Y" 
d="M530 -16q-29 0 -49 20t-20 49v588l-412 647q-10 16 -10 41t20 45q21 20 55 20t54 -32l362 -582l363 582q20 33 54 33q34 -1 54 -21q39 -40 11 -86l-412 -647v-588q0 -29 -20 -49t-50 -20z" />
    <glyph glyph-name="Z" unicode="Z" horiz-adv-x="1050" 
d="M961 0h-861q-27 0 -46 18t-19 43t12 43l762 1143h-666q-29 -1 -47 19t-18 47t18 46t47 19h787q29 0 47 -19t18 -43t-12 -42l-756 -1143h734q27 0 46 -18t19 -47q0 -30 -19 -48t-46 -18z" />
    <glyph glyph-name="bracketleft" unicode="[" horiz-adv-x="530" 
d="M489 -246q0 -20 -15 -36t-38 -17h-207q-29 0 -47 18t-18 48v1679q0 29 18 47t47 18h207q23 0 38 -16q15 -17 15 -37t-15 -36t-38 -17h-141v-1598h141q23 -1 38 -17t15 -36z" />
    <glyph glyph-name="backslash" unicode="\" horiz-adv-x="833" 
d="M756 -143q0 -21 -20 -39t-46 -19q-49 0 -63 47l-541 1596q-6 18 -6 38t19 39t46 19q50 0 64 -47l541 -1595q6 -18 6 -39z" />
    <glyph glyph-name="bracketright" unicode="]" horiz-adv-x="530" 
d="M41 -246q0 20 16 36t37 17h142v1598h-142q-20 0 -37 16q-16 17 -16 37t16 36t37 17h207q27 0 46 -18t20 -47v-1679q1 -29 -19 -47t-47 -19h-207q-20 0 -37 16q-16 17 -16 37z" />
    <glyph glyph-name="asciicircum" unicode="^" horiz-adv-x="958" 
d="M140 696q-28 0 -44 16t-16 36q0 18 6 30l346 611q14 27 47 27t47 -27l346 -611q19 -38 -4 -59q-22 -23 -50 -23t-42 27l-297 534l-297 -534q-14 -27 -42 -27z" />
    <glyph glyph-name="underscore" unicode="_" horiz-adv-x="831" 
d="M874 -143q0 -23 -16 -39t-39 -17h-807q-23 1 -39 17t-16 39t16 39t39 16h807q23 0 39 -16t16 -39z" />
    <glyph glyph-name="grave" unicode="`" horiz-adv-x="757" 
d="M516 1126q27 -34 -5 -61t-62 4l-199 201q-37 37 6 78q45 41 78 0z" />
    <glyph glyph-name="a" unicode="a" horiz-adv-x="956" 
d="M436 92q115 0 198 70t83 192v86h-289q-104 0 -164 -44t-61 -130q0 -174 233 -174zM717 610q-1 104 -65 165t-193 61t-221 -105q-27 -29 -53 -29t-43 18t-17 38q0 22 10 39q102 162 340 161q177 0 273 -94t96 -254v-563q0 -27 -18 -45t-46 -18q-27 0 -45 18t-18 45v74
q-37 -70 -117 -109t-176 -39q-164 0 -259 77t-95 214t96 214t262 77h289v55z" />
    <glyph glyph-name="b" unicode="b" horiz-adv-x="1026" 
d="M543 958q412 0 411 -491q0 -248 -108 -371t-301 -123q-192 -1 -302 103t-110 301v1016q-1 29 19 47t47 18t46 -18t19 -47v-568q39 55 113 94t166 39zM264 377q0 -141 74 -213t197 -72q289 0 289 374t-289 374q-109 0 -176 -60t-85 -102l-10 -19v-282z" />
    <glyph glyph-name="c" unicode="c" horiz-adv-x="903" 
d="M72 467q0 248 109 370q110 122 313 121q118 0 198 -45q130 -74 131 -139q0 -23 -17 -39t-43 -16t-48 24q-84 96 -221 97q-289 0 -289 -374t289 -374q119 0 237 88q47 33 81 -3q17 -17 17 -43t-26 -50q-135 -111 -323 -111t-299 123q-109 123 -109 371z" />
    <glyph glyph-name="d" unicode="d" horiz-adv-x="1026" 
d="M483 958q92 0 166 -38t113 -95v568q0 29 18 47t47 18t47 -18t19 -47v-1016q0 -197 -110 -300t-302 -103t-301 122q-109 123 -108 371q-1 491 411 491zM762 377v282l-10 20q-54 100 -159 141q-48 19 -101 20q-289 0 -289 -374t289 -374q122 0 196 72t74 213z" />
    <glyph glyph-name="e" unicode="e" horiz-adv-x="954" 
d="M756 543q0 297 -262 297q-131 0 -205 -79t-84 -218h551zM72 460q0 242 110 370t312 128q255 0 347 -199q44 -95 44 -197t-35 -123q-18 -11 -47 -11h-598q0 -154 83 -244t219 -90t253 88q46 30 79 -5q17 -17 17 -42t-22 -47q-115 -115 -323 -115t-324 122
q-115 122 -115 365z" />
    <glyph glyph-name="f" unicode="f" horiz-adv-x="591" 
d="M528 1280q-223 0 -223 -229v-121h187q27 0 44 -18t17 -44q0 -27 -17 -44t-44 -17h-187v-758q0 -29 -19 -47t-46 -18t-46 18t-20 47v758h-70q-27 0 -44 17t-17 44t17 44t44 18h70v121q0 152 89 252t265 100q27 1 44 -17q18 -18 18 -45t-18 -44t-44 -17z" />
    <glyph glyph-name="g" unicode="g" horiz-adv-x="978" 
d="M799 -117q0 156 -226 156h-213q-172 -29 -172 -164q0 -88 86 -130t220 -42t219 43q86 43 86 137zM469 389q117 -1 180 61t64 164t-63 164t-181 62t-180 -62t-63 -164t62 -164q64 -62 181 -61zM469 958q129 0 219 -51q29 53 70 82t89 29t65 -18q18 -18 18 -42
q0 -25 -18 -42t-42 -17q-70 0 -98 -63q74 -90 74 -235t-100 -237t-254 -94q-154 0 -244 52q-37 -31 -37 -74q0 -86 151 -86h211q158 0 258 -71q101 -71 101 -215t-121 -216t-319 -72q-117 0 -209 24t-160 90t-68 173q0 143 156 207q-57 18 -92 62t-35 104q0 88 82 143
q-74 93 -74 237t100 237t277 93z" />
    <glyph glyph-name="h" unicode="h" horiz-adv-x="1026" 
d="M537 958q377 0 376 -362v-547q0 -29 -18 -47t-47 -18t-47 18t-19 47v520q0 133 -53 203t-192 70q-272 0 -273 -287v-506q0 -29 -19 -47t-46 -18t-46 18t-20 47v1344q-1 29 19 47t47 18t46 -18t19 -47v-578q31 61 104 102t169 41z" />
    <glyph glyph-name="i" unicode="i" horiz-adv-x="395" 
d="M197 1139q-78 0 -78 80t78 79q78 0 78 -80t-78 -79zM262 881v-832q0 -29 -18 -47t-47 -18t-47 18t-19 47v832q1 29 19 47t47 18t47 -18t18 -47z" />
    <glyph glyph-name="j" unicode="j" horiz-adv-x="397" 
d="M199 1139q-78 0 -78 80t78 79q78 0 78 -80t-78 -79zM133 -72v953q-1 29 19 47t47 18t46 -18t19 -47v-953q0 -131 -85 -219t-214 -88q-27 -1 -44 17t-17 45t17 44t44 17q74 0 121 53t47 131z" />
    <glyph glyph-name="k" unicode="k" horiz-adv-x="927" 
d="M806 -16q-30 0 -54 30l-363 465l-125 -100v-330q0 -29 -19 -47t-46 -18t-46 18t-20 47v1344q-1 29 19 47t47 18t46 -18t19 -47v-858l484 395q18 16 45 16t46 -18t19 -49t-27 -52l-335 -268l364 -469q14 -16 14 -43t-19 -45t-49 -18z" />
    <glyph glyph-name="l" unicode="l" horiz-adv-x="448" 
d="M199 1458q27 0 46 -19t19 -46v-1170q0 -117 82 -117q25 0 43 -17q19 -17 19 -44t-18 -44t-44 -17q-213 0 -213 239v1170q-1 27 19 46t47 19z" />
    <glyph glyph-name="m" unicode="m" horiz-adv-x="1654" 
d="M1155 958q387 0 387 -362v-547q0 -29 -19 -47t-46 -18t-46 18t-20 47v520q0 131 -57 202q-56 71 -192 71t-199 -65t-64 -181v-547q0 -29 -19 -47t-46 -18t-47 18q-19 18 -19 47v520q0 133 -55 203t-197 70q-252 0 -252 -287v-506q0 -29 -19 -47t-46 -18t-46 18t-20 47
v832q-1 29 19 47t47 18t46 -18t19 -47v-66q29 61 101 103t165 40q240 0 326 -143q92 143 299 143z" />
    <glyph glyph-name="n" unicode="n" horiz-adv-x="1026" 
d="M537 958q377 0 376 -362v-547q0 -29 -18 -47t-47 -18t-47 18t-19 47v520q0 133 -53 203t-192 70q-272 0 -273 -287v-506q0 -29 -19 -47t-46 -18t-46 18t-20 47v832q-1 29 19 47t47 18t46 -18t19 -47v-66q31 61 104 102t169 41z" />
    <glyph glyph-name="o" unicode="o" horiz-adv-x="1003" 
d="M502 92q297 0 297 374t-297 374t-297 -374t297 -374zM502 958q206 0 318 -122t112 -369q0 -246 -113 -370t-317 -124t-317 124q-114 124 -113 370q0 246 112 369q113 122 318 122z" />
    <glyph glyph-name="p" unicode="p" horiz-adv-x="1042" 
d="M260 467q0 -187 78 -281t205 -94q295 0 295 374t-299 374q-123 0 -201 -92t-78 -281zM199 946q27 0 46 -19t19 -46v-66q33 57 108 100t171 43q205 0 317 -122t111 -369q0 -246 -112 -370t-316 -124q-96 0 -169 42t-110 102v-463q0 -27 -19 -46q-19 -20 -46 -20t-46 20
t-20 46v1227q-1 27 19 46t47 19z" />
    <glyph glyph-name="q" unicode="q" horiz-adv-x="1003" 
d="M483 -27q-412 0 -411 492q0 248 108 371q110 122 302 122t302 -103t109 -300v-901q-1 -27 -19 -46q-18 -20 -47 -20t-47 20t-18 46v452q-39 -55 -113 -94t-166 -39zM762 555q0 141 -74 213t-196 72q-289 0 -289 -374t289 -374q136 0 230 117q26 32 40 63v283z" />
    <glyph glyph-name="r" unicode="r" horiz-adv-x="632" 
d="M264 881v-90q33 75 108 119t177 44q27 0 45 -18t18 -45t-18 -45t-45 -19q-137 0 -211 -87t-74 -232v-459q0 -29 -19 -47t-46 -18t-46 18t-20 47v832q-1 29 19 47t47 18t46 -18t19 -47z" />
    <glyph glyph-name="s" unicode="s" horiz-adv-x="868" 
d="M424 831q-182 0 -182 -122q0 -103 189 -163q79 -26 159 -57t135 -92t55 -151q0 -133 -97 -202t-233 -69t-229 45q-94 45 -139 103q-14 20 -14 42t17 39t42 17t45 -20q100 -100 260 -101q96 0 157 35q60 35 60 101t-55 105q-55 37 -135 63t-159 57t-134 93t-55 170t87 170
t226 62q213 0 311 -131q15 -18 15 -41t-18 -40t-42 -17q-25 0 -43 18q-90 86 -223 86z" />
    <glyph glyph-name="t" unicode="t" horiz-adv-x="571" 
d="M184 930v215q0 27 20 46t46 19q27 0 46 -19t19 -46v-215h134q27 0 44 -18t17 -44q0 -27 -17 -44t-44 -17h-134v-565q0 -64 33 -100t73 -36q75 0 77 -61q0 -27 -18 -44t-46 -17q-118 0 -184 72t-66 186v565h-80q-27 0 -44 17t-17 44t17 44t44 18h80z" />
    <glyph glyph-name="u" unicode="u" horiz-adv-x="987" 
d="M178 946q27 0 46 -19t20 -46v-535q0 -116 53 -182t197 -66t196 67q53 67 53 181v535q-1 27 19 46t48 19t46 -19t18 -46v-535q0 -170 -82 -271t-298 -101q-217 0 -299 100q-82 102 -82 272v535q0 29 19 47t46 18z" />
    <glyph glyph-name="v" unicode="v" horiz-adv-x="897" 
d="M449 -16q-43 0 -62 41l-348 827q-6 18 -6 38t18 38t55 18t54 -43l289 -706l288 706q15 43 53 43q74 0 74 -65q0 -10 -6 -29l-348 -827q-18 -41 -61 -41z" />
    <glyph glyph-name="w" unicode="w" horiz-adv-x="1310" 
d="M406 -16q-48 0 -64 43l-301 825q-6 16 -6 37t19 39t55 18t53 -43l237 -678l195 678q12 43 61 43t62 -43l194 -678l238 678q16 43 52 43t61 -23t8 -71l-301 -825q-15 -43 -63 -43t-62 47l-189 649l-188 -649q-13 -47 -61 -47z" />
    <glyph glyph-name="x" unicode="x" horiz-adv-x="843" 
d="M124 946q30 0 50 -26l248 -340l248 340q20 26 50 26t49 -18t19 -42t-12 -44l-272 -367l280 -387q12 -16 12 -42t-18 -44q-20 -18 -51 -18t-49 26l-256 363l-256 -363q-18 -26 -49 -26t-50 18t-19 44t11 42l281 387l-272 367q-32 51 6 86q20 18 50 18z" />
    <glyph glyph-name="y" unicode="y" horiz-adv-x="897" 
d="M10 -350q0 61 78 61t134 44t111 168q15 34 48 116l-342 813q-6 18 -6 38t18 38t55 18t54 -43l289 -706l288 706q15 43 53 43q74 0 74 -65q0 -10 -6 -29l-403 -961q-66 -155 -154 -229t-229 -74q-27 0 -44 18t-18 44z" />
    <glyph glyph-name="z" unicode="z" horiz-adv-x="829" 
d="M78 868q0 27 17 44t44 18h561q27 0 44 -18q18 -18 18 -42q0 -25 -14 -43l-510 -700h473q27 0 45 -18q18 -17 18 -45t-18 -46t-45 -18h-600q-27 0 -44 17t-17 42t13 43l517 705h-441q-27 0 -44 17t-17 44z" />
    <glyph glyph-name="braceleft" unicode="{" horiz-adv-x="692" 
d="M639 -242q0 -23 -17 -40t-40 -17q-145 0 -217 70t-72 170l24 430q0 111 -53 149t-151 39h-15q-20 0 -33 13q-13 14 -13 34t12 34q14 14 34 13h15q98 0 151 39t53 152q0 66 -12 192t-12 232q0 104 73 174t216 69q23 0 40 -17t17 -40t-17 -40t-40 -17q-152 0 -152 -150
l16 -387q0 -114 -64 -184t-183 -70q119 0 183 -70t64 -184l-16 -387q0 -150 152 -149q23 0 40 -18t17 -40z" />
    <glyph glyph-name="bar" unicode="|" horiz-adv-x="442" 
d="M289 1587v-1847q1 -27 -19 -47q-20 -21 -49 -21t-48 20t-19 48v1847q0 27 19 47t48 20t49 -20t19 -47z" />
    <glyph glyph-name="braceright" unicode="}" horiz-adv-x="692" 
d="M111 -299q-23 0 -41 17t-17 40q-1 23 17 40t41 18q152 0 151 149l-16 387q0 113 64 184q65 71 184 70q-119 0 -184 71t-64 183l16 387q0 150 -151 150q-23 0 -40 17t-18 40t17 40t41 17q143 1 216 -69t73 -174t-13 -232q-12 -127 -12 -192q0 -113 53 -152t152 -39h14
q20 0 34 -13q14 -14 13 -34q0 -20 -13 -34t-34 -13h-14q-98 0 -152 -39t-53 -149l24 -430q1 -100 -71 -170t-217 -70z" />
    <glyph glyph-name="asciitilde" unicode="~" horiz-adv-x="976" 
d="M299 733q86 -1 202 -67t163 -66q79 0 107 44q9 13 23 43t42 30q28 -1 44 -17t17 -32q0 -16 -4 -29q-19 -63 -75 -105t-144 -42t-202 66t-161 67t-73 -15t-34 -29q-10 -13 -24 -43t-42 -30t-44 16t-16 32t4 30q20 63 76 105t141 42z" />
    <glyph glyph-name="nbspace" unicode="&#xa0;" horiz-adv-x="579" 
 />
    <glyph glyph-name="exclamdown" unicode="&#xa1;" horiz-adv-x="425" 
d="M213 958q96 0 96 -97t-96 -97t-96 97t96 97zM213 -453q-74 0 -72 72l31 965q0 37 41 37t41 -37l31 -965q2 -72 -72 -72z" />
    <glyph glyph-name="cent" unicode="&#xa2;" horiz-adv-x="903" 
d="M72 466q0 456 368 488v117q0 23 16 38t38 15q24 0 38 -15t15 -38v-117q98 -10 164 -52q112 -71 112 -124q0 -27 -17 -43t-43 -16t-48 24q-84 96 -221 97q-289 0 -289 -374t289 -374q119 0 237 88q47 33 81 -3q17 -17 17 -43t-26 -50q-117 -94 -256 -109v-141
q1 -23 -15 -38t-38 -15t-38 15q-15 15 -16 38v143q-368 33 -368 489z" />
    <glyph glyph-name="sterling" unicode="&#xa3;" horiz-adv-x="1210" 
d="M1067 244q35 0 53 -20q33 -36 10 -79q-90 -176 -296 -176q-66 0 -190 48q-195 75 -292 34q-58 -25 -79 -40q-72 -51 -111 -10q-18 19 -18 47t28 54q56 46 110 140t54 167t-45 169h-98q-27 0 -45 17q-17 17 -17 44t17 44t45 17h38q-86 162 -86 325t121 273t320 109
q344 0 454 -272q18 -48 -7 -71q-25 -24 -60 -24t-55 47q-80 195 -332 195q-135 0 -222 -72q-88 -72 -88 -200t105 -310h358q27 0 44 -17t17 -44t-16 -44q-18 -17 -45 -17h-305q31 -68 31 -170q0 -143 -121 -252q99 59 307 -18q119 -44 170 -44q137 0 193 113q18 37 53 37z
" />
    <glyph glyph-name="currency" unicode="&#xa4;" horiz-adv-x="956" 
d="M482 383q105 0 172 74q67 75 67 183t-67 182t-172 73q-105 0 -175 -75q-69 -75 -69 -181t70 -181t174 -75zM481 258q-127 0 -221 72l-94 -94q-20 -20 -46 -20t-43 17t-17 45t20 48l92 96q-63 94 -63 213t65 225l-96 98q-18 20 -18 46t16 45q18 18 44 18t46 -20l94 -99
q106 72 225 72t213 -68l93 95q18 20 45 20t45 -18t18 -44t-22 -49l-93 -94q66 -96 66 -218t-66 -224l93 -94q44 -51 4 -93q-18 -18 -45 -18t-45 21l-91 92q-92 -70 -219 -70z" />
    <glyph glyph-name="yen" unicode="&#xa5;" 
d="M891 389q-1 -23 -17 -39t-38 -16h-236v-281q0 -29 -20 -49t-50 -20t-49 20q-20 20 -20 49v281h-236q-23 0 -39 16t-16 39t16 39t39 16h236v97h-236q-23 0 -39 16t-16 39t16 39t39 16h230l-406 637q-10 16 -10 41t20 45q21 20 55 20t54 -32l362 -582l363 582q20 33 54 33
q34 -1 54 -21q39 -40 11 -86l-406 -637h230q22 0 38 -16t16 -39t-16 -39t-38 -16h-236v-97h236q23 0 39 -16t16 -39z" />
    <glyph glyph-name="brokenbar" unicode="&#xa6;" horiz-adv-x="442" 
d="M289 532v-792q1 -27 -19 -47q-20 -21 -49 -21t-48 20t-19 48v792q0 28 19 48t48 20t49 -20t19 -48zM289 1587v-790q1 -27 -19 -47t-49 -20t-48 20t-19 47v790q0 27 19 47t48 20t49 -20t19 -47z" />
    <glyph glyph-name="section" unicode="&#xa7;" horiz-adv-x="1032" 
d="M74 584q0 142 110 262q-80 96 -80 234t106 232t320 95q256 0 404 -184q14 -18 14 -42t-18 -42q-18 -19 -45 -19t-49 23q-139 139 -296 139t-229 -59q-71 -59 -71 -153q1 -171 253 -248q105 -32 210 -70t179 -119q74 -83 74 -223t-110 -260q80 -96 80 -234t-106 -233
q-106 -94 -320 -95q-256 0 -404 185q-14 18 -14 42t18 42t45 18t50 -22q139 -139 295 -139t229 58q72 60 72 154t-74 154t-179 92q-104 33 -210 70t-181 118q-73 82 -73 224zM821 422q0 80 -62 138t-137 86q-76 28 -180 63t-151 61q-82 -70 -82 -199q0 -80 61 -138
q62 -58 138 -85q76 -28 180 -62t151 -61q82 70 82 197z" />
    <glyph glyph-name="dieresis" unicode="&#xa8;" horiz-adv-x="649" 
d="M485 1094q-73 0 -73 76t74 77q74 -1 73 -77q0 -76 -74 -76zM164 1094q-74 0 -74 76t74 77q74 -1 74 -77t-74 -76z" />
    <glyph glyph-name="copyright" unicode="&#xa9;" horiz-adv-x="1640" 
d="M819 78q600 0 600 611t-600 611q-297 0 -444 -150t-147 -462q0 -310 146 -460q148 -150 445 -150zM109 689q0 357 184 537t529 181q346 0 528 -179q182 -178 182 -538t-183 -539t-527 -179t-529 180q-184 180 -184 537zM813 317q-321 0 -321 374t321 374q90 0 160 -38
q100 -54 100 -107q0 -23 -14 -37q-14 -15 -37 -15t-41 19q-76 76 -175 76q-98 -1 -150 -63t-52 -210q0 -270 209 -270q106 0 168 61q20 21 42 21t36 -16t14 -33q0 -18 -12 -35q-80 -101 -248 -101z" />
    <glyph glyph-name="ordfeminine" unicode="&#xaa;" horiz-adv-x="700" 
d="M342 815q82 0 135 45t53 127v76h-182q-164 0 -164 -124t158 -124zM358 1327q-82 0 -145 -67q-13 -14 -31 -14t-36 17q-18 18 4 52q68 92 204 92t202 -59q65 -59 65 -162v-393q1 -17 -13 -31t-32 -14t-32 13q-13 13 -14 32v38q-59 -92 -181 -92q-123 -1 -189 53t-66 150
t69 146t185 51h182v49q0 139 -172 139zM657 590q0 -16 -11 -28t-28 -11h-536q-16 0 -28 11q-11 12 -11 28t11 27t28 12h536q16 1 28 -11t11 -28z" />
    <glyph glyph-name="guillemotleft" unicode="&#xab;" horiz-adv-x="1069" 
d="M475 434q0 18 14 37l334 393q17 18 37 18t34 -14t15 -33q0 -19 -14 -36l-313 -365l313 -364q14 -16 14 -36t-14 -34q-15 -14 -35 -14t-37 18l-334 393q-14 19 -14 37zM160 434q0 18 14 37l334 393q16 18 36 18t36 -14q14 -14 14 -33t-14 -36l-314 -365l314 -364
q14 -16 14 -36t-14 -34t-34 -14t-38 18l-334 393q-14 19 -14 37z" />
    <glyph glyph-name="logicalnot" unicode="&#xac;" horiz-adv-x="1153" 
d="M1079 571v-526q0 -27 -17 -44t-44 -17t-44 17t-18 44v477h-827q-23 0 -39 16t-16 40q0 22 16 38t39 17h889q27 1 44 -17t17 -45z" />
    <glyph glyph-name="registered" unicode="&#xae;" horiz-adv-x="772" 
d="M319 1106h87q49 0 49 52t-49 52h-87v-104zM319 1061v-100q-1 -27 -27 -27t-26 27v268q0 27 27 26h113q46 1 74 -27t28 -68t-26 -70t-58 -29l68 -84q6 -8 6 -16q0 -27 -25 -27q-14 0 -22 12l-84 115h-48zM385 831q246 0 246 265q1 137 -61 199t-185 63q-246 0 -246 -264
t246 -263zM383 1407q305 0 305 -312t-305 -313q-143 0 -222 79t-79 235t79 234t222 77z" />
    <glyph glyph-name="macron" unicode="&#xaf;" horiz-adv-x="782" 
d="M633 1151q1 -19 -15 -35t-36 -16h-381q-20 0 -36 15q-15 15 -15 35t15 36t36 16h381q20 0 36 -16t15 -35z" />
    <glyph glyph-name="degree" unicode="&#xb0;" horiz-adv-x="733" 
d="M567 1126q0 84 -58 144t-143 59q-86 0 -144 -59q-58 -60 -58 -144t58 -142t144 -58t143 58q58 58 58 142zM645 1126q0 -114 -82 -196q-81 -82 -197 -82t-198 82t-82 196t82 198q82 83 198 83t198 -83t81 -198z" />
    <glyph glyph-name="plusminus" unicode="&#xb1;" horiz-adv-x="929" 
d="M930 55q0 -23 -16 -39t-40 -16h-819q-23 0 -39 16t-16 39t16 39t39 17h819q24 -1 40 -17t16 -39zM930 629q0 -23 -16 -39t-40 -17h-350v-350q0 -25 -17 -42t-42 -17t-42 17t-17 42v350h-351q-23 1 -39 17t-16 39t16 39t39 16h351v348q0 25 17 42q17 18 42 18t42 -18
t17 -42v-348h350q24 0 40 -16t16 -39z" />
    <glyph glyph-name="twosuperior" unicode="&#xb2;" horiz-adv-x="544" 
d="M270 1495q102 0 162 -48t60 -124t-52 -131t-113 -85q-165 -80 -165 -138h276q20 -1 34 -15t15 -34q0 -20 -14 -34t-35 -16h-342q-20 0 -34 14t-15 36q0 80 53 140q54 60 116 89q170 79 169 164q0 37 -30 61q-29 24 -95 25q-66 0 -106 -60q-16 -20 -38 -20t-35 13
q-13 12 -13 28t4 26q45 109 198 109z" />
    <glyph glyph-name="threesuperior" unicode="&#xb3;" horiz-adv-x="530" 
d="M479 1055q0 -85 -59 -141t-190 -56t-195 119q-8 17 -8 33t13 29t37 13t40 -26q41 -70 125 -70q129 0 129 107q0 98 -123 98h-45q-21 1 -35 15t-14 33t12 34l127 137h-191q-20 0 -35 14t-16 38q-1 22 15 36t36 15h295q19 -1 35 -15t16 -38t-14 -35l-139 -144q94 0 139 -55
t45 -141z" />
    <glyph glyph-name="acute" unicode="&#xb4;" horiz-adv-x="757" 
d="M309 1069q-30 -31 -62 -4t-5 61l182 222q33 41 77 0t7 -78z" />
    <glyph glyph-name="mu" unicode="&#xb5;" horiz-adv-x="987" 
d="M244 881v-535q0 -116 53 -182t197 -66t196 67q53 67 53 181v535q-1 27 19 46t48 19t46 -19t18 -46v-535q0 -170 -82 -271t-298 -102q-160 0 -250 95v-422q0 -27 -20 -46q-20 -20 -46 -20q-27 0 -46 20t-19 46v1235q0 29 19 47t46 18q26 0 46 -19t20 -46z" />
    <glyph glyph-name="paragraph" unicode="&#xb6;" horiz-adv-x="1050" 
d="M705 1255h-87v-823q0 -219 -133 -352q119 63 169 192t51 340v643zM260 -68q-174 0 -174 70q0 35 23 58t68 10q44 -14 83 -15q115 0 171 93t56 253v312h-67q-137 0 -234 97q-96 98 -96 236t96 235t234 97h471q27 0 44 -17t17 -44t-17 -44t-44 -18h-55v-643
q0 -338 -146 -509t-430 -171z" />
    <glyph glyph-name="periodcentered" unicode="&#xb7;" horiz-adv-x="335" 
d="M166 518q-96 0 -96 97t96 98t96 -97t-96 -98z" />
    <glyph glyph-name="cedilla" unicode="&#xb8;" horiz-adv-x="645" 
d="M322 -117q178 0 178 -168q0 -174 -199 -174q-78 0 -131 37q-16 12 -16 30t15 32q15 15 51 -1q36 -17 87 -17t77 18q26 20 26 75q0 94 -91 95l-83 -9q-39 0 -37 45l6 154h71l-10 -121q37 4 56 4z" />
    <glyph glyph-name="onesuperior" unicode="&#xb9;" horiz-adv-x="401" 
d="M104 1286q-20 0 -35 16t-15 38q0 24 24 40l147 99q14 10 34 10t35 -15t15 -38v-518q0 -20 -15 -36t-38 -18q-23 0 -38 16t-15 38v425l-62 -43q-17 -14 -37 -14z" />
    <glyph glyph-name="ordmasculine" unicode="&#xba;" horiz-adv-x="712" 
d="M356 1407q293 0 293 -334t-293 -334t-293 334t293 334zM674 590q0 -16 -11 -28t-28 -11h-557q-16 0 -28 11q-11 12 -11 28t11 27t28 12h557q15 1 27 -11t12 -28zM356 819q201 0 201 254t-201 254t-201 -254t201 -254z" />
    <glyph glyph-name="guillemotright" unicode="&#xbb;" horiz-adv-x="1069" 
d="M594 434q0 -18 -14 -37l-334 -393q-16 -18 -36 -18t-36 14q-14 14 -14 34t14 36l313 364l-313 365q-14 15 -14 35t14 34t34 14t38 -18l334 -393q14 -19 14 -37zM909 434q0 -18 -14 -37l-334 -393q-17 -18 -37 -18t-35 14q-14 14 -14 34t14 36l314 364l-314 365
q-14 15 -14 35t14 34q15 14 35 14t37 -18l334 -393q14 -19 14 -37z" />
    <glyph glyph-name="onequarter" unicode="&#xbc;" horiz-adv-x="1007" 
d="M727 1395q31 -1 47 -17t16 -36t-4 -23l-501 -1299q-8 -37 -52 -36q-23 0 -45 22t-6 53l504 1303q10 33 41 33zM762 219v197l-137 -197h137zM868 219h33q21 0 35 -14q14 -15 14 -35t-14 -34t-35 -15h-33v-84q0 -21 -16 -37t-36 -16t-38 16q-16 16 -16 37v84h-227
q-20 0 -35 14q-14 13 -14 33t12 35l274 383q18 22 40 22t40 -15q16 -15 16 -38v-336zM108 1198q-19 0 -35 15q-15 15 -15 39t24 40l147 99q14 10 34 10q20 -1 35 -17t15 -36v-519q0 -23 -15 -37t-38 -16q-23 0 -38 16t-15 37v426l-62 -43q-18 -14 -37 -14z" />
    <glyph glyph-name="onehalf" unicode="&#xbd;" horiz-adv-x="1079" 
d="M729 1395q29 -1 45 -17t16 -36t-4 -23l-501 -1299q-15 -36 -45 -36t-52 22t-6 53l504 1303q14 33 43 33zM805 625q101 0 161 -48q60 -49 60 -125t-51 -130t-113 -85q-164 -79 -166 -139h277q21 0 35 -14t14 -34t-14 -36q-14 -14 -35 -14h-342q-20 0 -35 14q-14 14 -14 35
q0 80 53 140q53 59 115 89q168 79 170 164q0 37 -30 62q-30 24 -96 24t-106 -59q-16 -20 -38 -20t-35 13q-13 12 -13 28t4 26q45 109 199 109zM108 1198q-19 0 -35 15q-15 15 -15 39t24 40l147 99q14 10 34 10q20 -1 35 -17t15 -36v-519q0 -23 -15 -37t-38 -16q-23 0 -38 16
t-15 37v426l-62 -43q-18 -14 -37 -14z" />
    <glyph glyph-name="threequarters" unicode="&#xbe;" horiz-adv-x="1185" 
d="M842 1395q31 -1 47 -17t16 -36t-4 -23l-502 -1299q-8 -37 -51 -36q-23 0 -39 16t-16 34t4 25l504 1303q10 33 41 33zM500 967q0 -85 -60 -141t-190 -56q-131 0 -195 119q-8 17 -8 33t13 29t37 13t40 -26q41 -70 125 -70q129 0 129 107q0 98 -123 98h-45q-20 0 -35 14
q-14 15 -14 33t12 35l127 137h-190q-19 0 -35 16t-16 35t15 35t36 17h295q20 1 36 -15t15 -38q0 -22 -14 -35l-140 -144q93 0 139 -55t46 -141zM877 219v197l-138 -197h138zM983 219h33q20 0 34 -14q14 -15 15 -35q0 -20 -14 -34t-35 -15h-33v-84q0 -21 -16 -37
q-17 -16 -37 -16t-37 16q-16 16 -16 37v84h-228q-20 0 -35 14q-14 13 -14 33t12 35l275 383q19 22 41 22t38 -15t17 -38v-336z" />
    <glyph glyph-name="questiondown" unicode="&#xbf;" horiz-adv-x="944" 
d="M524 958q96 0 96 -97t-96 -97t-96 97t96 97zM631 461q0 -91 -44 -148q-45 -57 -107 -97t-126 -81t-107 -105q-44 -64 -44 -162q-1 -98 71 -155t199 -57t197 61t69 185q-1 29 19 48t49 19t48 -19t19 -48q0 -172 -104 -270t-294 -97q-190 0 -297 90q-108 90 -107 256
q0 100 43 179t105 127t124 88t106 82t44 84t-22 76q-22 33 -23 59q0 26 21 45q22 17 48 17t47 -20q66 -66 66 -157z" />
    <glyph glyph-name="Agrave" unicode="&#xc0;" horiz-adv-x="1255" 
d="M739 1544q27 -34 -5 -61t-62 4l-199 201q-37 38 7 78t77 -1zM125 -16q-29 0 -49 20q-36 36 -15 80l500 1264q21 47 67 47t66 -47l500 -1264q6 -16 6 -38t-20 -42t-60 -20t-59 47l-148 377h-571l-149 -375q-18 -49 -68 -49zM870 535l-243 626l-242 -626h485z" />
    <glyph glyph-name="Aacute" unicode="&#xc1;" horiz-adv-x="1255" 
d="M582 1487q-31 -31 -63 -4t-5 61l182 221q33 41 77 0t7 -77zM125 -16q-29 0 -49 20q-36 36 -15 80l500 1264q21 47 67 47t66 -47l500 -1264q6 -16 6 -38t-20 -42t-60 -20t-59 47l-148 377h-571l-149 -375q-18 -49 -68 -49zM870 535l-243 626l-242 -626h485z" />
    <glyph glyph-name="Acircumflex" unicode="&#xc2;" horiz-adv-x="1255" 
d="M428 1473q-20 0 -35 14q-14 14 -14 36t18 38l197 161q34 25 65 0l197 -161q18 -15 18 -37t-14 -36t-34 -15q-20 0 -33 12l-166 139l-166 -139q-13 -12 -33 -12zM125 -16q-29 0 -49 20q-36 36 -15 80l500 1264q21 47 67 47t66 -47l500 -1264q6 -16 6 -38t-20 -42t-60 -20
t-59 47l-148 377h-571l-149 -375q-18 -49 -68 -49zM870 535l-243 626l-242 -626h485z" />
    <glyph glyph-name="Atilde" unicode="&#xc3;" horiz-adv-x="1255" 
d="M508 1677q53 0 127 -40t120 -40t89 58q16 23 38 23t38 -15q14 -15 14 -31t-6 -28q-53 -106 -178 -107q-53 0 -127 40t-120 40t-89 -57q-16 -23 -38 -23t-38 14q-14 15 -14 31t6 29q53 106 178 106zM125 -16q-29 0 -49 20q-36 36 -15 80l500 1264q21 47 67 47t66 -47
l500 -1264q6 -16 6 -38t-20 -42t-60 -20t-59 47l-148 377h-571l-149 -375q-18 -49 -68 -49zM870 535l-243 626l-242 -626h485z" />
    <glyph glyph-name="Adieresis" unicode="&#xc4;" horiz-adv-x="1255" 
d="M788 1518q-74 0 -74 76t74 77q74 -1 74 -77t-74 -76zM467 1518q-74 0 -74 76t74 77q74 -1 74 -77t-74 -76zM125 -16q-29 0 -49 20q-36 36 -15 80l500 1264q21 47 67 47t66 -47l500 -1264q6 -16 6 -38t-20 -42t-60 -20t-59 47l-148 377h-571l-149 -375q-18 -49 -68 -49z
M870 535l-243 626l-242 -626h485z" />
    <glyph glyph-name="Aring" unicode="&#xc5;" horiz-adv-x="1255" 
d="M627 1763q-70 1 -99 -29q-28 -30 -28 -92t30 -94q30 -30 97 -30t97 30t30 93q0 62 -28 92t-99 30zM627 1440q-213 0 -213 200t213 201q213 -1 213 -201t-213 -200zM125 -16q-29 0 -49 20q-36 36 -15 80l500 1264q21 47 67 47t66 -47l500 -1264q6 -16 6 -38t-20 -42
t-60 -20t-59 47l-148 377h-571l-149 -375q-18 -49 -68 -49zM870 535l-243 626l-242 -626h485z" />
    <glyph glyph-name="AE" unicode="&#xc6;" horiz-adv-x="1722" 
d="M825 535v573l-358 -573h358zM1575 0h-680q-29 0 -49 20t-21 50v338h-432l-243 -392q-18 -32 -54 -32t-56 22q-22 22 -22 44q0 23 15 46l803 1250q23 33 59 32h657q27 0 45 -18q19 -18 19 -45t-18 -45t-46 -19h-587v-493h450q27 0 45 -18t18 -46q0 -27 -18 -45t-45 -18
h-450v-504h610q27 0 45 -18q18 -17 18 -45t-18 -46t-45 -18z" />
    <glyph glyph-name="Ccedilla" unicode="&#xc7;" horiz-adv-x="1292" 
d="M90 688q0 356 167 538t472 181q145 0 266 -58t195 -159q14 -20 14 -46t-18 -44t-49 -18t-52 26q-55 76 -150 124t-206 48q-240 0 -368 -147t-128 -451t125 -443q125 -140 371 -141q107 0 203 43t153 125q19 27 51 27q32 1 50 -19t18 -44t-12 -42q-68 -98 -195 -157
t-268 -60l-51 2l-8 -94q37 4 55 4q178 0 178 -168q0 -174 -198 -174q-78 0 -132 37q-16 12 -16 30t16 33q16 16 51 -2q34 -17 86 -17t78 18q26 20 25 75q0 94 -90 95l-84 -9q-39 0 -37 45l4 134q-516 61 -516 708z" />
    <glyph glyph-name="Egrave" unicode="&#xc8;" 
d="M696 1544q27 -34 -5 -61t-62 4l-199 201q-37 38 7 78t77 -1zM913 0h-680q-29 0 -49 20t-20 50v1239q0 29 20 49t49 20h658q27 0 45 -18t18 -45t-18 -45t-45 -19h-588v-493h451q27 0 45 -18t18 -46q0 -27 -18 -45t-45 -18h-451v-504h610q27 0 45 -18q18 -17 18 -45
t-18 -46t-45 -18z" />
    <glyph glyph-name="Eacute" unicode="&#xc9;" 
d="M526 1487q-30 -31 -62 -4t-5 61l182 221q33 41 77 0t7 -77zM913 0h-680q-29 0 -49 20t-20 50v1239q0 29 20 49t49 20h658q27 0 45 -18t18 -45t-18 -45t-45 -19h-588v-493h451q27 0 45 -18t18 -46q0 -27 -18 -45t-45 -18h-451v-504h610q27 0 45 -18q18 -17 18 -45t-18 -46
t-45 -18z" />
    <glyph glyph-name="Ecircumflex" unicode="&#xca;" 
d="M388 1473q-20 0 -36 14q-14 14 -14 36t18 38l197 161q34 25 65 0l197 -161q19 -15 19 -37t-14 -36t-36 -15q-20 0 -32 12l-166 139l-166 -139q-12 -12 -32 -12zM913 0h-680q-29 0 -49 20t-20 50v1239q0 29 20 49t49 20h658q27 0 45 -18t18 -45t-18 -45t-45 -19h-588v-493
h451q27 0 45 -18t18 -46q0 -27 -18 -45t-45 -18h-451v-504h610q27 0 45 -18q18 -17 18 -45t-18 -46t-45 -18z" />
    <glyph glyph-name="Edieresis" unicode="&#xcb;" 
d="M741 1518q-73 0 -73 76t74 77q74 -1 73 -77q0 -76 -74 -76zM420 1518q-74 0 -74 76t74 77q74 -1 74 -77t-74 -76zM913 0h-680q-29 0 -49 20t-20 50v1239q0 29 20 49t49 20h658q27 0 45 -18t18 -45t-18 -45t-45 -19h-588v-493h451q27 0 45 -18t18 -46q0 -27 -18 -45
t-45 -18h-451v-504h610q27 0 45 -18q18 -17 18 -45t-18 -46t-45 -18z" />
    <glyph glyph-name="Igrave" unicode="&#xcc;" horiz-adv-x="466" 
d="M346 1544q27 -34 -5 -61t-62 4l-199 201q-37 38 7 78t77 -1zM303 1325v-1272q0 -29 -20 -49q-19 -20 -49 -20t-50 20t-20 49v1272q0 29 20 49t49 20t49 -20t21 -49z" />
    <glyph glyph-name="Iacute" unicode="&#xcd;" horiz-adv-x="466" 
d="M188 1487q-30 -31 -62 -4t-5 61l182 221q33 41 77 0t7 -77zM303 1325v-1272q0 -29 -20 -49q-19 -20 -49 -20t-50 20t-20 49v1272q0 29 20 49t49 20t49 -20t21 -49z" />
    <glyph glyph-name="Icircumflex" unicode="&#xce;" horiz-adv-x="466" 
d="M38 1473q-20 0 -36 14q-14 14 -14 36t18 38l197 161q34 25 65 0l197 -161q18 -15 18 -37t-14 -36t-35 -15q-21 0 -33 12l-165 139l-166 -139q-12 -12 -32 -12zM303 1325v-1272q0 -29 -20 -49q-19 -20 -49 -20t-50 20t-20 49v1272q0 29 20 49t49 20t49 -20t21 -49z" />
    <glyph glyph-name="Idieresis" unicode="&#xcf;" horiz-adv-x="466" 
d="M395 1518q-73 0 -73 76t74 77q74 -1 73 -77q0 -76 -74 -76zM74 1518q-74 0 -74 76t74 77q74 -1 74 -77t-74 -76zM303 1325v-1272q0 -29 -20 -49q-19 -20 -49 -20t-50 20t-20 49v1272q0 29 20 49t49 20t49 -20t21 -49z" />
    <glyph glyph-name="Eth" unicode="&#xd0;" horiz-adv-x="1247" 
d="M764 713q0 -27 -20 -45t-46 -19h-395v-518h219q244 0 370 126t126 430t-127 432t-369 128h-219v-471h395q26 0 46 -18t20 -45zM233 1378h289q309 0 472 -163t163 -527t-163 -526t-472 -162h-289q-29 0 -49 20t-20 50v579h-64q-27 1 -45 19t-18 45t18 45t45 18h64v533
q0 29 20 49t49 20z" />
    <glyph glyph-name="Ntilde" unicode="&#xd1;" horiz-adv-x="1269" 
d="M532 1677q53 0 127 -40t120 -40t89 58q16 23 38 23t38 -15q14 -15 14 -31t-6 -28q-53 -106 -178 -107q-53 0 -127 40t-120 40t-89 -57q-16 -23 -38 -23t-38 14q-14 15 -14 31t6 29q53 106 178 106zM1059 1395q27 1 47 -19t20 -49v-1274q0 -29 -20 -49t-52 -20t-55 28
l-720 1088v-1049q-1 -27 -21 -47t-47 -20t-47 20t-21 47v1276q1 29 21 48t51 19t51 -28l725 -1090v1051q1 29 21 49t47 19z" />
    <glyph glyph-name="Ograve" unicode="&#xd2;" horiz-adv-x="1458" 
d="M866 1544q27 -34 -5 -61t-62 4l-199 201q-37 38 7 78t77 -1zM729 1280q-240 0 -368 -147t-128 -443t128 -444t368 -148t368 148t128 443t-128 443t-368 148zM729 -29q-303 -1 -471 181t-168 537t167 537t472 181q305 0 472 -181q167 -180 167 -536t-168 -538t-471 -181z
" />
    <glyph glyph-name="Oacute" unicode="&#xd3;" horiz-adv-x="1458" 
d="M678 1487q-31 -31 -63 -4t-5 61l183 221q33 41 77 0t7 -77zM729 1280q-240 0 -368 -147t-128 -443t128 -444t368 -148t368 148t128 443t-128 443t-368 148zM729 -29q-303 -1 -471 181t-168 537t167 537t472 181q305 0 472 -181q167 -180 167 -536t-168 -538t-471 -181z
" />
    <glyph glyph-name="Ocircumflex" unicode="&#xd4;" horiz-adv-x="1458" 
d="M537 1473q-20 0 -35 14q-14 14 -14 36t18 38l196 161q33 25 66 0l197 -161q18 -15 18 -37t-14 -36t-35 -15q-21 0 -33 12l-166 139l-166 -139q-12 -12 -32 -12zM729 1280q-240 0 -368 -147t-128 -443t128 -444t368 -148t368 148t128 443t-128 443t-368 148zM729 -29
q-303 -1 -471 181t-168 537t167 537t472 181q305 0 472 -181q167 -180 167 -536t-168 -538t-471 -181z" />
    <glyph glyph-name="Otilde" unicode="&#xd5;" horiz-adv-x="1458" 
d="M608 1677q51 0 127 -40t121 -40t88 58q16 23 38 23t38 -15q14 -15 14 -31t-6 -28q-53 -106 -178 -107q-53 0 -127 40t-120 40t-89 -57q-16 -23 -38 -23t-38 14q-14 15 -14 31t6 29q53 106 178 106zM729 1280q-240 0 -368 -147t-128 -443t128 -444t368 -148t368 148
t128 443t-128 443t-368 148zM729 -29q-303 -1 -471 181t-168 537t167 537t472 181q305 0 472 -181q167 -180 167 -536t-168 -538t-471 -181z" />
    <glyph glyph-name="Odieresis" unicode="&#xd6;" horiz-adv-x="1460" 
d="M891 1518q-74 0 -74 76t74 77q74 -1 74 -77t-74 -76zM569 1518q-73 0 -73 76t74 77q74 -1 73 -77q0 -76 -74 -76zM729 1280q-240 0 -368 -147t-128 -443t128 -444t368 -148t368 148t128 443t-128 443t-368 148zM729 -29q-303 -1 -471 181t-168 537t167 537t472 181
q305 0 472 -181q167 -180 167 -536t-168 -538t-471 -181z" />
    <glyph glyph-name="multiply" unicode="&#xd7;" horiz-adv-x="724" 
d="M725 745q0 -23 -16 -38l-269 -261l269 -260q16 -16 16 -39t-17 -39t-40 -18q-23 0 -43 21l-263 256l-262 -256q-20 -21 -43 -21t-40 18t-17 40t16 38l269 260l-269 261q-16 17 -16 39t17 39t40 17t43 -20l262 -256l263 256q20 20 43 20t40 -16q17 -18 17 -41z" />
    <glyph glyph-name="Oslash" unicode="&#xd8;" horiz-adv-x="1458" 
d="M729 98q240 0 368 148t128 424q0 278 -103 428l-710 -901q116 -99 317 -99zM729 1280q-240 0 -368 -147t-128 -427t105 -430l711 904q-121 100 -320 100zM729 -29q-246 0 -401 117l-97 -121q-16 -20 -40 -20q-23 0 -39 16q-16 17 -16 37t9 33l103 131q-158 182 -158 531
t167 531t472 181q246 0 404 -121l94 119q16 20 40 20t40 -16q16 -17 16 -37t-10 -33l-101 -127q156 -184 156 -531t-168 -529t-471 -181z" />
    <glyph glyph-name="Ugrave" unicode="&#xd9;" horiz-adv-x="1277" 
d="M774 1544q27 -34 -5 -61t-62 4l-199 201q-37 38 7 78t77 -1zM1124 420q0 -449 -480 -449t-480 449v905q0 29 20 49t49 20t49 -20t21 -49v-905q0 -228 170 -292q70 -26 172 -26q193 0 267 87t73 231v905q1 29 21 49t49 20t49 -20t20 -49v-905z" />
    <glyph glyph-name="Uacute" unicode="&#xda;" horiz-adv-x="1277" 
d="M610 1487q-30 -31 -62 -4t-5 61l182 221q33 41 77 0t7 -77zM1124 420q0 -449 -480 -449t-480 449v905q0 29 20 49t49 20t49 -20t21 -49v-905q0 -228 170 -292q70 -26 172 -26q193 0 267 87t73 231v905q1 29 21 49t49 20t49 -20t20 -49v-905z" />
    <glyph glyph-name="Ucircumflex" unicode="&#xdb;" horiz-adv-x="1277" 
d="M446 1473q-20 0 -34 14t-14 36t18 38l196 161q33 25 66 0l196 -161q18 -15 18 -37t-13 -36q-14 -14 -35 -15q-21 0 -33 12l-166 139l-166 -139q-13 -12 -33 -12zM1124 420q0 -449 -480 -449t-480 449v905q0 29 20 49t49 20t49 -20t21 -49v-905q0 -228 170 -292
q70 -26 172 -26q193 0 267 87t73 231v905q1 29 21 49t49 20t49 -20t20 -49v-905z" />
    <glyph glyph-name="Udieresis" unicode="&#xdc;" horiz-adv-x="1277" 
d="M807 1518q-74 0 -74 76t74 77q74 -1 74 -77t-74 -76zM485 1518q-73 0 -73 76t74 77q74 -1 73 -77q0 -76 -74 -76zM1124 420q0 -449 -480 -449t-480 449v905q0 29 20 49t49 20t49 -20t21 -49v-905q0 -228 170 -292q70 -26 172 -26q193 0 267 87t73 231v905q1 29 21 49
t49 20t49 -20t20 -49v-905z" />
    <glyph glyph-name="Yacute" unicode="&#xdd;" 
d="M504 1487q-31 -31 -63 -4t-5 61l182 221q33 41 77 0t7 -77zM530 -16q-29 0 -49 20t-20 49v588l-412 647q-10 16 -10 41t20 45q21 20 55 20t54 -32l362 -582l363 582q20 33 54 33q34 -1 54 -21q39 -40 11 -86l-412 -647v-588q0 -29 -20 -49t-50 -20z" />
    <glyph glyph-name="Thorn" unicode="&#xde;" horiz-adv-x="1114" 
d="M303 989v-547h318q127 0 199 72t71 204q0 132 -73 202t-197 69h-318zM303 315v-262q0 -29 -20 -49q-19 -20 -49 -20t-50 20t-20 49v1272q0 29 20 49t49 20t49 -20t21 -49v-209h338q174 0 283 -101q108 -101 108 -297t-108 -299t-283 -104h-338z" />
    <glyph glyph-name="germandbls" unicode="&#xdf;" horiz-adv-x="1120" 
d="M479 1403q131 0 224 -77t94 -191q0 -80 -47 -146q-46 -65 -104 -101q-152 -94 -152 -179q0 -103 189 -163q79 -26 159 -57t135 -92t55 -151q0 -133 -97 -202t-233 -69t-229 45q-94 45 -139 103q-33 47 3 81q17 17 42 17t45 -20q100 -100 260 -101q96 0 157 35
q60 35 60 101t-55 105q-55 37 -135 63t-159 57t-134 93q-56 62 -56 138t31 125t76 82t90 65q107 76 107 171q0 59 -52 102t-135 43q-215 0 -215 -229v-1002q0 -29 -19 -47t-46 -18t-46 18t-20 47v1002q0 152 85 252t261 100z" />
    <glyph glyph-name="agrave" unicode="&#xe0;" horiz-adv-x="956" 
d="M614 1126q27 -34 -5 -61t-62 4l-199 201q-37 37 6 78q45 41 78 0zM436 92q115 0 198 70t83 192v86h-289q-104 0 -164 -44t-61 -130q0 -174 233 -174zM717 610q-1 104 -65 165t-193 61t-221 -105q-27 -29 -53 -29t-43 18t-17 38q0 22 10 39q102 162 340 161q177 0 273 -94
t96 -254v-563q0 -27 -18 -45t-46 -18q-27 0 -45 18t-18 45v74q-37 -70 -117 -109t-176 -39q-164 0 -259 77t-95 214t96 214t262 77h289v55z" />
    <glyph glyph-name="aacute" unicode="&#xe1;" horiz-adv-x="956" 
d="M424 1069q-31 -31 -63 -4t-5 61l183 222q33 41 77 0t7 -78zM436 92q115 0 198 70t83 192v86h-289q-104 0 -164 -44t-61 -130q0 -174 233 -174zM717 610q-1 104 -65 165t-193 61t-221 -105q-27 -29 -53 -29t-43 18t-17 38q0 22 10 39q102 162 340 161q177 0 273 -94
t96 -254v-563q0 -27 -18 -45t-46 -18q-27 0 -45 18t-18 45v74q-37 -70 -117 -109t-176 -39q-164 0 -259 77t-95 214t96 214t262 77h289v55z" />
    <glyph glyph-name="acircumflex" unicode="&#xe2;" horiz-adv-x="956" 
d="M279 1069q-20 0 -35 14q-14 14 -14 37t18 37l196 162q16 12 32 12t34 -12l197 -162q18 -15 18 -37t-14 -36t-35 -15q-21 0 -33 12l-166 140l-166 -140q-12 -12 -32 -12zM436 92q115 0 198 70t83 192v86h-289q-104 0 -164 -44t-61 -130q0 -174 233 -174zM717 610
q-1 104 -65 165t-193 61t-221 -105q-27 -29 -53 -29t-43 18t-17 38q0 22 10 39q102 162 340 161q177 0 273 -94t96 -254v-563q0 -27 -18 -45t-46 -18q-27 0 -45 18t-18 45v74q-37 -70 -117 -109t-176 -39q-164 0 -259 77t-95 214t96 214t262 77h289v55z" />
    <glyph glyph-name="atilde" unicode="&#xe3;" horiz-adv-x="956" 
d="M362 1264q51 0 127 -40t121 -40t88 57q16 23 38 23t38 -14q14 -14 14 -32q0 -16 -6 -28q-53 -106 -178 -107q-53 0 -127 40t-120 40t-89 -57q-16 -23 -38 -23t-43 20q-20 20 -3 54q53 107 178 107zM436 92q115 0 198 70t83 192v86h-289q-104 0 -164 -44t-61 -130
q0 -174 233 -174zM717 610q-1 104 -65 165t-193 61t-221 -105q-27 -29 -53 -29t-43 18t-17 38q0 22 10 39q102 162 340 161q177 0 273 -94t96 -254v-563q0 -27 -18 -45t-46 -18q-27 0 -45 18t-18 45v74q-37 -70 -117 -109t-176 -39q-164 0 -259 77t-95 214t96 214t262 77
h289v55z" />
    <glyph glyph-name="adieresis" unicode="&#xe4;" horiz-adv-x="956" 
d="M653 1094q-73 0 -73 76t74 77q74 -1 73 -77q0 -76 -74 -76zM332 1094q-74 0 -74 76t74 77q74 -1 74 -77t-74 -76zM436 92q115 0 198 70t83 192v86h-289q-104 0 -164 -44t-61 -130q0 -174 233 -174zM717 610q-1 104 -65 165t-193 61t-221 -105q-27 -29 -53 -29t-43 18
t-17 38q0 22 10 39q102 162 340 161q177 0 273 -94t96 -254v-563q0 -27 -18 -45t-46 -18q-27 0 -45 18t-18 45v74q-37 -70 -117 -109t-176 -39q-164 0 -259 77t-95 214t96 214t262 77h289v55z" />
    <glyph glyph-name="aring" unicode="&#xe5;" horiz-adv-x="956" 
d="M494 1106q127 0 127 123q-1 63 -29 93t-98 30t-99 -30t-29 -92t30 -93t98 -31zM494 1028q-213 0 -213 201t213 201t213 -201t-213 -201zM436 92q115 0 198 70t83 192v86h-289q-104 0 -164 -44t-61 -130q0 -174 233 -174zM717 610q-1 104 -65 165t-193 61t-221 -105
q-27 -29 -53 -29t-43 18t-17 38q0 22 10 39q102 162 340 161q177 0 273 -94t96 -254v-563q0 -27 -18 -45t-46 -18q-27 0 -45 18t-18 45v74q-37 -70 -117 -109t-176 -39q-164 0 -259 77t-95 214t96 214t262 77h289v55z" />
    <glyph glyph-name="ae" unicode="&#xe6;" horiz-adv-x="1593" 
d="M1395 547q0 293 -262 293q-131 0 -205 -77t-84 -216h551zM436 92q115 0 198 70t83 192v78h-289q-225 0 -225 -166q0 -174 233 -174zM717 610q-1 104 -65 165t-160 61t-148 -24q-51 -24 -92 -67t-67 -43t-43 18t-17 38q0 22 10 39q102 161 339 161t325 -163
q106 164 334 163q115 0 197 -40t122 -107q70 -118 71 -232t-34 -136q-18 -11 -47 -11h-598q0 -154 83 -246t219 -92t253 88q46 30 79 -5q17 -17 17 -42t-22 -47q-115 -115 -320 -115q-289 0 -367 203q-102 -203 -362 -203q-164 0 -259 77t-95 213t95 210t263 74h289v63z" />
    <glyph glyph-name="ccedilla" unicode="&#xe7;" horiz-adv-x="903" 
d="M72 467q0 248 109 370q110 122 313 121q118 0 198 -45q130 -74 131 -139q0 -23 -17 -39t-43 -16t-48 24q-84 96 -221 97q-289 0 -289 -374t289 -374q119 0 237 88q47 33 81 -3q17 -17 17 -43t-26 -50q-135 -111 -324 -111l-8 -94q37 4 55 4q179 0 179 -168
q0 -174 -199 -174q-78 0 -131 37q-17 12 -17 30t16 32q16 15 52 -1q35 -17 86 -17t77 18q26 20 25 75q0 94 -90 95l-84 -9q-39 0 -37 45l5 134q-336 49 -336 487z" />
    <glyph glyph-name="egrave" unicode="&#xe8;" horiz-adv-x="954" 
d="M627 1126q27 -34 -5 -61t-63 4l-199 201q-37 37 7 78q45 41 77 0zM756 543q0 297 -262 297q-131 0 -205 -79t-84 -218h551zM72 460q0 242 110 370t312 128q255 0 347 -199q44 -95 44 -197t-35 -123q-18 -11 -47 -11h-598q0 -154 83 -244t219 -90t253 88q46 30 79 -5
q17 -17 17 -42t-22 -47q-115 -115 -323 -115t-324 122q-115 122 -115 365z" />
    <glyph glyph-name="eacute" unicode="&#xe9;" horiz-adv-x="954" 
d="M453 1069q-31 -31 -63 -4t-5 61l182 222q33 41 77 0t7 -78zM756 543q0 297 -262 297q-131 0 -205 -79t-84 -218h551zM72 460q0 242 110 370t312 128q255 0 347 -199q44 -95 44 -197t-35 -123q-18 -11 -47 -11h-598q0 -154 83 -244t219 -90t253 88q46 30 79 -5
q17 -17 17 -42t-22 -47q-115 -115 -323 -115t-324 122q-115 122 -115 365z" />
    <glyph glyph-name="ecircumflex" unicode="&#xea;" horiz-adv-x="954" 
d="M304 1069q-20 0 -36 14q-14 14 -14 37t18 37l197 162q17 12 33 12t33 -12l196 -162q19 -15 19 -37t-14 -36t-36 -15q-20 0 -32 12l-166 140l-166 -140q-12 -12 -32 -12zM756 543q0 297 -262 297q-131 0 -205 -79t-84 -218h551zM72 460q0 242 110 370t312 128
q255 0 347 -199q44 -95 44 -197t-35 -123q-18 -11 -47 -11h-598q0 -154 83 -244t219 -90t253 88q46 30 79 -5q17 -17 17 -42t-22 -47q-115 -115 -323 -115t-324 122q-115 122 -115 365z" />
    <glyph glyph-name="edieresis" unicode="&#xeb;" horiz-adv-x="954" 
d="M662 1094q-74 0 -74 76t74 77q74 -1 74 -77t-74 -76zM340 1094q-74 0 -74 76t74 77q74 -1 74 -77t-74 -76zM756 543q0 297 -262 297q-131 0 -205 -79t-84 -218h551zM72 460q0 242 110 370t312 128q255 0 347 -199q44 -95 44 -197t-35 -123q-18 -11 -47 -11h-598
q0 -154 83 -244t219 -90t253 88q46 30 79 -5q17 -17 17 -42t-22 -47q-115 -115 -323 -115t-324 122q-115 122 -115 365z" />
    <glyph glyph-name="igrave" unicode="&#xec;" horiz-adv-x="395" 
d="M311 1126q27 -34 -5 -61t-62 4l-199 201q-37 37 6 78q45 41 78 0zM262 881v-832q0 -29 -18 -47t-47 -18t-47 18t-19 47v832q1 29 19 47t47 18t47 -18t18 -47z" />
    <glyph glyph-name="iacute" unicode="&#xed;" horiz-adv-x="395" 
d="M170 1069q-30 -31 -62 -4t-6 61l183 222q33 41 77 0t7 -78zM262 881v-832q0 -29 -18 -47t-47 -18t-47 18t-19 47v832q1 29 19 47t47 18t47 -18t18 -47z" />
    <glyph glyph-name="icircumflex" unicode="&#xee;" horiz-adv-x="395" 
d="M-2 1069q-20 0 -35 14q-14 14 -14 37t18 37l197 162q16 12 32 12t33 -12l197 -162q18 -15 18 -37t-14 -36t-35 -15q-21 0 -33 12l-165 140l-166 -140q-13 -12 -33 -12zM262 881v-832q0 -29 -18 -47t-47 -18t-47 18t-19 47v832q1 29 19 47t47 18t47 -18t18 -47z" />
    <glyph glyph-name="idieresis" unicode="&#xef;" horiz-adv-x="395" 
d="M358 1094q-74 0 -74 76t74 77q74 -1 74 -77t-74 -76zM37 1094q-74 0 -74 76t74 77q74 -1 74 -77t-74 -76zM262 881v-832q0 -29 -18 -47t-47 -18t-47 18t-19 47v832q1 29 19 47t47 18t47 -18t18 -47z" />
    <glyph glyph-name="eth" unicode="&#xf0;" horiz-adv-x="1007" 
d="M502 92q297 0 297 374t-297 374t-297 -374t297 -374zM502 958q141 0 237 -63q-39 150 -135 250l-115 -78l-34 -10q-27 0 -44 17t-17 48t26 47l100 66q-49 43 -162 111q-32 18 -32 48t17 47t37 17t38 -8q96 -47 207 -147l90 57q14 10 38 10t41 -17t17 -47t-27 -49l-75 -49
q223 -283 223 -741q0 -246 -113 -370t-317 -124t-317 124q-114 124 -113 370q0 246 112 369q113 122 318 122z" />
    <glyph glyph-name="ntilde" unicode="&#xf1;" horiz-adv-x="1026" 
d="M401 1264q53 0 127 -40t120 -40t89 57q17 23 39 23t36 -14t15 -32q0 -16 -6 -28q-53 -106 -178 -107q-53 0 -127 40t-120 40t-89 -57q-17 -23 -39 -23q-22 1 -36 15t-15 30q0 16 6 29q53 107 178 107zM537 958q377 0 376 -362v-547q0 -29 -18 -47t-47 -18t-47 18t-19 47
v520q0 133 -53 203t-192 70q-272 0 -273 -287v-506q0 -29 -19 -47t-46 -18t-46 18t-20 47v832q-1 29 19 47t47 18t46 -18t19 -47v-66q31 61 104 102t169 41z" />
    <glyph glyph-name="ograve" unicode="&#xf2;" horiz-adv-x="1003" 
d="M655 1126q27 -34 -5 -61t-62 4l-199 201q-37 37 6 78q45 41 78 0zM502 92q297 0 297 374t-297 374t-297 -374t297 -374zM502 958q206 0 318 -122t112 -369q0 -246 -113 -370t-317 -124t-317 124q-114 124 -113 370q0 246 112 369q113 122 318 122z" />
    <glyph glyph-name="oacute" unicode="&#xf3;" horiz-adv-x="1003" 
d="M471 1069q-30 -31 -62 -4t-6 61l183 222q33 41 77 0t7 -78zM502 92q297 0 297 374t-297 374t-297 -374t297 -374zM502 958q206 0 318 -122t112 -369q0 -246 -113 -370t-317 -124t-317 124q-114 124 -113 370q0 246 112 369q113 122 318 122z" />
    <glyph glyph-name="ocircumflex" unicode="&#xf4;" horiz-adv-x="1003" 
d="M312 1069q-20 0 -36 14q-14 14 -14 37t19 37l196 162q17 12 33 12t33 -12l196 -162q19 -15 19 -37t-14 -36t-36 -15q-20 0 -32 12l-166 140l-166 -140q-12 -12 -32 -12zM502 92q297 0 297 374t-297 374t-297 -374t297 -374zM502 958q206 0 318 -122t112 -369
q0 -246 -113 -370t-317 -124t-317 124q-114 124 -113 370q0 246 112 369q113 122 318 122z" />
    <glyph glyph-name="otilde" unicode="&#xf5;" horiz-adv-x="1003" 
d="M385 1264q53 0 127 -40t120 -40t89 57q17 23 39 23t36 -14t15 -32q0 -16 -6 -28q-53 -106 -178 -107q-53 0 -127 40t-120 40t-89 -57q-17 -23 -39 -23q-22 1 -36 15t-15 30q0 16 6 29q53 107 178 107zM502 92q297 0 297 374t-297 374t-297 -374t297 -374zM502 958
q206 0 318 -122t112 -369q0 -246 -113 -370t-317 -124t-317 124q-114 124 -113 370q0 246 112 369q113 122 318 122z" />
    <glyph glyph-name="odieresis" unicode="&#xf6;" horiz-adv-x="1003" 
d="M672 1094q-74 0 -74 76t74 77q74 -1 74 -77t-74 -76zM350 1094q-74 0 -74 76t74 77q74 -1 74 -77t-74 -76zM502 92q297 0 297 374t-297 374t-297 -374t297 -374zM502 958q206 0 318 -122t112 -369q0 -246 -113 -370t-317 -124t-317 124q-114 124 -113 370q0 246 112 369
q113 122 318 122z" />
    <glyph glyph-name="divide" unicode="&#xf7;" horiz-adv-x="929" 
d="M930 449q0 -23 -16 -39t-40 -17h-819q-23 1 -39 17t-16 39t16 39t39 16h819q24 0 40 -16t16 -39zM397 696q-1 29 19 49q20 21 49 21t49 -20t20 -50q0 -29 -20 -48t-49 -19t-49 19t-19 48zM397 199q-1 29 19 48t49 19t49 -19t20 -48t-20 -49t-49 -20t-49 20t-19 49z" />
    <glyph glyph-name="oslash" unicode="&#xf8;" horiz-adv-x="1003" 
d="M205 467q0 -121 31 -201l469 500q-78 74 -203 74q-297 0 -297 -373zM502 92q297 0 297 375q0 125 -35 207l-471 -504q72 -78 209 -78zM490 958q194 0 303 -98l75 82q16 16 39 16t38 -16t15 -38t-16 -38l-84 -88q72 -119 72 -311q0 -246 -113 -370t-309 -124t-305 103
l-74 -78q-13 -14 -35 -14t-39 16q-16 16 -16 38t16 38l80 86q-66 119 -65 305q0 246 112 369q112 122 306 122z" />
    <glyph glyph-name="ugrave" unicode="&#xf9;" horiz-adv-x="987" 
d="M604 1126q27 -34 -5 -61t-62 4l-199 201q-37 37 6 78q45 41 78 0zM178 946q27 0 46 -19t20 -46v-535q0 -116 53 -182t197 -66t196 67q53 67 53 181v535q-1 27 19 46t48 19t46 -19t18 -46v-535q0 -170 -82 -271t-298 -101q-217 0 -299 100q-82 102 -82 272v535q0 29 19 47
t46 18z" />
    <glyph glyph-name="uacute" unicode="&#xfa;" horiz-adv-x="987" 
d="M475 1069q-30 -31 -62 -4t-5 61l182 222q33 41 77 0t7 -78zM178 946q27 0 46 -19t20 -46v-535q0 -116 53 -182t197 -66t196 67q53 67 53 181v535q-1 27 19 46t48 19t46 -19t18 -46v-535q0 -170 -82 -271t-298 -101q-217 0 -299 100q-82 102 -82 272v535q0 29 19 47t46 18
z" />
    <glyph glyph-name="ucircumflex" unicode="&#xfb;" horiz-adv-x="987" 
d="M304 1069q-20 0 -36 14q-14 14 -14 37t18 37l197 162q17 12 33 12t33 -12l196 -162q19 -15 19 -37t-14 -36t-36 -15q-20 0 -32 12l-166 140l-166 -140q-12 -12 -32 -12zM178 946q27 0 46 -19t20 -46v-535q0 -116 53 -182t197 -66t196 67q53 67 53 181v535q-1 27 19 46
t48 19t46 -19t18 -46v-535q0 -170 -82 -271t-298 -101q-217 0 -299 100q-82 102 -82 272v535q0 29 19 47t46 18z" />
    <glyph glyph-name="udieresis" unicode="&#xfc;" horiz-adv-x="987" 
d="M668 1094q-74 0 -74 76t74 77q74 -1 74 -77t-74 -76zM346 1094q-74 0 -74 76t74 77q74 -1 74 -77t-74 -76zM178 946q27 0 46 -19t20 -46v-535q0 -116 53 -182t197 -66t196 67q53 67 53 181v535q-1 27 19 46t48 19t46 -19t18 -46v-535q0 -170 -82 -271t-298 -101
q-217 0 -299 100q-82 102 -82 272v535q0 29 19 47t46 18z" />
    <glyph glyph-name="yacute" unicode="&#xfd;" horiz-adv-x="897" 
d="M426 1069q-30 -31 -62 -4t-6 61l183 222q33 41 77 0t7 -78zM10 -350q0 61 78 61t134 44t111 168q15 34 48 116l-342 813q-6 18 -6 38t18 38t55 18t54 -43l289 -706l288 706q15 43 53 43q74 0 74 -65q0 -10 -6 -29l-403 -961q-66 -155 -154 -229t-229 -74q-27 0 -44 18
t-18 44z" />
    <glyph glyph-name="thorn" unicode="&#xfe;" horiz-adv-x="1042" 
d="M260 467q0 -187 78 -281t205 -94q295 0 295 374t-299 374q-123 0 -201 -92t-78 -281zM264 1393v-578q33 57 108 100t171 43q205 0 317 -122t111 -369q0 -246 -112 -370t-316 -124q-96 0 -169 42t-110 102v-463q0 -27 -19 -46q-19 -20 -46 -20t-46 20t-20 46v1739
q-1 29 19 47t47 18t46 -18t19 -47z" />
    <glyph glyph-name="ydieresis" unicode="&#xff;" horiz-adv-x="897" 
d="M608 1094q-74 0 -74 76t74 77q74 -1 74 -77t-74 -76zM287 1094q-74 0 -74 76t74 77q74 -1 74 -77t-74 -76zM10 -350q0 61 78 61t134 44t111 168q15 34 48 116l-342 813q-6 18 -6 38t18 38t55 18t54 -43l289 -706l288 706q15 43 53 43q74 0 74 -65q0 -10 -6 -29l-403 -961
q-66 -155 -154 -229t-229 -74q-27 0 -44 18t-18 44z" />
    <glyph glyph-name="Amacron" unicode="&#x100;" horiz-adv-x="1255" 
d="M868 1552q0 -20 -14 -35t-37 -16h-381q-23 -1 -37 15t-14 36t14 36t37 16h381q23 0 37 -16t14 -36zM125 -16q-29 0 -49 20q-36 36 -15 80l500 1264q21 47 67 47t66 -47l500 -1264q6 -16 6 -38t-20 -42t-60 -20t-59 47l-148 377h-571l-149 -375q-18 -49 -68 -49zM870 535
l-243 626l-242 -626h485z" />
    <glyph glyph-name="amacron" unicode="&#x101;" horiz-adv-x="956" 
d="M729 1151q0 -19 -14 -35t-37 -16h-381q-23 0 -37 15t-14 35t14 36t37 16h381q23 0 37 -16t14 -35zM436 92q115 0 198 70t83 192v86h-289q-104 0 -164 -44t-61 -130q0 -174 233 -174zM717 610q-1 104 -65 165t-193 61t-221 -105q-27 -29 -53 -29t-43 18t-17 38q0 22 10 39
q102 162 340 161q177 0 273 -94t96 -254v-563q0 -27 -18 -45t-46 -18q-27 0 -45 18t-18 45v74q-37 -70 -117 -109t-176 -39q-164 0 -259 77t-95 214t96 214t262 77h289v55z" />
    <glyph glyph-name="Abreve" unicode="&#x102;" horiz-adv-x="1255" 
d="M627 1495q-100 0 -166 51t-66 156q1 20 15 34t34 15q20 0 34 -14t16 -35q0 -113 133 -113t133 113q0 20 14 34t34 15q20 0 36 -14q14 -14 14 -35q0 -104 -65 -156q-66 -51 -166 -51zM125 -16q-29 0 -49 20q-36 36 -15 80l500 1264q21 47 67 47t66 -47l500 -1264
q6 -16 6 -38t-20 -42t-60 -20t-59 47l-148 377h-571l-149 -375q-18 -49 -68 -49zM870 535l-243 626l-242 -626h485z" />
    <glyph glyph-name="abreve" unicode="&#x103;" horiz-adv-x="956" 
d="M481 1083q-100 -1 -166 51t-65 156q0 20 14 34t34 15q20 0 36 -14q14 -14 14 -35q0 -112 133 -112t133 112q0 20 14 34t36 15q20 0 34 -14t15 -35q0 -104 -66 -156t-166 -51zM436 92q115 0 198 70t83 192v86h-289q-104 0 -164 -44t-61 -130q0 -174 233 -174zM717 610
q-1 104 -65 165t-193 61t-221 -105q-27 -29 -53 -29t-43 18t-17 38q0 22 10 39q102 162 340 161q177 0 273 -94t96 -254v-563q0 -27 -18 -45t-46 -18q-27 0 -45 18t-18 45v74q-37 -70 -117 -109t-176 -39q-164 0 -259 77t-95 214t96 214t262 77h289v55z" />
    <glyph glyph-name="Aogonek" unicode="&#x104;" horiz-adv-x="1255" 
d="M1200 42q0 -26 -25 -42h3q-2 -2 -9 -6t-20 -8q-39 -21 -75 -61t-36 -95t31 -83t83 -28q52 1 81 13t43 12t28 -13t13 -35q0 -22 -23 -36q-59 -35 -152 -35t-150 45q-56 45 -56 129q0 127 141 201h4q-13 11 -20 31l-148 377h-571l-149 -375q-18 -49 -68 -49q-29 0 -49 20
q-36 36 -15 80l500 1264q21 47 67 47t66 -47l500 -1264q6 -16 6 -42zM870 535l-243 626l-242 -626h485z" />
    <glyph glyph-name="aogonek" unicode="&#x105;" horiz-adv-x="956" 
d="M436 92q115 0 198 70t83 192v86h-289q-104 0 -164 -44t-61 -130q0 -174 233 -174zM804 -281q52 1 81 13t43 12t27 -13t13 -35t-22 -36q-59 -35 -152 -35t-150 45q-56 45 -56 129q0 129 145 203q-16 20 -16 45v74q-37 -70 -117 -109t-176 -39q-164 0 -259 77t-95 214
t96 214t262 77h289v55q0 104 -65 164q-66 60 -194 62q-128 0 -220 -105q-27 -29 -53 -29t-43 18t-17 38q0 22 10 39q102 162 340 161q177 0 273 -94t96 -254v-563q0 -37 -39 -59q-115 -68 -115 -160q0 -53 31 -81t83 -28z" />
    <glyph glyph-name="Cacute" unicode="&#x106;" horiz-adv-x="1292" 
d="M674 1487q-31 -31 -63 -4t-5 61l182 221q33 41 77 0t7 -77zM729 -29q-639 0 -639 717q0 356 167 538t472 181q145 0 266 -58t195 -159q14 -20 14 -46t-18 -44t-49 -18t-52 26q-55 76 -150 124t-206 48q-240 0 -368 -147t-128 -451t125 -443q125 -140 371 -141
q107 0 203 43t153 125q19 27 51 27q32 1 50 -19t18 -44t-12 -42q-68 -98 -195 -158t-268 -59z" />
    <glyph glyph-name="cacute" unicode="&#x107;" horiz-adv-x="903" 
d="M440 1069q-30 -31 -62 -4t-5 61l182 222q33 41 77 0t7 -78zM72 467q0 248 109 370q110 122 313 121q118 0 198 -45q130 -74 131 -139q0 -23 -17 -39t-43 -16t-48 24q-84 96 -221 97q-289 0 -289 -374t289 -374q119 0 237 88q47 33 81 -3q17 -17 17 -43t-26 -50
q-135 -111 -323 -111t-299 123q-109 123 -109 371z" />
    <glyph glyph-name="Ccircumflex" unicode="&#x108;" horiz-adv-x="1292" 
d="M532 1473q-20 0 -34 14t-14 36t18 38l196 161q33 25 66 0l197 -161q18 -15 18 -37t-14 -36t-35 -15q-21 0 -33 12l-166 139l-166 -139q-13 -12 -33 -12zM729 -29q-639 0 -639 717q0 356 167 538t472 181q145 0 266 -58t195 -159q14 -20 14 -46t-18 -44t-49 -18t-52 26
q-55 76 -150 124t-206 48q-240 0 -368 -147t-128 -451t125 -443q125 -140 371 -141q107 0 203 43t153 125q19 27 51 27q32 1 50 -19t18 -44t-12 -42q-68 -98 -195 -158t-268 -59z" />
    <glyph glyph-name="ccircumflex" unicode="&#x109;" horiz-adv-x="903" 
d="M294 1069q-20 0 -36 14q-14 14 -14 37t18 37l197 162q17 12 33 12t32 -12l197 -162q18 -15 18 -37t-14 -36t-35 -15q-21 0 -33 12l-165 140l-166 -140q-12 -12 -32 -12zM72 467q0 248 109 370q110 122 313 121q118 0 198 -45q130 -74 131 -139q0 -23 -17 -39t-43 -16
t-48 24q-84 96 -221 97q-289 0 -289 -374t289 -374q119 0 237 88q47 33 81 -3q17 -17 17 -43t-26 -50q-135 -111 -323 -111t-299 123q-109 123 -109 371z" />
    <glyph glyph-name="Cdotaccent" unicode="&#x10a;" horiz-adv-x="1292" 
d="M723 1507q-78 0 -78 81t78 81t78 -81t-78 -81zM729 -29q-639 0 -639 717q0 356 167 538t472 181q145 0 266 -58t195 -159q14 -20 14 -46t-18 -44t-49 -18t-52 26q-55 76 -150 124t-206 48q-240 0 -368 -147t-128 -451t125 -443q125 -140 371 -141q107 0 203 43t153 125
q19 27 51 27q32 1 50 -19t18 -44t-12 -42q-68 -98 -195 -158t-268 -59z" />
    <glyph glyph-name="cdotaccent" unicode="&#x10b;" horiz-adv-x="903" 
d="M500 1114q-78 0 -78 81t78 81t78 -81t-78 -81zM72 467q0 248 109 370q110 122 313 121q118 0 198 -45q130 -74 131 -139q0 -23 -17 -39t-43 -16t-48 24q-84 96 -221 97q-289 0 -289 -374t289 -374q119 0 237 88q47 33 81 -3q17 -17 17 -43t-26 -50q-135 -111 -323 -111
t-299 123q-109 123 -109 371z" />
    <glyph glyph-name="Ccaron" unicode="&#x10c;" horiz-adv-x="1292" 
d="M722 1473q-16 0 -34 12l-196 162q-18 15 -18 37t13 36q15 14 35 14t33 -12l166 -139l166 139q13 12 33 12t34 -14t14 -36t-18 -37l-196 -162q-16 -12 -32 -12zM729 -29q-639 0 -639 717q0 356 167 538t472 181q145 0 266 -58t195 -159q14 -20 14 -46t-18 -44t-49 -18
t-52 26q-55 76 -150 124t-206 48q-240 0 -368 -147t-128 -451t125 -443q125 -140 371 -141q107 0 203 43t153 125q19 27 51 27q32 1 50 -19t18 -44t-12 -42q-68 -98 -195 -158t-268 -59z" />
    <glyph glyph-name="ccaron" unicode="&#x10d;" horiz-adv-x="903" 
d="M706 1284q20 0 35 -14t15 -36t-19 -38l-196 -162q-17 -12 -33 -12t-33 12l-196 162q-19 16 -19 38t14 36t34 14t34 -12l166 -139l166 139q12 12 32 12zM72 467q0 248 109 370q110 122 313 121q118 0 198 -45q130 -74 131 -139q0 -23 -17 -39t-43 -16t-48 24
q-84 96 -221 97q-289 0 -289 -374t289 -374q119 0 237 88q47 33 81 -3q17 -17 17 -43t-26 -50q-135 -111 -323 -111t-299 123q-109 123 -109 371z" />
    <glyph glyph-name="Dcaron" unicode="&#x10e;" horiz-adv-x="1245" 
d="M817 1684q0 -22 -18 -37l-197 -162q-16 -12 -32 -12t-33 12l-197 162q-18 15 -18 37t14 36t34 14t33 -12l166 -139l166 139q13 12 33 12t34 -14t15 -36zM233 1378h289q307 0 470 -163t163 -527t-163 -526t-470 -162h-289q-29 0 -49 20t-20 50v1239q0 29 20 49t49 20z
M303 1251v-1124h219q242 0 367 128t125 432t-125 434t-367 130h-219z" />
    <glyph glyph-name="dcaron" unicode="&#x10f;" horiz-adv-x="1097" 
d="M1159 1325q0 -213 -147 -367q-12 -12 -27 -12q-31 0 -31 31q0 10 7 18q76 104 75 187q0 39 -37 86t-36 90q0 98 98 98t98 -131zM483 958q92 0 166 -38t113 -95v568q0 29 18 47t47 18t47 -18t19 -47v-1016q0 -197 -110 -300t-302 -103t-301 122q-109 123 -108 371
q-1 491 411 491zM762 377v282l-10 20q-54 100 -159 141q-48 19 -101 20q-289 0 -289 -374t289 -374q122 0 196 72t74 213z" />
    <glyph glyph-name="Dcroat" unicode="&#x110;" horiz-adv-x="1247" 
d="M764 713q0 -27 -20 -45t-46 -19h-395v-518h219q244 0 370 126t126 430t-127 432t-369 128h-219v-471h395q26 0 46 -18t20 -45zM233 1378h289q309 0 472 -163t163 -527t-163 -526t-472 -162h-289q-29 0 -49 20t-20 50v579h-64q-27 1 -45 19t-18 45t18 45t45 18h64v533
q0 29 20 49t49 20z" />
    <glyph glyph-name="dcroat" unicode="&#x111;" horiz-adv-x="1026" 
d="M762 377v282l-10 20q-54 100 -159 141q-48 19 -101 20q-289 0 -289 -374t289 -374q122 0 196 72t74 213zM999 1143q0 -23 -16 -39t-39 -17h-51v-710q0 -197 -110 -300t-302 -103t-301 122q-109 123 -108 371q0 492 411 491q92 0 166 -38t113 -95v262h-195q-23 1 -39 17
t-16 39t16 39t39 16h195v195q0 29 18 47t47 18t47 -18t19 -47v-195h51q23 0 39 -16t16 -39z" />
    <glyph glyph-name="Emacron" unicode="&#x112;" 
d="M815 1552q0 -20 -14 -35t-37 -16h-381q-23 -1 -37 15t-14 36t14 36t37 16h381q23 0 37 -16t14 -36zM913 0h-680q-29 0 -49 20t-20 50v1239q0 29 20 49t49 20h658q27 0 45 -18t18 -45t-18 -45t-45 -19h-588v-493h451q27 0 45 -18t18 -46q0 -27 -18 -45t-45 -18h-451v-504
h610q27 0 45 -18q18 -17 18 -45t-18 -46t-45 -18z" />
    <glyph glyph-name="emacron" unicode="&#x113;" horiz-adv-x="954" 
d="M737 1151q0 -19 -14 -35t-37 -16h-381q-23 0 -37 15t-14 35t14 36t37 16h381q23 0 37 -16t14 -35zM756 543q0 297 -262 297q-131 0 -205 -79t-84 -218h551zM72 460q0 242 110 370t312 128q255 0 347 -199q44 -95 44 -197t-35 -123q-18 -11 -47 -11h-598q0 -154 83 -244
t219 -90t253 88q46 30 79 -5q17 -17 17 -42t-22 -47q-115 -115 -323 -115t-324 122q-115 122 -115 365z" />
    <glyph glyph-name="Ebreve" unicode="&#x114;" 
d="M571 1495q-99 0 -165 51t-66 156q0 20 14 34t34 15q20 0 36 -14q14 -14 14 -35q0 -113 133 -113t134 113q0 20 14 34q15 14 35 15q20 0 34 -14t15 -35q0 -104 -66 -156t-166 -51zM913 0h-680q-29 0 -49 20t-20 50v1239q0 29 20 49t49 20h658q27 0 45 -18t18 -45t-18 -45
t-45 -19h-588v-493h451q27 0 45 -18t18 -46q0 -27 -18 -45t-45 -18h-451v-504h610q27 0 45 -18q18 -17 18 -45t-18 -46t-45 -18z" />
    <glyph glyph-name="ebreve" unicode="&#x115;" horiz-adv-x="954" 
d="M496 1083q-100 -1 -166 51t-66 156q0 20 14 34t35 15q21 0 35 -14t14 -35q0 -112 134 -112t133 112q0 20 14 34q15 14 35 15q20 0 34 -14t15 -35q1 -104 -65 -156t-166 -51zM756 543q0 297 -262 297q-131 0 -205 -79t-84 -218h551zM72 460q0 242 110 370t312 128
q255 0 347 -199q44 -95 44 -197t-35 -123q-18 -11 -47 -11h-598q0 -154 83 -244t219 -90t253 88q46 30 79 -5q17 -17 17 -42t-22 -47q-115 -115 -323 -115t-324 122q-115 122 -115 365z" />
    <glyph glyph-name="Edotaccent" unicode="&#x116;" 
d="M578 1507q-78 0 -78 81t78 81t78 -81t-78 -81zM913 0h-680q-29 0 -49 20t-20 50v1239q0 29 20 49t49 20h658q27 0 45 -18t18 -45t-18 -45t-45 -19h-588v-493h451q27 0 45 -18t18 -46q0 -27 -18 -45t-45 -18h-451v-504h610q27 0 45 -18q18 -17 18 -45t-18 -46t-45 -18z
" />
    <glyph glyph-name="edotaccent" unicode="&#x117;" horiz-adv-x="954" 
d="M500 1114q-78 0 -78 81t78 81t78 -81t-78 -81zM756 543q0 297 -262 297q-131 0 -205 -79t-84 -218h551zM72 460q0 242 110 370t312 128q255 0 347 -199q44 -95 44 -197t-35 -123q-18 -11 -47 -11h-598q0 -154 83 -244t219 -90t253 88q46 30 79 -5q17 -17 17 -42t-22 -47
q-115 -115 -323 -115t-324 122q-115 122 -115 365z" />
    <glyph glyph-name="Eogonek" unicode="&#x118;" 
d="M896 -281q52 1 82 13t43 12t27 -13t13 -35q0 -22 -23 -36q-59 -35 -152 -35t-150 45q-56 45 -56 129q0 131 145 201h-592q-29 0 -49 20t-20 50v1239q0 29 20 49t49 20h658q27 0 45 -18t18 -45t-18 -45t-45 -19h-588v-493h451q27 0 45 -18t18 -46q0 -27 -18 -45t-45 -18
h-451v-504h610q27 0 45 -18q18 -19 18 -53t-52 -58q-141 -66 -142 -170q0 -53 31 -81t83 -28z" />
    <glyph glyph-name="eogonek" unicode="&#x119;" horiz-adv-x="954" 
d="M756 543q0 297 -262 297q-131 0 -205 -79t-84 -218h551zM543 -164q0 -118 113 -117q52 1 81 13t43 12t28 -13t13 -35q0 -22 -22 -36q-59 -35 -153 -35t-149 45q-57 45 -57 139t99 164h-25q-211 0 -327 122q-115 122 -115 365q0 242 110 370t312 128q255 0 347 -199
q44 -95 44 -197t-35 -123q-18 -11 -47 -11h-598q0 -154 83 -244t219 -90t253 88q46 30 79 -5q17 -17 17 -42t-26 -51t-104 -62q-79 -36 -131 -80t-52 -106z" />
    <glyph glyph-name="Ecaron" unicode="&#x11a;" 
d="M592 1473q-16 0 -33 12l-197 162q-18 15 -18 37t14 36t34 14t34 -12l166 -139l166 139q12 12 32 12t35 -14t15 -36t-19 -37l-196 -162q-17 -12 -33 -12zM913 0h-680q-29 0 -49 20t-20 50v1239q0 29 20 49t49 20h658q27 0 45 -18t18 -45t-18 -45t-45 -19h-588v-493h451
q27 0 45 -18t18 -46q0 -27 -18 -45t-45 -18h-451v-504h610q27 0 45 -18q18 -17 18 -45t-18 -46t-45 -18z" />
    <glyph glyph-name="ecaron" unicode="&#x11b;" horiz-adv-x="954" 
d="M694 1284q20 0 34 -14t15 -36q0 -22 -18 -38l-197 -162q-16 -12 -32 -12t-33 12l-197 162q-18 16 -18 38t14 36t34 14t34 -12l166 -139l166 139q12 12 32 12zM756 543q0 297 -262 297q-131 0 -205 -79t-84 -218h551zM72 460q0 242 110 370t312 128q255 0 347 -199
q44 -95 44 -197t-35 -123q-18 -11 -47 -11h-598q0 -154 83 -244t219 -90t253 88q46 30 79 -5q17 -17 17 -42t-22 -47q-115 -115 -323 -115t-324 122q-115 122 -115 365z" />
    <glyph glyph-name="Gcircumflex" unicode="&#x11c;" horiz-adv-x="1357" 
d="M532 1473q-20 0 -34 14t-14 36t18 38l196 161q33 25 66 0l197 -161q18 -15 18 -37t-14 -36t-35 -15q-21 0 -33 12l-166 139l-166 -139q-13 -12 -33 -12zM233 682q0 -304 125 -444t373 -140t379 164v297h-342q-27 1 -45 19t-18 45t18 45t45 18h414q25 0 44 -18t19 -45
v-359q0 -35 -26 -67q-193 -225 -490 -226q-639 0 -639 717q0 356 167 538t472 181q145 0 266 -58t195 -159q14 -20 14 -46t-18 -44t-49 -18t-52 26q-55 76 -149 124t-207 48q-240 0 -368 -147t-128 -451z" />
    <glyph glyph-name="gcircumflex" unicode="&#x11d;" horiz-adv-x="978" 
d="M272 1069q-20 0 -34 14t-14 37t18 37l196 162q16 12 32 12t34 -12l196 -162q18 -15 18 -37t-13 -36q-14 -14 -35 -15q-21 0 -33 12l-166 140l-166 -140q-13 -12 -33 -12zM799 -117q0 156 -226 156h-213q-172 -29 -172 -164q0 -88 86 -130t220 -42t219 43q86 43 86 137z
M469 389q117 -1 180 61t64 164t-63 164t-181 62t-180 -62t-63 -164t62 -164q64 -62 181 -61zM469 958q129 0 219 -51q29 53 70 82t89 29t65 -18q18 -18 18 -42q0 -25 -18 -42t-42 -17q-70 0 -98 -63q74 -90 74 -235t-100 -237t-254 -94q-154 0 -244 52q-37 -31 -37 -74
q0 -86 151 -86h211q158 0 258 -71q101 -71 101 -215t-121 -216t-319 -72q-117 0 -209 24t-160 90t-68 173q0 143 156 207q-57 18 -92 62t-35 104q0 88 82 143q-74 93 -74 237t100 237t277 93z" />
    <glyph glyph-name="Gbreve" unicode="&#x11e;" horiz-adv-x="1357" 
d="M713 1495q-100 0 -166 51t-66 156q1 20 15 34t34 15q20 0 34 -14t16 -35q0 -113 133 -113t133 113q0 20 14 34t34 15q20 0 36 -14q14 -14 14 -35q0 -104 -65 -156q-66 -51 -166 -51zM233 682q0 -304 125 -444t373 -140t379 164v297h-342q-27 1 -45 19t-18 45t18 45t45 18
h414q25 0 44 -18t19 -45v-359q0 -35 -26 -67q-193 -225 -490 -226q-639 0 -639 717q0 356 167 538t472 181q145 0 266 -58t195 -159q14 -20 14 -46t-18 -44t-49 -18t-52 26q-55 76 -149 124t-207 48q-240 0 -368 -147t-128 -451z" />
    <glyph glyph-name="gbreve" unicode="&#x11f;" horiz-adv-x="978" 
d="M471 1083q-100 -1 -166 51t-65 156q0 20 14 34t34 15q20 0 36 -14q14 -14 14 -35q0 -112 133 -112t133 112q0 20 14 34t34 15q20 0 36 -14q14 -14 14 -35q0 -104 -66 -156t-165 -51zM799 -117q0 156 -226 156h-213q-172 -29 -172 -164q0 -88 86 -130t220 -42t219 43
q86 43 86 137zM469 389q117 -1 180 61t64 164t-63 164t-181 62t-180 -62t-63 -164t62 -164q64 -62 181 -61zM469 958q129 0 219 -51q29 53 70 82t89 29t65 -18q18 -18 18 -42q0 -25 -18 -42t-42 -17q-70 0 -98 -63q74 -90 74 -235t-100 -237t-254 -94q-154 0 -244 52
q-37 -31 -37 -74q0 -86 151 -86h211q158 0 258 -71q101 -71 101 -215t-121 -216t-319 -72q-117 0 -209 24t-160 90t-68 173q0 143 156 207q-57 18 -92 62t-35 104q0 88 82 143q-74 93 -74 237t100 237t277 93z" />
    <glyph glyph-name="Gdotaccent" unicode="&#x120;" horiz-adv-x="1357" 
d="M713 1507q-78 0 -78 81t78 81t78 -81t-78 -81zM233 682q0 -304 125 -444t373 -140t379 164v297h-342q-27 1 -45 19t-18 45t18 45t45 18h414q25 0 44 -18t19 -45v-359q0 -35 -26 -67q-193 -225 -490 -226q-639 0 -639 717q0 356 167 538t472 181q145 0 266 -58t195 -159
q14 -20 14 -46t-18 -44t-49 -18t-52 26q-55 76 -149 124t-207 48q-240 0 -368 -147t-128 -451z" />
    <glyph glyph-name="gdotaccent" unicode="&#x121;" horiz-adv-x="978" 
d="M475 1114q-78 0 -78 81t78 81t78 -81t-78 -81zM799 -117q0 156 -226 156h-213q-172 -29 -172 -164q0 -88 86 -130t220 -42t219 43q86 43 86 137zM469 389q117 -1 180 61t64 164t-63 164t-181 62t-180 -62t-63 -164t62 -164q64 -62 181 -61zM469 958q129 0 219 -51
q29 53 70 82t89 29t65 -18q18 -18 18 -42q0 -25 -18 -42t-42 -17q-70 0 -98 -63q74 -90 74 -235t-100 -237t-254 -94q-154 0 -244 52q-37 -31 -37 -74q0 -86 151 -86h211q158 0 258 -71q101 -71 101 -215t-121 -216t-319 -72q-117 0 -209 24t-160 90t-68 173q0 143 156 207
q-57 18 -92 62t-35 104q0 88 82 143q-74 93 -74 237t100 237t277 93z" />
    <glyph glyph-name="Gcommaaccent" unicode="&#x122;" horiz-adv-x="1357" 
d="M684 -516q-27 0 -27 27q0 10 9 18q59 59 59 133q0 35 -37 80t-37 84q0 88 88 88t88 -108q1 -108 -27 -178q-28 -69 -93 -134q-10 -10 -23 -10zM233 682q0 -304 125 -444t373 -140t379 164v297h-342q-27 1 -45 19t-18 45t18 45t45 18h414q25 0 44 -18t19 -45v-359
q0 -35 -26 -67q-193 -225 -490 -226q-639 0 -639 717q0 356 167 538t472 181q145 0 266 -58t195 -159q14 -20 14 -46t-18 -44t-49 -18t-52 26q-55 76 -149 124t-207 48q-240 0 -368 -147t-128 -451z" />
    <glyph glyph-name="gcommaaccent" unicode="&#x123;" horiz-adv-x="978" 
d="M799 -117q0 156 -226 156h-213q-172 -29 -172 -164q0 -88 86 -130t220 -42t219 43q86 43 86 137zM469 389q117 -1 180 61t64 164t-63 164t-181 62t-180 -62t-63 -164t62 -164q64 -62 181 -61zM469 958q129 0 219 -51q29 53 70 82t89 29t65 -18q18 -18 18 -42
q0 -25 -18 -42t-42 -17q-70 0 -98 -63q74 -90 74 -235t-100 -237t-254 -94q-154 0 -244 52q-37 -31 -37 -74q0 -86 151 -86h211q158 0 258 -71q101 -71 101 -215t-121 -216t-319 -72q-117 0 -209 24t-160 90t-68 173q0 143 156 207q-57 18 -92 62t-35 104q0 88 82 143
q-74 93 -74 237t100 237t277 93zM391 1159q0 197 131 334q12 12 27 12q31 0 31 -30q0 -8 -7 -19q-59 -82 -59 -132t37 -102t37 -96q0 -98 -96 -98q-101 0 -101 131z" />
    <glyph glyph-name="Hcircumflex" unicode="&#x124;" horiz-adv-x="1318" 
d="M466 1473q-20 0 -36 14q-14 14 -14 36t18 38l197 161q34 25 65 0l197 -161q18 -15 18 -37t-14 -36t-35 -15q-21 0 -33 12l-165 139l-166 -139q-12 -12 -32 -12zM1016 643h-713v-590q0 -29 -20 -49q-19 -20 -49 -20t-50 20t-20 49v1272q0 29 20 49t49 20t49 -20t21 -49
v-555h713v555q0 29 20 49t49 20t49 -20t21 -49v-1272q0 -29 -20 -49q-19 -20 -49 -20t-50 20t-20 49v590z" />
    <glyph glyph-name="hcircumflex" unicode="&#x125;" horiz-adv-x="1026" 
d="M0 1473q-20 0 -35 14q-14 14 -14 36t18 38l197 161q34 25 65 0l197 -161q18 -15 18 -37t-14 -36t-34 -15q-20 0 -33 12l-166 139l-166 -139q-13 -12 -33 -12zM537 958q377 0 376 -362v-547q0 -29 -18 -47t-47 -18t-47 18t-19 47v520q0 133 -53 203t-192 70
q-272 0 -273 -287v-506q0 -29 -19 -47t-46 -18t-46 18t-20 47v1344q-1 29 19 47t47 18t46 -18t19 -47v-578q31 61 104 102t169 41z" />
    <glyph glyph-name="Hbar" unicode="&#x126;" horiz-adv-x="1318" 
d="M303 770h713v178h-713v-178zM1016 643h-713v-590q0 -29 -20 -49q-19 -20 -49 -20t-50 20t-20 49v895h-62q-20 0 -35 16t-16 35t15 35t36 17h62v274q0 29 20 49t49 20t49 -20t21 -49v-274h713v274q0 29 20 49t49 20t49 -20t21 -49v-274h62q20 1 35 -15q16 -16 16 -36
t-16 -36q-16 -15 -35 -16h-62v-895q0 -29 -20 -49q-19 -20 -49 -20t-50 20t-20 49v590z" />
    <glyph glyph-name="hbar" unicode="&#x127;" horiz-adv-x="1026" 
d="M537 958q377 0 376 -362v-547q0 -29 -18 -47t-47 -18t-47 18t-19 47v520q0 133 -53 203t-192 70q-272 0 -273 -287v-506q0 -29 -19 -47t-46 -18t-46 18t-20 47v1100h-59q-20 0 -36 15q-15 16 -15 36t15 36t36 15h59v142q-1 29 19 47t47 18t46 -18t19 -47v-142h228
q20 0 35 -15q15 -16 15 -36t-14 -36q-16 -16 -36 -15h-228v-334q31 61 104 102t169 41z" />
    <glyph glyph-name="Itilde" unicode="&#x128;" horiz-adv-x="466" 
d="M115 1677q53 0 127 -40t120 -40t89 58q17 23 39 23t42 -21q20 -20 3 -53q-53 -106 -179 -107q-53 0 -127 40q-73 40 -119 40t-90 -57q-16 -23 -38 -23t-43 20t-2 54q53 106 178 106zM303 1325v-1272q0 -29 -20 -49q-19 -20 -49 -20t-50 20t-20 49v1272q0 29 20 49t49 20
t49 -20t21 -49z" />
    <glyph glyph-name="itilde" unicode="&#x129;" horiz-adv-x="395" 
d="M262 881v-832q0 -29 -18 -47t-47 -18t-47 18t-19 47v832q1 29 19 47t47 18t47 -18t18 -47zM74 1264q53 0 127 -40q73 -40 119 -40t90 57q16 23 38 23t43 -20q20 -20 3 -54q-53 -106 -179 -107q-53 0 -127 40t-120 40t-88 -57q-16 -23 -38 -23t-44 21q-21 21 -2 53
q53 107 178 107z" />
    <glyph glyph-name="Imacron" unicode="&#x12a;" horiz-adv-x="466" 
d="M477 1552q0 -20 -15 -35t-36 -16h-381q-19 -1 -35 15t-16 36t15 36t36 16h381q20 0 36 -16t15 -36zM303 1325v-1272q0 -29 -20 -49q-19 -20 -49 -20t-50 20t-20 49v1272q0 29 20 49t49 20t49 -20t21 -49z" />
    <glyph glyph-name="imacron" unicode="&#x12b;" horiz-adv-x="395" 
d="M262 881v-832q0 -29 -18 -47t-47 -18t-47 18t-19 47v832q1 29 19 47t47 18t47 -18t18 -47zM438 1151q0 -19 -14 -35t-37 -16h-381q-23 0 -37 15t-14 35t14 36t37 16h381q23 0 37 -16t14 -35z" />
    <glyph glyph-name="Ibreve" unicode="&#x12c;" horiz-adv-x="466" 
d="M233 1495q-99 0 -165 51t-66 156q0 20 14 34t34 15q20 0 36 -14q14 -14 14 -35q0 -113 133 -113t134 113q0 20 14 34q15 14 35 15q20 0 34 -14t15 -35q0 -104 -66 -156t-166 -51zM303 1325v-1272q0 -29 -20 -49q-19 -20 -49 -20t-50 20t-20 49v1272q0 29 20 49t49 20
t49 -20t21 -49z" />
    <glyph glyph-name="ibreve" unicode="&#x12d;" horiz-adv-x="395" 
d="M262 881v-832q0 -29 -18 -47t-47 -18t-47 18t-19 47v832q1 29 19 47t47 18t47 -18t18 -47zM197 1083q-100 -1 -166 51t-66 156q1 20 15 34t34 15q20 0 34 -14t15 -35q-1 -112 133 -112t134 112q0 20 14 34t34 15q20 0 36 -14q14 -14 14 -35q0 -104 -66 -156t-165 -51z
" />
    <glyph glyph-name="Iogonek" unicode="&#x12e;" horiz-adv-x="466" 
d="M259 -281q52 1 81 13t43 12q13 0 27 -13t14 -35t-23 -36q-59 -35 -152 -35t-150 45q-56 45 -56 129q0 127 143 203q-23 18 -22 51v1272q0 29 20 49t49 20t49 -20t21 -49v-1272q0 -41 -37 -61q-121 -63 -121 -164q0 -53 31 -81t83 -28z" />
    <glyph glyph-name="iogonek" unicode="&#x12f;" horiz-adv-x="395" 
d="M197 1139q-78 0 -78 80t78 79q78 0 78 -80t-78 -79zM111 -180q1 -45 31 -73t82 -28q52 1 82 13t43 12t27 -13t13 -35q0 -22 -22 -36q-59 -35 -153 -35t-149 45q-56 45 -57 129q0 129 144 201q-20 20 -21 49v832q1 29 19 47t47 18t47 -18t18 -47v-832q0 -35 -37 -59
t-58 -42q-56 -48 -56 -128z" />
    <glyph glyph-name="Idotaccent" unicode="&#x130;" horiz-adv-x="466" 
d="M236 1507q-78 0 -78 81t78 81t78 -81t-78 -81zM303 1325v-1272q0 -29 -20 -49q-19 -20 -49 -20t-50 20t-20 49v1272q0 29 20 49t49 20t49 -20t21 -49z" />
    <glyph glyph-name="dotlessi" unicode="&#x131;" horiz-adv-x="395" 
d="M262 881v-832q0 -29 -18 -47t-47 -18t-47 18t-19 47v832q1 29 19 47t47 18t47 -18t18 -47z" />
    <glyph glyph-name="IJ" unicode="&#x132;" horiz-adv-x="1261" 
d="M709 104q129 0 189 84t60 228v909q0 29 20 49t50 20q29 0 49 -20t21 -49v-909q0 -203 -93 -323t-296 -120q-140 0 -222 47q-39 23 -39 57t20 53q32 32 94 3q61 -29 147 -29zM303 1325v-1272q0 -29 -20 -49q-19 -20 -49 -20t-50 20t-20 49v1272q0 29 20 49t49 20t49 -20
t21 -49z" />
    <glyph glyph-name="ij" unicode="&#x133;" horiz-adv-x="774" 
d="M575 1139q-77 0 -77 80t77 79q78 0 78 -80t-78 -79zM510 -72v953q0 29 19 47t46 18t47 -18t19 -47v-953q0 -131 -85 -219t-214 -88q-27 -1 -44 17t-17 45t17 44t44 17q74 0 121 53t47 131zM199 1139q-78 0 -78 80t78 79q78 0 78 -80t-78 -79zM264 881v-832q0 -29 -19 -47
t-46 -18t-46 18t-20 47v832q-1 29 19 47t47 18t46 -18t19 -47z" />
    <glyph glyph-name="Jcircumflex" unicode="&#x134;" horiz-adv-x="845" 
d="M408 1473q-20 0 -35 14t-15 36t19 38l196 161q33 25 66 0l197 -161q18 -15 18 -37t-14 -36t-35 -15q-21 0 -33 12l-166 139l-166 -139q-12 -12 -32 -12zM33 77q0 34 20 53q34 33 94 3q60 -29 146 -29q129 0 189 84t61 228v909q0 29 20 49t49 20q30 0 50 -20t20 -49v-909
q0 -203 -93 -323t-296 -120q-139 0 -221 47q-39 23 -39 57z" />
    <glyph glyph-name="jcircumflex" unicode="&#x135;" horiz-adv-x="397" 
d="M-6 1069q-20 0 -35 14q-14 14 -14 37t18 37l197 162q16 12 32 12t33 -12l197 -162q18 -15 18 -37t-14 -36t-35 -15q-21 0 -33 12l-165 140l-166 -140q-13 -12 -33 -12zM133 -72v953q-1 29 19 47t47 18t46 -18t19 -47v-953q0 -131 -85 -219t-214 -88q-27 -1 -44 17t-17 45
t17 44t44 17q74 0 121 53t47 131z" />
    <glyph glyph-name="Kcommaaccent" unicode="&#x136;" horiz-adv-x="1134" 
d="M553 -516q-27 0 -27 27q0 10 9 18q59 59 59 133q0 35 -37 80t-37 84q0 88 88 88t88 -108t-28 -178q-28 -69 -93 -134q-10 -10 -22 -10zM951 1395q32 0 54 -22q46 -46 1 -99l-428 -479l495 -699q14 -20 14 -46t-20 -46t-53 -20t-56 32l-475 676l-180 -203v-436
q0 -29 -20 -49q-19 -20 -49 -20t-50 20t-20 49v1272q0 29 20 49t49 20t49 -20t21 -49v-639l596 682q20 27 52 27z" />
    <glyph glyph-name="kcommaaccent" unicode="&#x137;" horiz-adv-x="927" 
d="M455 -516q-27 0 -27 27q0 10 8 18q59 59 60 133q0 35 -37 80t-37 84q0 88 88 88t88 -108t-28 -178q-28 -69 -93 -134q-10 -10 -22 -10zM806 -16q-30 0 -54 30l-363 465l-125 -100v-330q0 -29 -19 -47t-46 -18t-46 18t-20 47v1344q-1 29 19 47t47 18t46 -18t19 -47v-858
l484 395q18 16 45 16t46 -18t19 -49t-27 -52l-335 -268l364 -469q14 -16 14 -43t-19 -45t-49 -18z" />
    <glyph glyph-name="kgreenlandic" unicode="&#x138;" horiz-adv-x="927" 
d="M806 -16q-30 0 -54 30l-363 465l-125 -100v-330q0 -29 -19 -47t-46 -18t-46 18t-20 47v832q-1 29 19 47t47 18t46 -18t19 -47v-346l484 395q18 16 45 16t46 -18t19 -49t-27 -52l-335 -268l364 -469q14 -16 14 -43t-19 -45t-49 -18z" />
    <glyph glyph-name="Lacute" unicode="&#x139;" horiz-adv-x="989" 
d="M213 1487q-30 -31 -62 -4t-6 61l183 221q33 41 77 0t7 -77zM303 131h561q29 0 47 -18q19 -18 19 -47q0 -30 -18 -48t-48 -18h-631q-29 0 -49 20t-20 50v1255q0 29 20 49t49 20t49 -20t21 -49v-1194z" />
    <glyph glyph-name="lacute" unicode="&#x13a;" horiz-adv-x="448" 
d="M166 1524q-31 -31 -63 -4t-5 61l183 221q33 41 77 0t7 -78zM199 1458q27 0 46 -19t19 -46v-1170q0 -117 82 -117q25 0 43 -17q19 -17 19 -44t-18 -44t-44 -17q-213 0 -213 239v1170q-1 27 19 46t47 19z" />
    <glyph glyph-name="Lcommaaccent" unicode="&#x13b;" horiz-adv-x="989" 
d="M662 -205q0 -98 -28 -167t-93 -134q-10 -10 -23 -10q-27 0 -26 27q0 10 8 18q59 59 59 133q0 35 -37 80t-37 84q0 88 86 88q91 0 91 -119zM303 131h561q29 0 47 -18q19 -18 19 -47q0 -30 -18 -48t-48 -18h-631q-29 0 -49 20t-20 50v1255q0 29 20 49t49 20t49 -20t21 -49
v-1194z" />
    <glyph glyph-name="lcommaaccent" unicode="&#x13c;" horiz-adv-x="448" 
d="M211 -516q-27 0 -27 27q0 10 9 18q59 59 59 133q0 35 -37 80t-37 84q0 88 88 88t88 -108t-28 -178q-28 -69 -93 -134q-10 -10 -22 -10zM199 1458q27 0 46 -19t19 -46v-1170q0 -117 82 -117q25 0 43 -17q19 -17 19 -44t-18 -44t-44 -17q-213 0 -213 239v1170q-1 27 19 46
t47 19z" />
    <glyph glyph-name="Lcaron" unicode="&#x13d;" horiz-adv-x="989" 
d="M809 1264q0 -213 -147 -367q-12 -12 -27 -12q-31 0 -31 30q0 10 6 19q76 104 76 186q0 39 -37 86t-37 90q0 98 97 99q100 0 100 -131zM303 131h561q29 0 47 -18q19 -18 19 -47q0 -30 -18 -48t-48 -18h-631q-29 0 -49 20t-20 50v1255q0 29 20 49t49 20t49 -20t21 -49
v-1194z" />
    <glyph glyph-name="lcaron" unicode="&#x13e;" horiz-adv-x="479" 
d="M555 1327q0 -213 -147 -366q-12 -12 -27 -13q-31 0 -31 31q0 8 6 18q76 104 76 187q0 39 -37 86t-37 90q0 98 98 98t99 -131zM199 1458q27 0 46 -19t19 -46v-1170q0 -117 82 -117q25 0 43 -17q19 -17 19 -44t-18 -44t-44 -17q-213 0 -213 239v1170q-1 27 19 46t47 19z
" />
    <glyph glyph-name="Ldot" unicode="&#x13f;" horiz-adv-x="989" 
d="M774 608q-96 0 -96 98t96 97q96 1 96 -97t-96 -98zM303 131h561q29 0 47 -18q19 -18 19 -47q0 -30 -18 -48t-48 -18h-631q-29 0 -49 20t-20 50v1255q0 29 20 49t49 20t49 -20t21 -49v-1194z" />
    <glyph glyph-name="ldot" unicode="&#x140;" horiz-adv-x="571" 
d="M444 672q-96 0 -96 97t96 97t96 -97t-96 -97zM199 1458q27 0 46 -19t19 -46v-1170q0 -117 82 -117q25 0 43 -17q19 -17 19 -44t-18 -44t-44 -17q-213 0 -213 239v1170q-1 27 19 46t47 19z" />
    <glyph glyph-name="Lslash" unicode="&#x141;" horiz-adv-x="1030" 
d="M342 131h561q27 0 46 -18t19 -47q0 -30 -18 -48q-20 -18 -47 -18h-631q-29 0 -49 20t-20 50v450l-92 -43q-12 -6 -32 -6t-37 17t-17 49t36 49l142 65v674q0 29 20 49t49 20q30 0 50 -20t20 -49v-610l352 166q12 6 32 6q20 1 37 -17t17 -51t-37 -47l-401 -188v-453z" />
    <glyph glyph-name="lslash" unicode="&#x142;" horiz-adv-x="520" 
d="M199 1458q27 0 46 -19t19 -46v-537l160 92q12 6 30 6t34 -15t16 -44t-29 -45l-211 -121v-506q0 -117 82 -117q25 0 43 -17q19 -17 19 -44t-18 -44t-44 -17q-213 0 -213 239v430l-49 -28q-39 -22 -68 7q-16 15 -16 44t29 45l104 59v613q-1 27 19 46t47 19z" />
    <glyph glyph-name="Nacute" unicode="&#x143;" horiz-adv-x="1269" 
d="M623 1485q-31 -31 -63 -4t-5 61l182 221q33 41 77 0t7 -77zM1059 1395q27 1 47 -19t20 -49v-1274q0 -29 -20 -49t-52 -20t-55 28l-720 1088v-1049q-1 -27 -21 -47t-47 -20t-47 20t-21 47v1276q1 29 21 48t51 19t51 -28l725 -1090v1051q1 29 21 49t47 19z" />
    <glyph glyph-name="nacute" unicode="&#x144;" horiz-adv-x="1026" 
d="M463 1069q-31 -31 -63 -4t-5 61l183 222q32 41 76 0t8 -78zM537 958q377 0 376 -362v-547q0 -29 -18 -47t-47 -18t-47 18t-19 47v520q0 133 -53 203t-192 70q-272 0 -273 -287v-506q0 -29 -19 -47t-46 -18t-46 18t-20 47v832q-1 29 19 47t47 18t46 -18t19 -47v-66
q31 61 104 102t169 41z" />
    <glyph glyph-name="Ncommaaccent" unicode="&#x145;" horiz-adv-x="1269" 
d="M573 -516q-27 0 -26 27q0 10 8 18q59 59 59 133q0 35 -36 80q-37 45 -37 84q0 88 88 88t88 -108t-28 -178q-28 -69 -93 -134q-10 -10 -23 -10zM1059 1395q27 1 47 -19t20 -49v-1274q0 -29 -20 -49t-52 -20t-55 28l-720 1088v-1049q-1 -27 -21 -47t-47 -20t-47 20t-21 47
v1276q1 29 21 48t51 19t51 -28l725 -1090v1051q1 29 21 49t47 19z" />
    <glyph glyph-name="ncommaaccent" unicode="&#x146;" horiz-adv-x="1026" 
d="M621 -205q0 -98 -28 -167t-93 -134q-10 -10 -23 -10q-27 0 -26 27q0 10 8 18q59 59 59 133q0 35 -37 80t-37 84q0 88 86 88q91 0 91 -119zM537 958q377 0 376 -362v-547q0 -29 -18 -47t-47 -18t-47 18t-19 47v520q0 133 -53 203t-192 70q-272 0 -273 -287v-506
q0 -29 -19 -47t-46 -18t-46 18t-20 47v832q-1 29 19 47t47 18t46 -18t19 -47v-66q31 61 104 102t169 41z" />
    <glyph glyph-name="Ncaron" unicode="&#x147;" horiz-adv-x="1269" 
d="M905 1684q0 -22 -18 -37l-197 -162q-16 -12 -32 -12t-33 12l-197 162q-18 15 -18 37t14 36t34 14t34 -12l165 -139l166 139q13 12 33 12t34 -14t15 -36zM1059 1395q27 1 47 -19t20 -49v-1274q0 -29 -20 -49t-52 -20t-55 28l-720 1088v-1049q-1 -27 -21 -47t-47 -20
t-47 20t-21 47v1276q1 29 21 48t51 19t51 -28l725 -1090v1051q1 29 21 49t47 19z" />
    <glyph glyph-name="ncaron" unicode="&#x148;" horiz-adv-x="1026" 
d="M741 1284q21 0 35 -14t14 -36t-18 -38l-197 -162q-16 -12 -32 -12t-33 12l-197 162q-18 16 -18 38t14 36q15 14 35 14t33 -12l166 -139l166 139q12 12 32 12zM537 958q377 0 376 -362v-547q0 -29 -18 -47t-47 -18t-47 18t-19 47v520q0 133 -53 203t-192 70
q-272 0 -273 -287v-506q0 -29 -19 -47t-46 -18t-46 18t-20 47v832q-1 29 19 47t47 18t46 -18t19 -47v-66q31 61 104 102t169 41z" />
    <glyph glyph-name="napostrophe" unicode="&#x149;" horiz-adv-x="1026" 
d="M188 1264q0 -98 -28 -167t-92 -134q-10 -10 -23 -11q-27 0 -27 27q0 10 9 18q59 59 59 133q0 35 -37 80t-37 84q0 88 86 88q90 1 90 -118zM537 958q377 0 376 -362v-547q0 -29 -18 -47t-47 -18t-47 18t-19 47v520q0 133 -53 203t-192 70q-272 0 -273 -287v-506
q0 -29 -19 -47t-46 -18t-46 18t-20 47v832q-1 29 19 47t47 18t46 -18t19 -47v-66q31 61 104 102t169 41z" />
    <glyph glyph-name="Eng" unicode="&#x14a;" horiz-adv-x="1269" 
d="M737 -281q127 0 190 83q62 83 64 223l-712 1075v-1049q-1 -27 -21 -47t-47 -20t-47 20t-21 47v1276q1 29 21 48t51 19t51 -28l725 -1090v1051q1 29 21 48t47 19t47 -18q20 -20 20 -49v-1296q0 -203 -93 -323t-296 -120q-29 0 -47 20t-18 46q0 27 18 46t47 19z" />
    <glyph glyph-name="eng" unicode="&#x14b;" horiz-adv-x="1026" 
d="M782 -104v673q0 133 -53 203t-192 70q-272 0 -273 -287v-506q0 -29 -19 -47t-46 -18t-46 18t-20 47v832q-1 29 19 47t47 18t46 -18t19 -47v-66q31 61 104 103t169 40q377 0 376 -362v-700q0 -132 -85 -220t-214 -88q-27 0 -44 18t-17 44q0 27 17 44t44 17q74 -1 121 53
t47 132z" />
    <glyph glyph-name="Omacron" unicode="&#x14c;" horiz-adv-x="1458" 
d="M977 1552q0 -20 -15 -35t-36 -16h-381q-19 -1 -35 15t-16 36t15 36t36 16h381q20 0 36 -16t15 -36zM729 1280q-240 0 -368 -147t-128 -443t128 -444t368 -148t368 148t128 443t-128 443t-368 148zM729 -29q-303 -1 -471 181t-168 537t167 537t472 181q305 0 472 -181
q167 -180 167 -536t-168 -538t-471 -181z" />
    <glyph glyph-name="omacron" unicode="&#x14d;" horiz-adv-x="1003" 
d="M743 1151q0 -19 -15 -35t-36 -16h-381q-20 0 -36 15q-15 15 -15 35t15 36t36 16h381q20 0 36 -15q15 -16 15 -36zM502 92q297 0 297 374t-297 374t-297 -374t297 -374zM502 958q206 0 318 -122t112 -369q0 -246 -113 -370t-317 -124t-317 124q-114 124 -113 370
q0 246 112 369q113 122 318 122z" />
    <glyph glyph-name="Obreve" unicode="&#x14e;" horiz-adv-x="1458" 
d="M733 1495q-100 0 -166 51t-65 156q0 20 14 34t34 15q20 0 36 -14q14 -14 14 -35q0 -113 133 -113t133 113q0 20 14 34t35 15q21 0 35 -14t15 -35q0 -104 -66 -156t-166 -51zM729 1280q-240 0 -368 -147t-128 -443t128 -444t368 -148t368 148t128 443t-128 443t-368 148z
M729 -29q-303 -1 -471 181t-168 537t167 537t472 181q305 0 472 -181q167 -180 167 -536t-168 -538t-471 -181z" />
    <glyph glyph-name="obreve" unicode="&#x14f;" horiz-adv-x="1003" 
d="M500 1083q-100 -1 -166 51t-66 156q0 20 14 34t35 15q21 0 35 -14t15 -35q0 -112 133 -112t133 112q0 20 14 34q15 14 35 15q20 0 34 -14t15 -35q1 -104 -65 -156t-166 -51zM502 92q297 0 297 374t-297 374t-297 -374t297 -374zM502 958q206 0 318 -122t112 -369
q0 -246 -113 -370t-317 -124t-317 124q-114 124 -113 370q0 246 112 369q113 122 318 122z" />
    <glyph glyph-name="Ohungarumlaut" unicode="&#x150;" horiz-adv-x="1458" 
d="M877 1485q-31 -31 -63 -4t-5 61l182 221q33 41 77 0t7 -77zM653 1485q-30 -31 -62 -4t-5 61l182 221q33 41 77 0t7 -77zM729 1280q-240 0 -368 -147t-128 -443t128 -444t368 -148t368 148t128 443t-128 443t-368 148zM729 -29q-303 -1 -471 181t-168 537t167 537t472 181
q305 0 472 -181q167 -180 167 -536t-168 -538t-471 -181z" />
    <glyph glyph-name="ohungarumlaut" unicode="&#x151;" horiz-adv-x="1003" 
d="M604 1069q-30 -31 -62 -4t-5 61l182 222q33 41 77 0t7 -78zM381 1069q-31 -31 -63 -4t-5 61l183 222q32 41 76 0t8 -78zM502 92q297 0 297 374t-297 374t-297 -374t297 -374zM502 958q206 0 318 -122t112 -369q0 -246 -113 -370t-317 -124t-317 124q-114 124 -113 370
q0 246 112 369q113 122 318 122z" />
    <glyph glyph-name="OE" unicode="&#x152;" horiz-adv-x="1890" 
d="M725 1280q-240 0 -366 -147t-126 -443t126 -444q126 -147 366 -148q160 0 268 64v1052q-112 66 -268 66zM1743 0h-680q-33 0 -51 23q-131 -51 -287 -52q-303 -1 -469 181t-166 538t166 536t469 181q156 0 285 -53q20 25 53 24h657q27 0 45 -18q19 -18 19 -45t-18 -45
t-46 -19h-587v-493h450q27 0 45 -18t18 -46q0 -27 -18 -45t-45 -18h-450v-504h610q27 0 45 -18q18 -17 18 -45t-18 -46t-45 -18z" />
    <glyph glyph-name="oe" unicode="&#x153;" horiz-adv-x="1681" 
d="M1483 543q0 297 -262 297q-131 0 -205 -79t-84 -218h551zM502 840q-297 0 -297 -374t297 -374q289 0 297 375q-8 373 -297 373zM502 958q258 0 364 -190q106 190 358 190t344 -199q44 -95 44 -197t-35 -123q-18 -11 -47 -11h-598q0 -154 83 -244t219 -90t253 88
q46 30 79 -5q17 -17 17 -42t-22 -47q-115 -115 -320 -115q-268 0 -377 189q-106 -188 -362 -189q-203 0 -317 124t-113 370q0 246 112 369q113 122 318 122z" />
    <glyph glyph-name="Racute" unicode="&#x154;" horiz-adv-x="1118" 
d="M524 1487q-30 -31 -62 -4t-5 61l182 221q33 41 77 0t7 -77zM303 596v-543q0 -29 -20 -49q-19 -20 -49 -20t-50 20t-20 49v1256q0 29 20 49t49 20h408q170 0 281 -112q110 -112 110 -277t-101 -275t-265 -118l374 -500q14 -16 14 -44t-20 -48t-53 -20t-55 32l-416 580
h-207zM303 1251v-528h342q106 0 176 76q70 75 70 189t-71 189t-181 74h-336z" />
    <glyph glyph-name="racute" unicode="&#x155;" horiz-adv-x="632" 
d="M342 1069q-30 -31 -62 -4t-6 61l183 222q33 41 77 0t7 -78zM264 881v-90q33 75 108 119t177 44q27 0 45 -18t18 -45t-18 -45t-45 -19q-137 0 -211 -87t-74 -232v-459q0 -29 -19 -47t-46 -18t-46 18t-20 47v832q-1 29 19 47t47 18t46 -18t19 -47z" />
    <glyph glyph-name="Rcommaaccent" unicode="&#x156;" horiz-adv-x="1118" 
d="M535 -516q-27 0 -27 27q0 10 8 18q59 59 59 133q0 35 -36 80q-37 45 -37 84q0 88 88 88t88 -108t-28 -178q-28 -69 -93 -134q-10 -10 -22 -10zM303 596v-543q0 -29 -20 -49q-19 -20 -49 -20t-50 20t-20 49v1256q0 29 20 49t49 20h408q170 0 281 -112q110 -112 110 -277
t-101 -275t-265 -118l374 -500q14 -16 14 -44t-20 -48t-53 -20t-55 32l-416 580h-207zM303 1251v-528h342q106 0 176 76q70 75 70 189t-71 189t-181 74h-336z" />
    <glyph glyph-name="rcommaaccent" unicode="&#x157;" horiz-adv-x="632" 
d="M139 -516q-27 0 -26 27q0 10 8 18q59 59 59 133q0 35 -37 80t-37 84q0 88 88 88t89 -108q0 -108 -28 -178q-28 -69 -93 -134q-10 -10 -23 -10zM264 881v-90q33 75 108 119t177 44q27 0 45 -18t18 -45t-18 -45t-45 -19q-137 0 -211 -87t-74 -232v-459q0 -29 -19 -47
t-46 -18t-46 18t-20 47v832q-1 29 19 47t47 18t46 -18t19 -47z" />
    <glyph glyph-name="Rcaron" unicode="&#x158;" horiz-adv-x="1118" 
d="M807 1684q0 -22 -19 -37l-196 -162q-16 -12 -32 -12t-34 12l-196 162q-18 15 -18 37t14 36t34 14t33 -12l166 -139l166 139q13 12 33 12t34 -14t15 -36zM303 596v-543q0 -29 -20 -49q-19 -20 -49 -20t-50 20t-20 49v1256q0 29 20 49t49 20h408q170 0 281 -112
q110 -112 110 -277t-101 -275t-265 -118l374 -500q14 -16 14 -44t-20 -48t-53 -20t-55 32l-416 580h-207zM303 1251v-528h342q106 0 176 76q70 75 70 189t-71 189t-181 74h-336z" />
    <glyph glyph-name="rcaron" unicode="&#x159;" horiz-adv-x="632" 
d="M542 1284q20 0 36 -14q14 -14 14 -36t-19 -38l-196 -162q-17 -12 -33 -12t-33 12l-196 162q-19 16 -19 38t14 36t35 14q20 0 33 -12l166 -139l166 139q12 12 32 12zM264 881v-90q33 75 108 119t177 44q27 0 45 -18t18 -45t-18 -45t-45 -19q-137 0 -211 -87t-74 -232v-459
q0 -29 -19 -47t-46 -18t-46 18t-20 47v832q-1 29 19 47t47 18t46 -18t19 -47z" />
    <glyph glyph-name="Sacute" unicode="&#x15a;" horiz-adv-x="1142" 
d="M578 1487q-31 -31 -63 -4t-5 61l182 221q33 41 77 0t7 -77zM575 1280q-153 0 -225 -63t-72 -157t80 -156q80 -60 194 -96t228 -80t193 -133q80 -89 80 -226q0 -193 -127 -295t-365 -103q-166 0 -294 73t-183 179q-10 20 -10 42t18 41q18 20 51 20t54 -33
q119 -195 364 -195q170 0 261 69t91 202q0 88 -57 149t-143 91q-87 30 -187 66t-186 73q-86 36 -143 116t-58 193q0 152 112 251t324 99q143 0 259 -56t180 -155q12 -18 12 -42t-19 -43t-49 -19t-51 26q-131 162 -332 162z" />
    <glyph glyph-name="sacute" unicode="&#x15b;" horiz-adv-x="868" 
d="M406 1069q-31 -31 -63 -4t-5 61l182 222q33 41 77 0t7 -78zM424 831q-182 0 -182 -122q0 -103 189 -163q79 -26 159 -57t135 -92t55 -151q0 -133 -97 -202t-233 -69t-229 45q-94 45 -139 103q-14 20 -14 42t17 39t42 17t45 -20q100 -100 260 -101q96 0 157 35
q60 35 60 101t-55 105q-55 37 -135 63t-159 57t-134 93t-55 170t87 170t226 62q213 0 311 -131q15 -18 15 -41t-18 -40t-42 -17q-25 0 -43 18q-90 86 -223 86z" />
    <glyph glyph-name="Scircumflex" unicode="&#x15c;" horiz-adv-x="1142" 
d="M382 1473q-20 0 -36 14q-14 14 -14 36t18 38l197 161q34 25 65 0l197 -161q18 -15 18 -37t-14 -36t-35 -15q-21 0 -33 12l-165 139l-166 -139q-12 -12 -32 -12zM575 1280q-153 0 -225 -63t-72 -157t80 -156q80 -60 194 -96t228 -80t193 -133q80 -89 80 -226
q0 -193 -127 -295t-365 -103q-166 0 -294 73t-183 179q-10 20 -10 42t18 41q18 20 51 20t54 -33q119 -195 364 -195q170 0 261 69t91 202q0 88 -57 149t-143 91q-87 30 -187 66t-186 73q-86 36 -143 116t-58 193q0 152 112 251t324 99q143 0 259 -56t180 -155q12 -18 12 -42
t-19 -43t-49 -19t-51 26q-131 162 -332 162z" />
    <glyph glyph-name="scircumflex" unicode="&#x15d;" horiz-adv-x="868" 
d="M244 1069q-20 0 -35 14q-14 14 -14 37t18 37l197 162q16 12 32 12t33 -12l197 -162q18 -15 18 -37t-14 -36t-35 -15q-21 0 -33 12l-166 140l-166 -140q-12 -12 -32 -12zM424 831q-182 0 -182 -122q0 -103 189 -163q79 -26 159 -57t135 -92t55 -151q0 -133 -97 -202
t-233 -69t-229 45q-94 45 -139 103q-14 20 -14 42t17 39t42 17t45 -20q100 -100 260 -101q96 0 157 35q60 35 60 101t-55 105q-55 37 -135 63t-159 57t-134 93t-55 170t87 170t226 62q213 0 311 -131q15 -18 15 -41t-18 -40t-42 -17q-25 0 -43 18q-90 86 -223 86z" />
    <glyph glyph-name="Scedilla" unicode="&#x15e;" horiz-adv-x="1142" 
d="M74 265q0 22 18 41q18 20 51 20t54 -33q119 -195 364 -195q170 0 261 69t91 202q0 88 -57 149t-143 91q-87 30 -187 66t-186 73q-86 36 -143 116t-58 193q0 152 112 251t324 99q143 0 259 -56t180 -155q12 -18 12 -42t-19 -43t-49 -19t-51 26q-131 162 -332 162
q-153 0 -225 -63t-72 -157t80 -156q80 -60 194 -96t228 -80t193 -133q80 -89 80 -226q0 -193 -128 -295t-370 -103l-8 -92q37 4 55 4q178 0 178 -168q0 -174 -198 -174q-78 0 -131 37q-17 12 -17 30t16 33q16 16 51 -2q36 -17 87 -17t77 18q26 20 25 75q0 94 -90 95l-84 -9
q-39 0 -37 45l4 129q-139 16 -244 85t-155 163q-10 20 -10 42z" />
    <glyph glyph-name="scedilla" unicode="&#x15f;" horiz-adv-x="868" 
d="M68 165q0 22 17 39t42 17t45 -20q100 -100 260 -101q96 0 157 35q60 35 60 101t-55 105q-55 37 -135 63t-159 57t-134 93t-55 170t87 170t226 62q213 0 311 -131q15 -18 15 -41t-18 -40t-42 -17q-25 0 -43 18q-90 86 -223 86q-182 0 -182 -122q0 -103 189 -163
q79 -26 159 -57t135 -92t55 -151q0 -135 -99 -203t-267 -68l-8 -96q37 4 55 4q178 0 178 -168q0 -174 -199 -174q-78 0 -131 37q-16 12 -16 30t16 33q16 16 51 -2q35 -17 86 -17t77 18q26 20 26 75q0 94 -90 95l-84 -9q-39 0 -37 45l4 138q-86 14 -156 54t-94 72t-24 55z
" />
    <glyph glyph-name="Scaron" unicode="&#x160;" horiz-adv-x="1142" 
d="M586 1473q-16 0 -33 12l-197 162q-18 15 -18 37t14 36t34 14t34 -12l166 -139l166 139q12 12 32 12t34 -14t16 -36q0 -22 -19 -37l-197 -162q-16 -12 -32 -12zM575 1280q-153 0 -225 -63t-72 -157t80 -156q80 -60 194 -96t228 -80t193 -133q80 -89 80 -226
q0 -193 -127 -295t-365 -103q-166 0 -294 73t-183 179q-10 20 -10 42t18 41q18 20 51 20t54 -33q119 -195 364 -195q170 0 261 69t91 202q0 88 -57 149t-143 91q-87 30 -187 66t-186 73q-86 36 -143 116t-58 193q0 152 112 251t324 99q143 0 259 -56t180 -155q12 -18 12 -42
t-19 -43t-49 -19t-51 26q-131 162 -332 162z" />
    <glyph glyph-name="scaron" unicode="&#x161;" horiz-adv-x="868" 
d="M632 1284q20 0 36 -14q14 -14 14 -36t-18 -38l-197 -162q-17 -12 -33 -12t-33 12l-196 162q-19 16 -19 38t14 36t36 14q20 0 32 -12l166 -139l166 139q12 12 32 12zM424 831q-182 0 -182 -122q0 -103 189 -163q79 -26 159 -57t135 -92t55 -151q0 -133 -97 -202t-233 -69
t-229 45q-94 45 -139 103q-14 20 -14 42t17 39t42 17t45 -20q100 -100 260 -101q96 0 157 35q60 35 60 101t-55 105q-55 37 -135 63t-159 57t-134 93t-55 170t87 170t226 62q213 0 311 -131q15 -18 15 -41t-18 -40t-42 -17q-25 0 -43 18q-90 86 -223 86z" />
    <glyph glyph-name="Tcommaaccent" unicode="&#x162;" horiz-adv-x="1101" 
d="M496 -516q-27 0 -27 27q0 10 8 18q59 59 60 133q0 35 -37 80t-37 84q0 88 88 88t88 -108t-28 -178q-28 -69 -93 -134q-10 -10 -22 -10zM481 1247h-366q-29 -1 -47 19t-19 47q1 27 19 46t47 19h870q27 0 46 -19t19 -46t-18 -46q-20 -19 -47 -20h-364v-1194q-1 -29 -21 -49
t-49 -20t-49 20t-21 49v1194z" />
    <glyph glyph-name="tcommaaccent" unicode="&#x163;" horiz-adv-x="571" 
d="M272 -516q-27 0 -26 27q0 10 8 18q59 59 59 133q0 35 -37 80t-36 84q0 88 88 88t88 -108t-28 -178q-28 -69 -93 -134q-10 -10 -23 -10zM184 930v215q0 27 20 46t46 19q27 0 46 -19t19 -46v-215h134q27 0 44 -18t17 -44q0 -27 -17 -44t-44 -17h-134v-565q0 -64 33 -100
t73 -36q75 0 77 -61q0 -27 -18 -44t-46 -17q-118 0 -184 72t-66 186v565h-80q-27 0 -44 17t-17 44t17 44t44 18h80z" />
    <glyph glyph-name="Tcaron" unicode="&#x164;" horiz-adv-x="1101" 
d="M554 1473q-16 0 -34 12l-196 162q-18 15 -18 37t13 36q15 14 35 14t33 -12l166 -139l166 139q13 12 33 12t34 -14t14 -36t-18 -37l-196 -162q-16 -12 -32 -12zM481 1247h-366q-29 -1 -47 19t-19 47q1 27 19 46t47 19h870q27 0 46 -19t19 -46t-18 -46q-20 -19 -47 -20
h-364v-1194q-1 -29 -21 -49t-49 -20t-49 20t-21 49v1194z" />
    <glyph glyph-name="tcaron" unicode="&#x165;" horiz-adv-x="571" 
d="M649 1376q0 -213 -147 -366q-12 -12 -27 -13q-31 0 -31 31q0 8 7 19q76 104 75 186q0 39 -37 86t-36 90q0 98 98 98t98 -131zM184 930v215q0 27 20 46t46 19q27 0 46 -19t19 -46v-215h134q27 0 44 -18t17 -44q0 -27 -17 -44t-44 -17h-134v-565q0 -64 33 -100t73 -36
q75 0 77 -61q0 -27 -18 -44t-46 -17q-118 0 -184 72t-66 186v565h-80q-27 0 -44 17t-17 44t17 44t44 18h80z" />
    <glyph glyph-name="Tbar" unicode="&#x166;" horiz-adv-x="1101" 
d="M481 1247h-366q-29 -1 -47 19t-19 47q1 27 19 46t47 19h870q27 0 46 -19t19 -46t-18 -46q-20 -19 -47 -20h-364v-497h165q20 0 36 -14t16 -38q0 -22 -16 -36t-36 -15h-165v-594q-1 -29 -21 -49t-49 -20t-49 20t-21 49v594h-178q-19 1 -35 15t-16 36t15 37q15 14 36 15
h178v497z" />
    <glyph glyph-name="tbar" unicode="&#x167;" horiz-adv-x="571" 
d="M510 614q0 -20 -15 -35t-36 -16h-144v-321q0 -64 33 -100t73 -36q75 0 77 -61q0 -27 -18 -44t-46 -17q-118 0 -184 72t-66 186v321h-90q-20 -1 -36 15t-15 36q0 20 15 36t36 16h90v141h-80q-27 0 -44 17t-17 44t17 44t44 18h80v215q0 27 20 46t46 19q27 0 46 -19t19 -46
v-215h134q27 0 44 -18t17 -44q0 -27 -17 -44t-44 -17h-134v-141h144q19 0 35 -16t16 -36z" />
    <glyph glyph-name="Utilde" unicode="&#x168;" horiz-adv-x="1280" 
d="M539 1677q51 0 127 -40t120 -40t88 58q16 23 38 23t44 -21q21 -20 2 -53q-53 -106 -178 -107q-53 0 -127 40q-73 40 -119 40t-90 -57q-16 -23 -38 -23t-43 20q-20 20 -3 54q54 106 179 106zM1126 420q0 -449 -480 -449t-480 449v905q0 29 20 49t50 20t49 -20
q20 -20 20 -49v-905q0 -228 170 -292q70 -26 172 -26q193 0 267 87t73 231v905q1 29 21 49t49 20t49 -20t20 -49v-905z" />
    <glyph glyph-name="utilde" unicode="&#x169;" horiz-adv-x="995" 
d="M387 1264q51 0 127 -40t121 -40t88 57q17 23 39 23t36 -14t15 -32q0 -16 -6 -28q-53 -106 -178 -107q-53 0 -127 40t-120 40t-89 -57q-17 -23 -39 -23q-22 1 -36 15t-15 30q0 16 6 29q53 107 178 107zM178 946q27 0 46 -19t20 -46v-535q0 -116 53 -182t197 -66t196 67
q53 67 53 181v535q-1 27 19 46t48 19t46 -19t18 -46v-535q0 -170 -82 -271t-298 -101q-217 0 -299 100q-82 102 -82 272v535q0 29 19 47t46 18z" />
    <glyph glyph-name="Umacron" unicode="&#x16a;" horiz-adv-x="1277" 
d="M897 1552q0 -20 -14 -35t-37 -16h-381q-23 -1 -37 15t-14 36t14 36t37 16h381q23 0 37 -16t14 -36zM1124 420q0 -449 -480 -449t-480 449v905q0 29 20 49t49 20t49 -20t21 -49v-905q0 -228 170 -292q70 -26 172 -26q193 0 267 87t73 231v905q1 29 21 49t49 20t49 -20
t20 -49v-905z" />
    <glyph glyph-name="umacron" unicode="&#x16b;" horiz-adv-x="995" 
d="M752 1151q0 -19 -16 -35t-36 -16h-381q-20 0 -35 15q-16 15 -16 35t16 36t35 16h381q20 0 36 -16t16 -35zM178 946q27 0 46 -19t20 -46v-535q0 -116 53 -182t197 -66t196 67q53 67 53 181v535q-1 27 19 46t48 19t46 -19t18 -46v-535q0 -170 -82 -271t-298 -101
q-217 0 -299 100q-82 102 -82 272v535q0 29 19 47t46 18z" />
    <glyph glyph-name="Ubreve" unicode="&#x16c;" horiz-adv-x="1277" 
d="M647 1495q-100 0 -166 51t-65 156q0 20 14 34t34 15q20 0 36 -14q14 -14 14 -35q0 -113 133 -113t133 113q0 20 14 34t35 15q21 0 35 -14t15 -35q0 -104 -66 -156t-166 -51zM1124 420q0 -449 -480 -449t-480 449v905q0 29 20 49t49 20t49 -20t21 -49v-905
q0 -228 170 -292q70 -26 172 -26q193 0 267 87t73 231v905q1 29 21 49t49 20t49 -20t20 -49v-905z" />
    <glyph glyph-name="ubreve" unicode="&#x16d;" horiz-adv-x="995" 
d="M494 1083q-100 -1 -166 51t-66 156q0 20 14 34t34 15q20 0 36 -14q14 -14 14 -35q0 -112 134 -112t133 112q0 20 14 34q15 14 35 15q20 0 34 -14t15 -35q1 -104 -65 -156t-166 -51zM178 946q27 0 46 -19t20 -46v-535q0 -116 53 -182t197 -66t196 67q53 67 53 181v535
q-1 27 19 46t48 19t46 -19t18 -46v-535q0 -170 -82 -271t-298 -101q-217 0 -299 100q-82 102 -82 272v535q0 29 19 47t46 18z" />
    <glyph glyph-name="Uring" unicode="&#x16e;" horiz-adv-x="1277" 
d="M532 1640q0 -124 128 -123t126 123q0 63 -28 94q-29 29 -99 29q-71 1 -99 -29t-28 -94zM659 1440q-213 0 -213 200t213 201q213 -1 213 -201t-213 -200zM1124 420q0 -449 -480 -449t-480 449v905q0 29 20 49t49 20t49 -20t21 -49v-905q0 -228 170 -292q70 -26 172 -26
q193 0 267 87t73 231v905q1 29 21 49t49 20t49 -20t20 -49v-905z" />
    <glyph glyph-name="uring" unicode="&#x16f;" horiz-adv-x="995" 
d="M502 1106q127 0 127 123q-1 63 -29 93t-98 30t-99 -30t-29 -92t30 -93t98 -31zM502 1028q-213 0 -213 201t213 201t213 -201t-213 -201zM178 946q27 0 46 -19t20 -46v-535q0 -116 53 -182t197 -66t196 67q53 67 53 181v535q-1 27 19 46t48 19t46 -19t18 -46v-535
q0 -170 -82 -271t-298 -101q-217 0 -299 100q-82 102 -82 272v535q0 29 19 47t46 18z" />
    <glyph glyph-name="Uhungarumlaut" unicode="&#x170;" horiz-adv-x="1277" 
d="M739 1487q-30 -31 -62 -4t-5 61l182 221q33 41 77 0t7 -77zM516 1487q-30 -31 -62 -4t-5 61l182 221q33 41 77 0t7 -77zM1114 420q0 -449 -480 -449t-480 449v905q0 29 20 49t49 20t49 -20t21 -49v-905q0 -229 170 -292q70 -26 172 -26q193 0 267 87t73 231v905
q0 29 20 49t49 20q30 0 50 -20t20 -49v-905z" />
    <glyph glyph-name="uhungarumlaut" unicode="&#x171;" horiz-adv-x="995" 
d="M604 1069q-30 -31 -62 -4t-5 61l182 222q33 41 77 0t7 -78zM381 1069q-31 -31 -63 -4t-5 61l183 222q32 41 76 0t8 -78zM178 946q27 0 46 -19t20 -46v-535q0 -116 53 -182t197 -66t196 67q53 67 53 181v535q-1 27 19 46t48 19t46 -19t18 -46v-535q0 -170 -82 -271
t-298 -101q-217 0 -299 100q-82 102 -82 272v535q0 29 19 47t46 18z" />
    <glyph glyph-name="Uogonek" unicode="&#x172;" horiz-adv-x="1277" 
d="M830 -281q52 1 82 13t43 12t27 -13t13 -35q0 -22 -22 -36q-59 -35 -153 -35t-149 45q-57 45 -57 140t99 165q-37 -4 -68 -4q-481 0 -481 449v905q0 29 20 49t49 20t49 -20t21 -49v-905q0 -228 170 -292q70 -26 172 -26q193 0 267 87t73 231v905q1 29 21 49t49 20t49 -20
t20 -49v-905q0 -334 -270 -420q-55 -23 -96 -69t-41 -101t31 -83q30 -28 82 -28z" />
    <glyph glyph-name="uogonek" unicode="&#x173;" horiz-adv-x="987" 
d="M648 -281q52 1 81 13t43 12t28 -13t13 -35q0 -22 -22 -36q-59 -35 -153 -35t-150 45t-56 139t103 166q-18 -2 -41 -2q-217 -1 -299 101t-82 272v535q0 29 19 47t46 18t46 -19t20 -46v-535q0 -116 53 -182t197 -66t196 67q53 67 53 181v535q-1 27 19 46t48 19t46 -19
t18 -46v-535q0 -281 -202 -346q-54 -23 -96 -69t-42 -101t32 -83q30 -28 82 -28z" />
    <glyph glyph-name="Wcircumflex" unicode="&#x174;" horiz-adv-x="1675" 
d="M640 1473q-20 0 -36 14q-14 14 -14 36t18 38l197 161q34 25 65 0l197 -161q18 -15 18 -37t-14 -36q-15 -14 -35 -15q-20 0 -32 12l-166 139l-166 -139q-12 -12 -32 -12zM476 -16q-54 0 -68 51l-363 1265q-4 16 -4 35t20 39t50 21q53 0 67 -52l299 -1058l293 1058
q12 51 68 51t67 -51l293 -1058l299 1058q14 51 68 52q29 -1 49 -21t20 -38t-4 -36l-362 -1265q-14 -51 -68 -51t-67 53l-295 1042l-295 -1042q-13 -53 -67 -53z" />
    <glyph glyph-name="wcircumflex" unicode="&#x175;" horiz-adv-x="1310" 
d="M457 1069q-20 0 -35 14q-14 14 -14 37t18 37l197 162q16 12 32 12t33 -12l197 -162q18 -15 18 -37t-14 -36t-35 -15q-21 0 -33 12l-166 140l-166 -140q-12 -12 -32 -12zM406 -16q-48 0 -64 43l-301 825q-6 16 -6 37t19 39t55 18t53 -43l237 -678l195 678q12 43 61 43
t62 -43l194 -678l238 678q16 43 52 43t61 -23t8 -71l-301 -825q-15 -43 -63 -43t-62 47l-189 649l-188 -649q-13 -47 -61 -47z" />
    <glyph glyph-name="Ycircumflex" unicode="&#x176;" 
d="M332 1473q-20 0 -35 14q-14 14 -14 36t18 38l197 161q33 25 65 0l197 -161q18 -15 18 -37t-14 -36t-35 -15q-21 0 -33 12l-166 139l-165 -139q-13 -12 -33 -12zM530 -16q-29 0 -49 20t-20 49v588l-412 647q-10 16 -10 41t20 45q21 20 55 20t54 -32l362 -582l363 582
q20 33 54 33q34 -1 54 -21q39 -40 11 -86l-412 -647v-588q0 -29 -20 -49t-50 -20z" />
    <glyph glyph-name="ycircumflex" unicode="&#x177;" horiz-adv-x="897" 
d="M250 1069q-20 0 -35 14q-14 14 -14 37t18 37l197 162q16 12 32 12t33 -12l197 -162q18 -15 18 -37t-14 -36t-35 -15q-21 0 -33 12l-165 140l-166 -140q-13 -12 -33 -12zM10 -350q0 61 78 61t134 44t111 168q15 34 48 116l-342 813q-6 18 -6 38t18 38t55 18t54 -43
l289 -706l288 706q15 43 53 43q74 0 74 -65q0 -10 -6 -29l-403 -961q-66 -155 -154 -229t-229 -74q-27 0 -44 18t-18 44z" />
    <glyph glyph-name="Ydieresis" unicode="&#x178;" 
d="M690 1518q-74 0 -74 76t74 77q74 -1 74 -77t-74 -76zM369 1518q-74 0 -74 76t74 77q74 -1 74 -77t-74 -76zM530 -16q-29 0 -49 20t-20 49v588l-412 647q-10 16 -10 41t20 45q21 20 55 20t54 -32l362 -582l363 582q20 33 54 33q34 -1 54 -21q39 -40 11 -86l-412 -647v-588
q0 -29 -20 -49t-50 -20z" />
    <glyph glyph-name="Zacute" unicode="&#x179;" horiz-adv-x="1050" 
d="M514 1487q-30 -31 -62 -4t-6 61l183 221q33 41 77 0t7 -77zM961 0h-861q-27 0 -46 18t-19 43t12 43l762 1143h-666q-29 -1 -47 19t-18 47t18 46t47 19h787q29 0 47 -19t18 -43t-12 -42l-756 -1143h734q27 0 46 -18t19 -47q0 -30 -19 -48t-46 -18z" />
    <glyph glyph-name="zacute" unicode="&#x17a;" horiz-adv-x="829" 
d="M371 1069q-31 -31 -63 -4t-5 61l182 222q33 41 77 0t7 -78zM78 868q0 27 17 44t44 18h561q27 0 44 -18q18 -18 18 -42q0 -25 -14 -43l-510 -700h473q27 0 45 -18q18 -17 18 -45t-18 -46t-45 -18h-600q-27 0 -44 17t-17 42t13 43l517 705h-441q-27 0 -44 17t-17 44z" />
    <glyph glyph-name="Zdotaccent" unicode="&#x17b;" horiz-adv-x="1050" 
d="M532 1507q-78 0 -78 81t78 81t78 -81t-78 -81zM961 0h-861q-27 0 -46 18t-19 43t12 43l762 1143h-666q-29 -1 -47 19t-18 47t18 46t47 19h787q29 0 47 -19t18 -43t-12 -42l-756 -1143h734q27 0 46 -18t19 -47q0 -30 -19 -48t-46 -18z" />
    <glyph glyph-name="zdotaccent" unicode="&#x17c;" horiz-adv-x="829" 
d="M428 1114q-78 0 -78 81t78 81t78 -81t-78 -81zM78 868q0 27 17 44t44 18h561q27 0 44 -18q18 -18 18 -42q0 -25 -14 -43l-510 -700h473q27 0 45 -18q18 -17 18 -45t-18 -46t-45 -18h-600q-27 0 -44 17t-17 42t13 43l517 705h-441q-27 0 -44 17t-17 44z" />
    <glyph glyph-name="Zcaron" unicode="&#x17d;" horiz-adv-x="1050" 
d="M554 1473q-16 0 -34 12l-196 162q-18 15 -18 37t13 36q15 14 35 14t33 -12l166 -139l166 139q13 12 33 12t34 -14t14 -36t-18 -37l-196 -162q-16 -12 -32 -12zM961 0h-861q-27 0 -46 18t-19 43t12 43l762 1143h-666q-29 -1 -47 19t-18 47t18 46t47 19h787q29 0 47 -19
t18 -43t-12 -42l-756 -1143h734q27 0 46 -18t19 -47q0 -30 -19 -48t-46 -18z" />
    <glyph glyph-name="zcaron" unicode="&#x17e;" horiz-adv-x="829" 
d="M632 1284q20 0 36 -14q14 -14 14 -36t-18 -38l-197 -162q-17 -12 -33 -12t-33 12l-196 162q-19 16 -19 38t14 36t36 14q20 0 32 -12l166 -139l166 139q12 12 32 12zM78 868q0 27 17 44t44 18h561q27 0 44 -18q18 -18 18 -42q0 -25 -14 -43l-510 -700h473q27 0 45 -18
q18 -17 18 -45t-18 -46t-45 -18h-600q-27 0 -44 17t-17 42t13 43l517 705h-441q-27 0 -44 17t-17 44z" />
    <glyph glyph-name="longs" unicode="&#x17f;" horiz-adv-x="458" 
d="M528 1280q-223 0 -223 -229v-1002q0 -29 -19 -47t-46 -18t-46 18t-20 47v758h-70q-27 0 -44 17t-17 44t17 44t44 18h70v121q0 152 89 252t265 100q27 1 44 -17q18 -18 18 -45t-18 -44t-44 -17z" />
    <glyph glyph-name="florin" unicode="&#x192;" horiz-adv-x="839" 
d="M868 1316q0 -26 -14 -40q-14 -16 -30 -16t-61 18q-44 18 -101 18q-90 0 -138 -57t-69 -172l-45 -252h198q23 0 39 -16q17 -16 17 -39t-16 -39t-40 -16h-217l-127 -705q-35 -196 -141 -304t-285 -108q-76 0 -127 20t-51 50q0 31 16 47t32 16t55 -11q38 -11 85 -11
q117 0 189 76t96 207l129 723h-133q-23 0 -39 16t-16 39t16 39t39 16h152l43 236q63 356 338 356q106 0 176 -45q30 -20 30 -46z" />
    <glyph glyph-name="AEmacron" unicode="&#x1e2;" horiz-adv-x="1722" 
d="M1337 1569q0 -19 -15 -35t-36 -16h-381q-20 0 -36 15q-15 15 -15 35t15 36t36 16h381q20 0 36 -15q15 -16 15 -36zM825 535v573l-358 -573h358zM1575 0h-680q-29 0 -49 20t-21 50v338h-432l-243 -392q-18 -32 -54 -32t-56 22q-22 22 -22 44q0 23 15 46l803 1250
q23 33 59 32h657q27 0 45 -18q19 -18 19 -45t-18 -45t-46 -19h-587v-493h450q27 0 45 -18t18 -46q0 -27 -18 -45t-45 -18h-450v-504h610q27 0 45 -18q18 -17 18 -45t-18 -46t-45 -18z" />
    <glyph glyph-name="aemacron" unicode="&#x1e3;" horiz-adv-x="1593" 
d="M1040 1188q0 -20 -14 -36t-37 -15h-381q-23 0 -37 15q-14 16 -14 36t14 36t37 15h381q23 1 37 -15t14 -36zM1395 547q0 293 -262 293q-131 0 -205 -77t-84 -216h551zM436 92q115 0 198 70t83 192v78h-289q-225 0 -225 -166q0 -174 233 -174zM717 610q-1 104 -65 165
t-160 61t-148 -24q-51 -24 -92 -67t-67 -43t-43 18t-17 38q0 22 10 39q102 161 339 161t325 -163q106 164 334 163q115 0 197 -40t122 -107q70 -118 71 -232t-34 -136q-18 -11 -47 -11h-598q0 -154 83 -246t219 -92t253 88q46 30 79 -5q17 -17 17 -42t-22 -47
q-115 -115 -320 -115q-289 0 -367 203q-102 -203 -362 -203q-164 0 -259 77t-95 213t95 210t263 74h289v63z" />
    <glyph glyph-name="Aringacute" unicode="&#x1fa;" horiz-adv-x="1261" 
d="M561 1782q-30 -31 -62 -4t-5 61l182 221q33 41 77 0t7 -78zM629 1640q-70 0 -99 -30q-28 -30 -28 -91q0 -62 29 -94q30 -31 98 -31q67 0 97 32q30 30 30 92t-28 92t-99 30zM872 535l-243 626l-242 -626h485zM127 -16q-29 0 -49 20q-36 36 -15 80l490 1241
q-137 33 -137 193q0 200 213 200t213 -200q0 -160 -137 -193l491 -1241q6 -16 6 -38t-20 -42t-60 -20t-59 47l-148 377h-571l-149 -375q-18 -49 -68 -49z" />
    <glyph glyph-name="aringacute" unicode="&#x1fb;" horiz-adv-x="956" 
d="M399 1456q-30 -31 -62 -4t-5 61l182 222q33 41 77 0t7 -78zM473 1079q127 0 127 123q0 63 -28 93t-99 30t-99 -30t-28 -93q0 -123 127 -123zM473 1001q-213 0 -213 201t213 201t213 -201t-213 -201zM436 92q115 0 198 70t83 192v86h-289q-104 0 -164 -44t-61 -130
q0 -174 233 -174zM717 610q-1 104 -65 165t-193 61t-221 -105q-27 -29 -53 -29t-43 18t-17 38q0 22 10 39q102 162 340 161q177 0 273 -94t96 -254v-563q0 -27 -18 -45t-46 -18q-27 0 -45 18t-18 45v74q-37 -70 -117 -109t-176 -39q-164 0 -259 77t-95 214t96 214t262 77
h289v55z" />
    <glyph glyph-name="AEacute" unicode="&#x1fc;" horiz-adv-x="1722" 
d="M1124 1487q-30 -31 -62 -4t-5 61l182 221q33 41 77 0t7 -77zM825 535v573l-358 -573h358zM1575 0h-680q-29 0 -49 20t-21 50v338h-432l-243 -392q-18 -32 -54 -32t-56 22q-22 22 -22 44q0 23 15 46l803 1250q23 33 59 32h657q27 0 45 -18q19 -18 19 -45t-18 -45t-46 -19
h-587v-493h450q27 0 45 -18t18 -46q0 -27 -18 -45t-45 -18h-450v-504h610q27 0 45 -18q18 -17 18 -45t-18 -46t-45 -18z" />
    <glyph glyph-name="aeacute" unicode="&#x1fd;" horiz-adv-x="1593" 
d="M758 1106q-31 -31 -63 -4t-5 61l182 221q33 41 77 0t7 -77zM1395 547q0 293 -262 293q-131 0 -205 -77t-84 -216h551zM436 92q115 0 198 70t83 192v78h-289q-225 0 -225 -166q0 -174 233 -174zM717 610q-1 104 -65 165t-160 61t-148 -24q-51 -24 -92 -67t-67 -43t-43 18
t-17 38q0 22 10 39q102 161 339 161t325 -163q106 164 334 163q115 0 197 -40t122 -107q70 -118 71 -232t-34 -136q-18 -11 -47 -11h-598q0 -154 83 -246t219 -92t253 88q46 30 79 -5q17 -17 17 -42t-22 -47q-115 -115 -320 -115q-289 0 -367 203q-102 -203 -362 -203
q-164 0 -259 77t-95 213t95 210t263 74h289v63z" />
    <glyph glyph-name="Oslashacute" unicode="&#x1fe;" horiz-adv-x="1452" 
d="M674 1487q-31 -31 -63 -4t-5 61l182 221q33 41 77 0t7 -77zM1219 670q0 278 -101 426l-710 -899q121 -98 317 -99q240 0 367 148q127 146 127 424zM725 1280q-240 0 -366 -147t-126 -427t101 -427l710 899q-124 102 -319 102zM725 -29q-250 0 -401 119l-97 -123
q-16 -20 -40 -20t-40 16q-16 17 -16 37t10 33l105 131q-156 184 -156 533t166 529t469 181q246 0 403 -121l95 119q16 20 40 20t40 -16q16 -17 16 -37t-10 -33l-101 -127q154 -186 154 -532t-166 -528t-471 -181z" />
    <glyph glyph-name="oslashacute" unicode="&#x1ff;" horiz-adv-x="1003" 
d="M471 1069q-30 -31 -62 -4t-6 61l183 222q33 41 77 0t7 -78zM205 467q0 -121 31 -201l469 500q-78 74 -203 74q-297 0 -297 -373zM502 92q297 0 297 375q0 125 -35 207l-471 -504q72 -78 209 -78zM490 958q194 0 303 -98l75 82q16 16 39 16t38 -16t15 -38t-16 -38l-84 -88
q72 -119 72 -311q0 -246 -113 -370t-309 -124t-305 103l-74 -78q-13 -14 -35 -14t-39 16q-16 16 -16 38t16 38l80 86q-66 119 -65 305q0 246 112 369q112 122 306 122z" />
    <glyph glyph-name="Scommaaccent" unicode="&#x218;" horiz-adv-x="1142" 
d="M535 -516q-27 0 -27 27q0 10 8 18q59 59 59 133q0 35 -36 80q-37 45 -37 84q0 88 88 88t88 -108t-28 -178q-28 -69 -93 -134q-10 -10 -22 -10zM575 1280q-153 0 -225 -63t-72 -157t80 -156q80 -60 194 -96t228 -80t193 -133q80 -89 80 -226q0 -193 -127 -295t-365 -103
q-166 0 -294 73t-183 179q-10 20 -10 42t18 41q18 20 51 20t54 -33q119 -195 364 -195q170 0 261 69t91 202q0 88 -57 149t-143 91q-87 30 -187 66t-186 73q-86 36 -143 116t-58 193q0 152 112 251t324 99q143 0 259 -56t180 -155q12 -18 12 -42t-19 -43t-49 -19t-51 26
q-131 162 -332 162z" />
    <glyph glyph-name="scommaaccent" unicode="&#x219;" horiz-adv-x="868" 
d="M375 -516q-27 0 -27 27q0 10 8 18q59 59 60 133q0 35 -37 80t-37 84q0 88 88 88t88 -108t-28 -178q-28 -69 -93 -134q-10 -10 -22 -10zM424 831q-182 0 -182 -122q0 -103 189 -163q79 -26 159 -57t135 -92t55 -151q0 -133 -97 -202t-233 -69t-229 45q-94 45 -139 103
q-14 20 -14 42t17 39t42 17t45 -20q100 -100 260 -101q96 0 157 35q60 35 60 101t-55 105q-55 37 -135 63t-159 57t-134 93t-55 170t87 170t226 62q213 0 311 -131q15 -18 15 -41t-18 -40t-42 -17q-25 0 -43 18q-90 86 -223 86z" />
    <glyph glyph-name="dotlessj" unicode="&#x237;" horiz-adv-x="397" 
d="M133 -72v953q-1 29 19 47t47 18t46 -18t19 -47v-953q0 -131 -85 -219t-214 -88q-27 -1 -44 17t-17 45t17 44t44 17q74 0 121 53t47 131z" />
    <glyph glyph-name="circumflex" unicode="&#x2c6;" horiz-adv-x="684" 
d="M144 1069q-20 0 -35 14t-15 37t19 37l196 162q17 12 33 12t33 -12l196 -162q19 -15 19 -37t-14 -36t-36 -15q-20 0 -32 12l-166 140l-166 -140q-12 -12 -32 -12z" />
    <glyph glyph-name="caron" unicode="&#x2c7;" horiz-adv-x="675" 
d="M540 1284q20 0 35 -14t15 -36t-19 -38l-196 -162q-17 -12 -33 -12t-33 12l-196 162q-19 16 -19 38t14 36t35 14q20 0 33 -12l166 -139l166 139q12 12 32 12z" />
    <glyph glyph-name="breve" unicode="&#x2d8;" horiz-adv-x="645" 
d="M322 1083q-100 -1 -166 51t-66 156q0 20 14 34t34 15q20 0 36 -14q14 -14 14 -35q0 -112 134 -112t133 112q0 20 14 34q15 14 35 15q20 0 34 -14t15 -35q1 -104 -65 -156t-166 -51z" />
    <glyph glyph-name="dotaccent" unicode="&#x2d9;" horiz-adv-x="567" 
d="M283 1114q-78 0 -78 81t78 81t78 -81t-78 -81z" />
    <glyph glyph-name="ring" unicode="&#x2da;" horiz-adv-x="546" 
d="M145 1229q0 -123 128 -123t126 123q0 63 -28 93q-29 30 -99 30t-98 -30t-29 -93zM272 1028q-213 0 -213 201t213 201t213 -201t-213 -201z" />
    <glyph glyph-name="ogonek" unicode="&#x2db;" horiz-adv-x="630" 
d="M244 -170q0 -55 30 -83t83 -28q52 1 81 13t43 12q13 0 27 -13t14 -35t-22 -36q-58 -35 -152 -35t-150 45t-57 129q0 127 142 201h100q-55 -23 -97 -69t-42 -101z" />
    <glyph glyph-name="tilde" unicode="&#x2dc;" horiz-adv-x="774" 
d="M266 1264q53 0 127 -40t120 -40t89 57q16 23 38 23t38 -14q14 -14 14 -32q0 -16 -6 -28q-53 -106 -178 -107q-53 0 -127 40t-120 40t-89 -57q-16 -23 -38 -23q-22 1 -38 15q-14 14 -14 30t6 29q53 107 178 107z" />
    <glyph glyph-name="hungarumlaut" unicode="&#x2dd;" horiz-adv-x="1001" 
d="M543 1069q-31 -31 -63 -4t-5 61l182 222q33 41 77 0t7 -78zM319 1069q-30 -31 -62 -4t-5 61l182 222q33 41 77 0t7 -78z" />
    <glyph glyph-name="Wgrave" unicode="&#x1e80;" horiz-adv-x="1675" 
d="M981 1544q27 -34 -5 -61t-63 4l-198 201q-37 38 7 78t77 -1zM476 -16q-54 0 -68 51l-363 1265q-4 16 -4 35t20 39t50 21q53 0 67 -52l299 -1058l293 1058q12 51 68 51t67 -51l293 -1058l299 1058q14 51 68 52q29 -1 49 -21t20 -38t-4 -36l-362 -1265q-14 -51 -68 -51
t-67 53l-295 1042l-295 -1042q-13 -53 -67 -53z" />
    <glyph glyph-name="wgrave" unicode="&#x1e81;" horiz-adv-x="1310" 
d="M809 1126q27 -34 -5 -61t-63 4l-198 201q-37 37 6 78q45 41 78 0zM406 -16q-48 0 -64 43l-301 825q-6 16 -6 37t19 39t55 18t53 -43l237 -678l195 678q12 43 61 43t62 -43l194 -678l238 678q16 43 52 43t61 -23t8 -71l-301 -825q-15 -43 -63 -43t-62 47l-189 649
l-188 -649q-13 -47 -61 -47z" />
    <glyph glyph-name="Wacute" unicode="&#x1e82;" horiz-adv-x="1675" 
d="M778 1487q-30 -31 -62 -4t-5 61l182 221q33 41 77 0t7 -77zM476 -16q-54 0 -68 51l-363 1265q-4 16 -4 35t20 39t50 21q53 0 67 -52l299 -1058l293 1058q12 51 68 51t67 -51l293 -1058l299 1058q14 51 68 52q29 -1 49 -21t20 -38t-4 -36l-362 -1265q-14 -51 -68 -51
t-67 53l-295 1042l-295 -1042q-13 -53 -67 -53z" />
    <glyph glyph-name="wacute" unicode="&#x1e83;" horiz-adv-x="1310" 
d="M612 1069q-30 -31 -62 -4t-5 61l182 222q33 41 77 0t7 -78zM406 -16q-48 0 -64 43l-301 825q-6 16 -6 37t19 39t55 18t53 -43l237 -678l195 678q12 43 61 43t62 -43l194 -678l238 678q16 43 52 43t61 -23t8 -71l-301 -825q-15 -43 -63 -43t-62 47l-189 649l-188 -649
q-13 -47 -61 -47z" />
    <glyph glyph-name="Wdieresis" unicode="&#x1e84;" horiz-adv-x="1675" 
d="M999 1518q-73 0 -73 76t74 77q74 -1 73 -77q0 -76 -74 -76zM678 1518q-74 0 -74 76t74 77q74 -1 74 -77t-74 -76zM476 -16q-54 0 -68 51l-363 1265q-4 16 -4 35t20 39t50 21q53 0 67 -52l299 -1058l293 1058q12 51 68 51t67 -51l293 -1058l299 1058q14 51 68 52
q29 -1 49 -21t20 -38t-4 -36l-362 -1265q-14 -51 -68 -51t-67 53l-295 1042l-295 -1042q-13 -53 -67 -53z" />
    <glyph glyph-name="wdieresis" unicode="&#x1e85;" horiz-adv-x="1310" 
d="M817 1094q-74 0 -74 76t74 77q74 -1 74 -77t-74 -76zM496 1094q-74 0 -74 76t74 77q74 -1 74 -77t-74 -76zM406 -16q-48 0 -64 43l-301 825q-6 16 -6 37t19 39t55 18t53 -43l237 -678l195 678q12 43 61 43t62 -43l194 -678l238 678q16 43 52 43t61 -23t8 -71l-301 -825
q-15 -43 -63 -43t-62 47l-189 649l-188 -649q-13 -47 -61 -47z" />
    <glyph glyph-name="Ygrave" unicode="&#x1ef2;" 
d="M633 1544q27 -34 -5 -61t-63 4l-198 201q-37 38 7 78t77 -1zM530 -16q-29 0 -49 20t-20 49v588l-412 647q-10 16 -10 41t20 45q21 20 55 20t54 -32l362 -582l363 582q20 33 54 33q34 -1 54 -21q39 -40 11 -86l-412 -647v-588q0 -29 -20 -49t-50 -20z" />
    <glyph glyph-name="ygrave" unicode="&#x1ef3;" horiz-adv-x="897" 
d="M537 1126q26 -34 -6 -61t-62 4l-199 201q-37 37 6 78q45 41 78 0zM10 -350q0 61 78 61t134 44t111 168q15 34 48 116l-342 813q-6 18 -6 38t18 38t55 18t54 -43l289 -706l288 706q15 43 53 43q74 0 74 -65q0 -10 -6 -29l-403 -961q-66 -155 -154 -229t-229 -74
q-27 0 -44 18t-18 44z" />
    <glyph glyph-name="thinspace" unicode="&#x2009;" horiz-adv-x="28" 
 />
    <glyph glyph-name="endash" unicode="&#x2013;" horiz-adv-x="1196" 
d="M985 578q0 -23 -16 -39t-39 -17h-664q-23 0 -39 16t-16 40q0 22 16 38t39 17h664q23 0 39 -16t16 -39z" />
    <glyph glyph-name="emdash" unicode="&#x2014;" horiz-adv-x="1880" 
d="M1669 578q0 -23 -16 -39t-39 -17h-1348q-23 0 -39 16t-16 40q0 22 16 38t39 17h1348q23 0 39 -16t16 -39z" />
    <glyph glyph-name="quoteleft" unicode="&#x2018;" horiz-adv-x="315" 
d="M59 1016q0 213 148 366q12 12 26 13q31 0 31 -31q0 -8 -6 -18q-76 -104 -76 -187q0 -39 37 -86t37 -90q0 -98 -96 -98q-101 0 -101 131z" />
    <glyph glyph-name="quoteright" unicode="&#x2019;" horiz-adv-x="315" 
d="M256 1264q0 -213 -147 -367q-12 -12 -27 -12q-31 0 -31 30q0 10 6 19q76 104 76 186q0 39 -37 86t-37 90q0 98 97 99q100 0 100 -131z" />
    <glyph glyph-name="quotesinglbase" unicode="&#x201a;" horiz-adv-x="366" 
d="M264 47q0 -213 -147 -366q-12 -12 -27 -13q-31 0 -31 31q0 10 7 18q76 104 75 187q0 39 -37 86t-36 90q0 98 98 98t98 -131z" />
    <glyph glyph-name="quotedblleft" unicode="&#x201c;" horiz-adv-x="598" 
d="M342 1016q0 213 147 366q12 12 27 13q31 0 31 -31q0 -8 -6 -18q-76 -104 -76 -187q0 -39 37 -86t37 -90q-1 -98 -99 -98t-98 131zM59 1016q0 213 148 366q12 12 26 13q31 0 31 -31q0 -8 -6 -18q-76 -104 -76 -187q0 -39 37 -86t37 -90q0 -98 -96 -98q-101 0 -101 131z
" />
    <glyph glyph-name="quotedblright" unicode="&#x201d;" horiz-adv-x="598" 
d="M256 1264q0 -213 -147 -367q-12 -12 -27 -12q-31 0 -31 30q0 10 6 19q76 104 76 186q0 39 -37 86t-37 90q0 98 97 99q100 0 100 -131zM539 1264q0 -213 -148 -367q-12 -12 -26 -12q-31 0 -31 30q0 10 6 19q76 104 76 186q0 39 -37 86t-37 90q0 98 96 99q101 0 101 -131z
" />
    <glyph glyph-name="quotedblbase" unicode="&#x201e;" horiz-adv-x="641" 
d="M256 47q0 -213 -147 -366q-12 -12 -27 -13q-31 0 -31 31q0 10 6 18q76 104 76 187q0 39 -37 86t-37 90q1 98 99 98t98 -131zM539 47q0 -213 -148 -366q-12 -12 -26 -13q-31 0 -31 31q0 10 6 18q76 104 76 187q0 39 -37 86t-37 90q0 98 96 98q101 0 101 -131z" />
    <glyph glyph-name="dagger" unicode="&#x2020;" horiz-adv-x="897" 
d="M449 -307q-41 0 -41 35l-11 1228h-231q-41 0 -41 50t41 51h231l-4 350q-1 51 55 51t56 -51l-4 -350h231q41 0 41 -50t-41 -51h-231l-11 -1228q1 -35 -40 -35z" />
    <glyph glyph-name="daggerdbl" unicode="&#x2021;" horiz-adv-x="897" 
d="M166 956q-41 0 -41 50t41 51h231l-4 350q-1 51 55 51t56 -51l-4 -350h231q41 0 41 -50t-41 -51h-231l-6 -432l6 -432h231q41 0 41 -50t-41 -50h-231l4 -350q0 -52 -55 -52t-56 52l4 350h-231q-41 0 -41 50t41 50h231l6 432l-6 432h-231z" />
    <glyph glyph-name="bullet" unicode="&#x2022;" horiz-adv-x="856" 
d="M428 305q-266 1 -266 273t266 272t266 -272t-266 -273z" />
    <glyph glyph-name="perthousand" unicode="&#x2030;" horiz-adv-x="2205" 
d="M1822 641q156 0 228 -91t72 -243q0 -153 -72 -243t-228 -90t-229 90q-71 92 -71 244t71 242q72 91 229 91zM1822 68q198 0 198 240t-198 239q-198 1 -198 -239t198 -240zM1144 641q156 0 228 -91t72 -243q0 -153 -72 -243t-228 -90t-229 90q-71 92 -71 244t71 242
q72 91 229 91zM1144 68q198 0 198 240t-198 239q-198 1 -198 -239t198 -240zM86 1073q0 152 72 243t228 91t228 -91t72 -243t-72 -243t-228 -91t-228 91t-72 243zM386 834q198 0 198 240t-198 239q-198 1 -198 -239t198 -240zM1092 1395q27 1 41 -15t14 -32t-4 -25
l-668 -1313q-13 -26 -39 -26q-58 1 -57 51q0 12 4 20l668 1313q14 27 41 27z" />
    <glyph glyph-name="guilsinglleft" unicode="&#x2039;" horiz-adv-x="751" 
d="M158 434q0 18 14 37l334 393q14 18 36 18t36 -14t14 -33t-14 -36l-314 -365l314 -364q14 -16 14 -36t-14 -34t-36 -14t-36 18l-334 393q-14 19 -14 37z" />
    <glyph glyph-name="guilsinglright" unicode="&#x203a;" horiz-adv-x="751" 
d="M594 434q0 -18 -14 -37l-334 -393q-16 -18 -36 -18t-36 14q-14 14 -14 34t14 36l313 364l-313 365q-14 15 -14 35t14 34t34 14t38 -18l334 -393q14 -19 14 -37z" />
    <glyph glyph-name="fraction" unicode="&#x2044;" horiz-adv-x="641" 
d="M563 1395q31 -1 47 -17t16 -36t-3 -23l-502 -1299q-8 -37 -51 -36q-23 0 -45 22t-7 53l504 1303q10 33 41 33z" />
    <glyph glyph-name="zerosuperior" unicode="&#x2070;" horiz-adv-x="610" 
d="M305 858q-254 0 -254 318t254 319q254 -1 254 -319t-254 -318zM305 954q145 0 145 222t-144 223q-146 -1 -146 -223t145 -222z" />
    <glyph glyph-name="foursuperior" unicode="&#x2074;" horiz-adv-x="532" 
d="M311 1100v196l-137 -196h137zM418 1100h33q20 0 34 -14q15 -14 15 -35t-14 -35t-35 -15h-33v-83q0 -20 -16 -36q-37 -37 -74 -1q-16 16 -17 37v83h-227q-20 1 -34 15t-15 34q0 20 12 33l275 383q18 23 40 23t39 -15q16 -15 17 -38v-336z" />
    <glyph glyph-name="fivesuperior" unicode="&#x2075;" horiz-adv-x="534" 
d="M256 1272q100 0 165 -50t65 -154t-63 -158q-62 -54 -167 -54q-150 0 -219 117q-10 15 -10 33t13 31t37 13t42 -28q43 -68 137 -68q57 0 89 31t32 81t-32 81t-89 31q-56 0 -102 -20t-61 -21q-15 0 -31 16t-7 59l39 222q8 45 51 45h273q20 -1 36 -15t15 -37q0 -23 -15 -37
t-36 -14h-234l-20 -121q37 17 92 17z" />
    <glyph glyph-name="sixsuperior" unicode="&#x2076;" horiz-adv-x="563" 
d="M284 954q62 0 94 31t32 82t-35 80t-81 29t-81 -23t-49 -63q0 -56 28 -96q30 -40 92 -40zM298 1268q94 0 154 -51t60 -151t-62 -154t-163 -54q-236 0 -236 305q0 168 68 250t175 82t159 -43q18 -14 18 -36t-13 -36q-14 -14 -30 -14t-49 16t-85 17q-52 0 -96 -49t-44 -146
q49 64 144 64z" />
    <glyph glyph-name="sevensuperior" unicode="&#x2077;" horiz-adv-x="479" 
d="M102 915q0 90 37 169t82 124q119 119 119 168h-268q-23 0 -37 14q-15 14 -15 38q0 22 14 36t38 15h329q19 -1 35 -15t17 -37q0 -105 -86 -204q-35 -39 -71 -79q-89 -99 -87 -229q0 -23 -15 -39t-37 -16q-23 0 -39 16t-16 39z" />
    <glyph glyph-name="eightsuperior" unicode="&#x2078;" horiz-adv-x="555" 
d="M276 1153q-123 0 -122 -100q0 -99 122 -99t123 100q0 100 -123 99zM276 1399q-104 0 -104 -77t104 -77t105 78q-1 76 -105 76zM276 858q-231 0 -231 195q0 106 98 149q-75 33 -75 119t57 130t151 44t152 -44t57 -130q0 -86 -75 -119q98 -43 98 -149q-1 -195 -232 -195z
" />
    <glyph glyph-name="ninesuperior" unicode="&#x2079;" horiz-adv-x="563" 
d="M280 1399q-62 0 -95 -31q-31 -31 -31 -82t34 -80q34 -28 81 -28q46 0 81 22t49 64q0 55 -28 95q-29 40 -91 40zM265 1085q-95 -1 -154 51t-59 152t62 154t162 53q236 0 236 -305q0 -168 -68 -250t-175 -82t-158 43q-19 15 -19 37t13 36t29 13t50 -17q33 -16 85 -16
q53 0 97 50t44 145q-50 -64 -145 -64z" />
    <glyph glyph-name="zeroinferior" unicode="&#x2080;" horiz-adv-x="610" 
d="M305 -117q-254 1 -254 319t254 318t254 -318t-254 -319zM305 -20q145 0 145 222t-144 222q-146 0 -146 -222t145 -222z" />
    <glyph glyph-name="oneinferior" unicode="&#x2081;" horiz-adv-x="401" 
d="M259 518q20 0 35 -15t15 -38v-518q0 -21 -15 -37t-38 -16t-38 16t-15 37v426l-62 -43q-41 -32 -72 1q-15 15 -15 39t24 40l147 98q14 10 34 10z" />
    <glyph glyph-name="twoinferior" unicode="&#x2082;" horiz-adv-x="544" 
d="M162 -6h276q20 0 34 -14t15 -34q0 -20 -14 -36q-14 -14 -35 -14h-342q-20 0 -35 14q-14 14 -14 35q0 80 53 140q54 60 116 89q170 79 169 164q0 38 -30 62q-29 24 -95 24t-106 -59q-16 -21 -38 -21t-35 13t-13 29t4 26q45 109 198 108q102 0 162 -48t60 -124t-52 -131
t-113 -85q-165 -80 -165 -138z" />
    <glyph glyph-name="threeinferior" unicode="&#x2083;" horiz-adv-x="526" 
d="M479 80q0 -86 -59 -141t-190 -55t-195 118q-8 16 -8 32t13 30t37 14t40 -27q41 -70 125 -69q129 0 129 106q0 98 -123 98h-45q-21 0 -35 14t-14 34t12 34l127 138h-191q-20 0 -35 14t-16 37t15 37t36 14h295q19 0 35 -14t16 -38t-14 -36l-139 -144q94 0 139 -55t45 -141z
" />
    <glyph glyph-name="fourinferior" unicode="&#x2084;" horiz-adv-x="532" 
d="M311 129v197l-137 -197h137zM418 129h33q20 0 34 -14q15 -15 15 -35t-14 -34t-35 -15h-33v-84q0 -21 -16 -37t-37 -16q-20 0 -37 16q-16 16 -17 37v84h-227q-20 0 -35 14q-14 13 -14 33t12 35l275 383q18 22 40 22t39 -15q16 -15 17 -38v-336z" />
    <glyph glyph-name="fiveinferior" unicode="&#x2085;" horiz-adv-x="536" 
d="M256 297q100 0 165 -50q65 -49 65 -153t-63 -158q-62 -54 -167 -55q-150 0 -219 117q-10 16 -10 34t13 30q13 14 37 14t42 -29q43 -68 137 -67q57 0 89 30t32 81q0 50 -32 81t-89 31q-56 -1 -102 -21t-61 -20t-31 16t-7 60l39 221q8 45 51 45h273q20 0 36 -14t15 -38
q0 -22 -15 -36t-36 -15h-234l-20 -120q37 16 92 16z" />
    <glyph glyph-name="sixinferior" unicode="&#x2086;" horiz-adv-x="563" 
d="M284 -20q62 0 94 30t32 82q0 51 -35 80t-81 29t-81 -23t-49 -63q0 -55 28 -95q30 -40 92 -40zM298 293q94 0 154 -51q60 -52 60 -152t-62 -153t-163 -54q-236 0 -236 305q0 168 68 250t175 82t159 -43q18 -15 18 -37t-13 -36q-14 -14 -30 -13t-49 17t-85 16t-96 -49
t-44 -146q49 64 144 64z" />
    <glyph glyph-name="seveninferior" unicode="&#x2087;" horiz-adv-x="479" 
d="M102 -55q0 90 37 169t82 124q119 119 119 168h-268q-23 0 -37 14t-15 37q0 23 14 37t38 14h329q19 0 35 -14t17 -37q0 -106 -86 -205q-35 -39 -71 -79q-89 -99 -87 -228q0 -23 -15 -39t-37 -16q-23 0 -39 16t-16 39z" />
    <glyph glyph-name="eightinferior" unicode="&#x2088;" horiz-adv-x="555" 
d="M276 178q-123 0 -122 -100q0 -98 122 -98t123 99q0 99 -123 99zM276 424q-104 0 -104 -77t104 -77t105 78q-1 76 -105 76zM276 -117q-231 0 -231 195q0 106 98 149q-75 33 -75 119t57 130t151 44t152 -44t57 -130q0 -86 -75 -119q98 -43 98 -149q-1 -195 -232 -195z" />
    <glyph glyph-name="nineinferior" unicode="&#x2089;" horiz-adv-x="563" 
d="M280 424q-62 0 -95 -31q-31 -31 -31 -82t34 -80t81 -29q46 0 81 24q35 22 49 63q0 55 -28 95q-29 40 -91 40zM265 111q-95 0 -154 51t-59 151q0 99 62 153t162 54q236 0 236 -305q0 -168 -68 -250t-175 -82t-158 43q-19 16 -19 38t13 34q13 14 29 14t50 -16
q33 -16 85 -16t97 49q44 49 44 145q-50 -63 -145 -63z" />
    <glyph glyph-name="Euro" unicode="&#x20ac;" horiz-adv-x="1292" 
d="M580 489h-330q70 -391 479 -391q107 0 203 43t153 125q19 27 51 27q32 1 50 -19t18 -44t-12 -42q-68 -98 -195 -157t-268 -60q-541 0 -625 518h-69q-23 1 -39 17t-16 39t16 39t39 16h57q-2 29 -2 84t2 80h-57q-23 0 -39 16t-16 39t16 39t39 16h69q41 264 203 398t422 135
q145 0 266 -58t195 -159q14 -20 14 -46t-18 -44t-49 -18t-52 26q-55 76 -150 124t-206 48q-406 0 -481 -406h332q22 0 38 -16t16 -39t-16 -39t-38 -16h-344q-8 -95 0 -164h344q22 0 38 -16t16 -39t-15 -39q-16 -16 -39 -17z" />
    <glyph glyph-name="numero" unicode="&#x2116;" horiz-adv-x="2183" 
d="M1796 526q-147 0 -227 89t-80 263t80 264q80 89 227 89t227 -89t80 -263q0 -173 -80 -263t-227 -90zM1796 225q-78 0 -78 79t78 79t78 -79t-78 -79zM1796 637q184 0 184 242t-184 241q-184 0 -184 -242t184 -241zM1276 1395q27 1 47 -19t20 -49v-1276q0 -27 -20 -47
t-49 -20t-51 26l-930 1129v-1088q1 -27 -19 -47t-49 -20t-48 20t-19 47v1276q0 29 19 48t50 19t49 -24l932 -1130v1087q0 29 20 49t48 19z" />
    <glyph glyph-name="trademark" unicode="&#x2122;" horiz-adv-x="827" 
d="M602 1038q-20 0 -31 17l-65 112v-174q0 -14 -11 -25q-26 -26 -52 0q-11 11 -11 25v312q0 14 11 25t30 11t31 -22l98 -176l98 176q12 23 30 23t30 -12q12 -11 12 -25v-312q0 -14 -11 -25q-27 -27 -51 0q-11 11 -12 25v174l-65 -112q-11 -17 -31 -17zM88 1335h252
q14 0 24 -10q10 -11 11 -25q0 -14 -10 -24t-25 -10h-86v-271q0 -16 -12 -27q-29 -26 -55 0q-11 11 -11 27v271h-88q-14 0 -25 10q-10 10 -10 24t10 25q11 10 25 10z" />
    <glyph glyph-name="minus" unicode="&#x2212;" horiz-adv-x="929" 
d="M930 446q0 -22 -16 -38t-40 -17h-819q-23 1 -39 17t-16 38t16 39q16 16 39 17h819q24 0 40 -16t16 -40z" />
    <glyph glyph-name="radical" unicode="&#x221a;" horiz-adv-x="1103" 
d="M504 -350q-41 0 -58 35l-350 794q-4 8 -4 27t18 36t48 17q31 0 45 -33l286 -678l406 1567q10 43 55 43q25 0 46 -21t12 -55l-453 -1695q-10 -37 -51 -37z" />
    <glyph glyph-name="notequal" unicode="&#x2260;" horiz-adv-x="929" 
d="M930 289q0 -23 -16 -39t-40 -17h-516l-59 -88q-10 -16 -29 -16q-33 0 -32 33q0 8 4 16l37 55h-224q-23 1 -39 17t-16 39t16 39t39 16h299l140 203h-439q-23 0 -39 16t-16 39t16 39t39 16h514l64 91q10 16 29 16q33 0 32 -33q0 -8 -4 -16l-41 -58h225q23 0 39 -16
q17 -16 17 -39t-16 -39t-40 -16h-301l-139 -203h440q24 0 40 -16t16 -39z" />
    <glyph glyph-name="lessequal" unicode="&#x2264;" horiz-adv-x="690" 
d="M0 588q0 29 27 47l575 348q16 10 36 10t36 -16t16 -43t-26 -43l-529 -303l529 -303q26 -16 26 -43t-16 -43q-32 -32 -72 -6l-575 348q-27 18 -27 47zM690 55q0 -23 -16 -39t-39 -16h-580q-23 0 -39 16t-16 39t16 39t39 17h580q23 -1 39 -17t16 -39z" />
    <glyph glyph-name="greaterequal" unicode="&#x2265;" horiz-adv-x="690" 
d="M0 934q0 27 16 43t36 16t36 -10l576 -348q26 -18 26 -47t-26 -47l-576 -348q-42 -26 -72 6q-16 16 -16 43t27 43l528 303l-528 303q-27 16 -27 43zM0 55q0 23 16 39t39 17h580q23 -1 39 -17t16 -39t-16 -39t-39 -16h-580q-23 0 -39 16t-16 39z" />
    <glyph glyph-name="commaaccent" unicode="&#xf6c3;" horiz-adv-x="288" 
d="M88 -516q-27 0 -27 27q0 10 9 18q59 59 59 133q0 35 -37 80t-37 84q0 88 88 88t88 -108q1 -108 -27 -178q-28 -69 -93 -134q-10 -10 -23 -10z" />
    <glyph glyph-name="s_t" unicode="&#xfb06;" horiz-adv-x="1400" 
d="M1251 106q76 0 76 -61q0 -27 -18 -44t-45 -17q-119 0 -185 72t-65 186v565h-80q-27 0 -44 17t-18 44q0 27 18 44t44 18h80v86q0 281 -236 280q-96 0 -153 -48t-57 -125t40 -136q41 -60 78 -103q37 -44 50 -60q14 -16 14 -40q0 -23 -18 -40t-42 -17q-25 0 -43 18
q-90 86 -223 86q-182 0 -182 -122q0 -103 189 -163q79 -26 159 -57t135 -92t55 -151q0 -133 -97 -202t-233 -69t-229 45q-94 45 -139 103q-14 20 -14 42t17 39t42 17t45 -20q100 -100 260 -101q96 0 157 35q60 35 60 101t-55 105q-55 37 -135 63t-159 57t-134 93t-55 170
t87 170q88 62 202 62t196 -30q-113 122 -113 232t84 180t215 69q184 0 274 -105t89 -282v-90h133q27 0 44 -18t17 -44q0 -27 -17 -44t-44 -17h-133v-565q0 -64 33 -100t73 -36z" />
    <glyph glyph-name="zero.tab" horiz-adv-x="1212" 
d="M606 1407q258 0 382 -174t124 -543t-124 -544t-382 -175t-382 175t-124 544t124 543t382 174zM606 94q193 0 282 140t89 456t-89 454q-89 140 -282 140q-194 0 -282 -139t-88 -455t88 -456t282 -140z" />
    <glyph glyph-name="one.tab" horiz-adv-x="1212" 
d="M257 940q-24 0 -43 19t-19 51t28 51l430 319q49 34 88 -5q20 -19 21 -48v-1276q0 -27 -20 -47t-48 -20q-27 0 -47 20t-20 47v1155l-328 -254q-18 -12 -42 -12z" />
    <glyph glyph-name="two.tab" horiz-adv-x="1212" 
d="M608 1407q203 0 321 -109t118 -290q-1 -115 -57 -218q-56 -102 -140 -174q-164 -140 -364 -261q-199 -120 -199 -228h714q27 0 45 -18q18 -17 19 -45q0 -28 -18 -46t-46 -18h-790q-27 0 -45 18t-19 45q0 125 79 227t191 175q111 75 223 147t190 172t79 224q0 124 -80 200
t-221 76q-205 0 -291 -188q-18 -41 -52 -41t-52 18t-18 37t4 31q43 127 148 197t261 69z" />
    <glyph glyph-name="three.tab" horiz-adv-x="1212" 
d="M633 836q231 0 333 -124t101 -323q0 -199 -121 -309t-352 -109q-301 0 -440 232q-10 16 -10 39t16 40q18 17 49 17t51 -33q104 -172 334 -172q168 0 253 77t85 222q0 319 -309 320h-144q-27 0 -44 17t-17 42t16 45l377 438h-528q-27 -1 -44 17t-18 45t17 44t45 17h667
q27 0 44 -17q18 -17 18 -43t-17 -44l-383 -438h21z" />
    <glyph glyph-name="four.tab" horiz-adv-x="1212" 
d="M778 444v689l-479 -689h479zM913 444h117q29 0 47 -17q19 -17 19 -44t-20 -46t-46 -20h-117v-266q0 -27 -20 -47t-47 -20t-47 20t-21 47v266h-598q-27 1 -45 19t-18 42t14 44l660 942q20 29 51 29q31 -1 51 -21t20 -47v-881z" />
    <glyph glyph-name="five.tab" horiz-adv-x="1212" 
d="M626 913q200 1 329 -117q128 -118 128 -354t-128 -354t-347 -117q-166 0 -288 72t-185 205q-8 16 -8 37t18 39t50 18t53 -35q66 -111 150 -160t226 -49t233 85t91 259t-92 260t-248 86q-110 0 -184 -28t-143 -96q-27 -27 -55 -27t-46 18q-18 19 -18 35t4 37l119 602
q4 17 20 33t41 16h623q27 0 45 -18t18 -45t-18 -45t-45 -19h-578l-82 -420q117 82 317 82z" />
    <glyph glyph-name="six.tab" horiz-adv-x="1212" 
d="M610 94q342 0 342 338q0 168 -91 250t-238 82q-227 0 -353 -223q0 -201 89 -324t251 -123zM623 887q211 0 338 -115q127 -114 127 -346t-128 -344q-126 -112 -361 -111t-355 185t-119 501q0 750 514 750q113 0 201 -34t129 -79q20 -20 20 -47t-18 -45q-17 -18 -41 -18
t-47 16q-113 84 -244 84q-379 0 -379 -577q48 72 144 126t219 54z" />
    <glyph glyph-name="seven.tab" horiz-adv-x="1212" 
d="M336 49q0 188 59 352t145 277q85 113 170 208t144 188t59 177h-690q-27 1 -45 19t-18 45t18 45t45 18h764q27 0 45 -18t19 -45q0 -177 -116 -338q-53 -71 -115 -143q-147 -168 -237 -322q-116 -196 -116 -463q0 -29 -18 -47q-17 -18 -47 -18t-48 18t-18 47z" />
    <glyph glyph-name="eight.tab" horiz-adv-x="1212" 
d="M606 686q-166 0 -255 -74t-89 -222t92 -222t252 -74t252 74t92 222t-89 222t-255 74zM889 1050q0 234 -283 234q-135 0 -209 -58q-73 -58 -73 -176t74 -180q75 -61 208 -61t208 61q75 62 75 180zM606 -29q-219 0 -349 108t-130 310q0 131 63 226t179 139
q-181 96 -181 286t112 278q112 89 306 89t306 -89q112 -88 112 -278t-180 -286q115 -42 178 -138t63 -227q0 -203 -130 -311t-349 -107z" />
    <glyph glyph-name="nine.tab" horiz-adv-x="1212" 
d="M602 1284q-342 0 -342 -338q0 -168 91 -250t239 -82q227 0 352 224q0 202 -89 324t-251 122zM590 492q-211 0 -338 114t-127 346t127 344q128 112 362 111q234 0 354 -184t119 -502q0 -750 -514 -750q-113 0 -201 34q-147 57 -149 126q1 27 19 45q39 38 88 2
q113 -84 243 -84q379 0 379 578q-49 -72 -144 -126t-218 -54z" />
    <glyph glyph-name="ornament.A" horiz-adv-x="1499" 
d="M913 1132q0 54 -48 111t-137 57t-136 -86q147 -117 309 -170q12 34 12 88zM182 1216q0 -36 24 -58q55 -51 126 20q16 12 37 12t35 -15t16 -38q0 -45 -54 -76t-121 -31t-122 55t-55 133t55 133q55 56 133 56q111 0 250 -119q84 119 217 119t219 -86t86 -205q0 -45 -14 -88
q46 -8 114 -8t128 36t60 101t-37 105q-38 40 -95 38q-24 0 -50 -12t-44 -12t-34 15t-16 41t23 42q43 33 134 33t163 -68q72 -67 72 -179t-90 -180t-226 -67q-76 0 -139 13q-43 -66 -115 -97q121 -1 201 -65t80 -162t-43 -154t-125 -80q-82 -23 -260 -49q-63 -8 -107 -41
q-43 -34 -43 -86t28 -76q28 -26 69 -26t61 22q21 22 25 46t24 46t57 21q91 0 91 -89t-81 -121q-81 -31 -187 -31t-210 61q-175 103 -254 355q-31 103 -30 200q0 162 88 281t252 118q131 0 213 -90q-111 -72 -174 -131q-146 -137 -146 -360q0 -55 4 -85q3 -30 23 -30t20 35
l-2 80q0 143 72 240t188 169t160 127q-121 31 -311 166q-25 18 -84 70q-125 111 -197 110q-38 0 -60 -24t-22 -60z" />
    <glyph glyph-name="zero.onum" horiz-adv-x="1249" 
d="M625 1130q241 0 377 -146t136 -432t-136 -432t-378 -146t-377 146q-136 146 -136 432t136 432t378 146zM625 96q381 0 381 456t-381 456t-381 -456t381 -456z" />
    <glyph glyph-name="one.onum" horiz-adv-x="745" 
d="M137 766q-23 0 -40 17t-17 47t26 49l324 223q26 16 50 16t42 -18t19 -47v-1004q-1 -29 -19 -47t-47 -18t-47 18t-18 47v889l-234 -162q-16 -10 -39 -10z" />
    <glyph glyph-name="two.onum" horiz-adv-x="1040" 
d="M950 795q0 -106 -73 -194q-73 -87 -179 -144t-212 -107t-179 -106q-74 -57 -74 -121h678q27 1 44 -17t17 -45t-16 -44q-18 -17 -45 -17h-753q-27 0 -44 17t-18 44q0 121 75 212t181 147t212 104q106 49 180 117q75 68 75 158t-75 149q-76 60 -198 60t-187 -45t-105 -134
q-16 -37 -50 -37q-67 1 -69 62q0 13 4 23q94 254 398 253q201 0 307 -93t106 -242z" />
    <glyph glyph-name="three.onum" horiz-adv-x="1089" 
d="M555 559q231 0 333 -124q102 -125 101 -323q0 -198 -121 -308t-352 -109q-301 0 -440 231q-10 16 -10 39t17 40t48 17t51 -32q104 -172 334 -172q168 0 253 77t85 222q0 319 -309 319h-144q-27 0 -44 18t-17 42q0 25 16 45l377 438h-528q-27 0 -44 17t-18 44t17 44t45 18
h667q27 0 44 -18q18 -18 18 -43q0 -26 -16 -44l-383 -438h20z" />
    <glyph glyph-name="four.onum" horiz-adv-x="1089" 
d="M711 178v686l-486 -686h486zM844 178h117q27 0 44 -17t17 -44t-17 -44t-44 -18h-117v-280q0 -29 -20 -48t-47 -19q-28 0 -47 18q-19 20 -19 49v280h-600q-27 -1 -44 17q-36 37 -4 86l660 932q23 28 53 28t48 -19q19 -19 20 -48v-873z" />
    <glyph glyph-name="five.onum" horiz-adv-x="1142" 
d="M596 637q200 0 329 -118q128 -117 128 -353t-128 -354t-347 -117q-166 0 -288 72t-186 204q-8 16 -8 37t18 39q18 19 51 19q32 0 52 -35q66 -111 150 -160q85 -49 227 -49t232 85t92 259q0 174 -92 260t-248 86q-111 0 -185 -29t-143 -96q-26 -27 -54 -27t-46 18t-18 36
q0 16 3 37l119 602q4 18 20 33t41 16h623q27 0 45 -18t18 -46q0 -27 -18 -45t-45 -18h-578l-81 -420q117 82 317 82z" />
    <glyph glyph-name="six.onum" horiz-adv-x="1159" 
d="M584 94q342 0 342 334q0 168 -90 248t-240 80q-227 0 -352 -224q0 -198 88 -318t252 -120zM596 879q211 0 338 -113q127 -114 127 -344t-127 -340q-126 -110 -362 -111t-355 181t-119 497q0 745 514 746q113 0 201 -34q147 -57 150 -126q-1 -27 -19 -45q-39 -38 -88 -2
q-113 84 -244 84q-379 0 -379 -574q49 72 145 126t218 55z" />
    <glyph glyph-name="seven.onum" horiz-adv-x="989" 
d="M227 -227q0 188 60 352q59 165 144 277t170 207q202 226 204 366h-690q-27 0 -45 18t-19 45q1 27 19 45t45 19h764q27 0 45 -18t18 -46q0 -221 -206 -456q-85 -98 -171 -204t-146 -264q-60 -157 -61 -341q0 -27 -19 -46t-46 -19t-47 18q-20 20 -19 47z" />
    <glyph glyph-name="eight.onum" horiz-adv-x="1126" 
d="M563 680q-344 0 -344 -295q0 -147 92 -219t252 -72t252 72t92 219q0 295 -344 295zM563 1270q-283 0 -282 -230q1 -119 75 -178t207 -59t208 59t75 178q0 230 -283 230zM563 -29q-221 -1 -350 105t-129 309q0 131 63 225t179 138q-180 96 -180 282t112 274q114 88 306 89
q192 0 304 -88t113 -275q0 -187 -180 -282q115 -44 178 -138t63 -225q0 -203 -129 -309t-350 -105z" />
    <glyph glyph-name="nine.onum" horiz-adv-x="1159" 
d="M575 1008q-342 0 -342 -334q1 -168 91 -248t239 -80q227 0 352 223q0 199 -88 319t-252 120zM563 223q-211 0 -338 113q-127 114 -127 344t127 340t363 110t354 -181q119 -181 119 -496q0 -745 -514 -746q-113 0 -201 34t-129 79q-20 20 -20 47t18 45q17 18 41 18t47 -16
q113 -84 244 -84q379 0 379 573q-48 -72 -144 -126t-219 -54z" />
    <glyph glyph-name="hyphen.case" horiz-adv-x="745" 
d="M633 690q-1 -23 -17 -39t-38 -16h-410q-23 0 -39 16t-16 39t16 39t39 16h410q23 0 39 -16t16 -39z" />
    <glyph glyph-name="parenleft.case" horiz-adv-x="602" 
d="M123 690q0 424 76 619t272 280q16 6 33 6t34 -17t17 -47t-37 -46q-126 -62 -182 -167q-55 -105 -66 -227q-16 -164 -16 -480q0 -315 39 -445t118 -201q44 -39 94 -62t50 -53t-17 -48q-18 -17 -34 -17t-33 6q-197 87 -273 281t-75 618z" />
    <glyph glyph-name="parenright.case" horiz-adv-x="602" 
d="M479 690q0 -424 -76 -618t-272 -281q-16 -6 -33 -6q-18 0 -34 17t-16 47t49 54q50 25 94 63q121 105 145 355q12 136 12 317t-4 327t-26 221q-23 74 -53 132q-54 104 -181 167q-37 16 -37 46q-1 30 17 47t34 17t33 -6q197 -87 273 -281t75 -618z" />
    <glyph glyph-name="bracketleft.case" horiz-adv-x="530" 
d="M489 -162q0 -23 -15 -38t-38 -15h-207q-29 0 -47 19t-18 46v1680q0 27 18 46t47 19h207q23 0 38 -15t15 -38t-15 -38t-38 -15h-141v-1598h141q23 0 38 -15t15 -38z" />
    <glyph glyph-name="bracketright.case" horiz-adv-x="530" 
d="M41 -162q0 23 16 38t37 15h142v1598h-142q-20 0 -37 15q-16 15 -16 38t16 38t37 15h207q27 0 46 -19t20 -46v-1680q1 -27 -19 -46t-47 -19h-207q-20 0 -37 15q-16 15 -16 38z" />
    <glyph glyph-name="braceleft.case" horiz-adv-x="692" 
d="M639 -158q0 -23 -17 -40t-40 -17q-145 0 -217 70t-72 170l24 430q0 111 -53 149t-151 39h-15q-20 0 -33 13q-13 14 -13 34t12 34q14 14 34 13h15q98 0 151 39t53 152q0 66 -12 192t-12 232q0 104 73 174t216 69q23 0 40 -17t17 -40t-17 -40t-40 -17q-152 0 -152 -150
l16 -387q0 -114 -64 -184t-183 -70q119 0 183 -70t64 -184l-16 -387q0 -150 152 -149q23 0 40 -18t17 -40z" />
    <glyph glyph-name="braceright.case" horiz-adv-x="692" 
d="M111 -215q-23 0 -41 17t-17 40q-1 23 17 40t41 18q152 0 151 149l-16 387q0 113 64 184q65 71 184 70q-119 0 -184 71t-64 183l16 387q0 150 -151 150q-23 0 -40 17t-18 40t17 40t41 17q143 1 216 -69t73 -174t-13 -232q-12 -127 -12 -192q0 -113 53 -152t152 -39h14
q20 0 34 -13q14 -14 13 -34q0 -20 -13 -34t-34 -13h-14q-98 0 -152 -39t-53 -149l24 -430q1 -100 -71 -170t-217 -70z" />
    <glyph glyph-name="guillemotleft.case" horiz-adv-x="1069" 
d="M475 690q0 18 14 37l334 393q17 18 37 18t34 -14t15 -33q0 -19 -14 -36l-313 -365l313 -364q14 -16 14 -36t-14 -34q-15 -14 -35 -14t-37 18l-334 393q-14 19 -14 37zM160 690q0 18 14 37l334 393q16 18 36 18t36 -14q14 -14 14 -33t-14 -36l-314 -365l314 -364
q14 -16 14 -36t-14 -34t-34 -14t-38 18l-334 393q-14 19 -14 37z" />
    <glyph glyph-name="guillemotright.case" horiz-adv-x="1069" 
d="M594 690q0 -18 -14 -37l-334 -393q-16 -18 -36 -18t-36 14q-14 14 -14 34t14 36l313 364l-313 365q-14 15 -14 35t14 34t34 14t38 -18l334 -393q14 -19 14 -37zM909 690q0 -18 -14 -37l-334 -393q-17 -18 -37 -18t-35 14q-14 14 -14 34t14 36l314 364l-314 365
q-14 15 -14 35t14 34q15 14 35 14t37 -18l334 -393q14 -19 14 -37z" />
    <glyph glyph-name="guilsinglleft.case" horiz-adv-x="751" 
d="M158 690q0 18 14 37l334 393q14 18 36 18t36 -14t14 -33t-14 -36l-314 -365l314 -364q14 -16 14 -36t-14 -34t-36 -14t-36 18l-334 393q-14 19 -14 37z" />
    <glyph glyph-name="guilsinglright.case" horiz-adv-x="751" 
d="M594 690q0 -18 -14 -37l-334 -393q-16 -18 -36 -18t-36 14q-14 14 -14 34t14 36l313 364l-313 365q-14 15 -14 35t14 34t34 14t38 -18l334 -393q14 -19 14 -37z" />
    <glyph glyph-name="endash.case" horiz-adv-x="1196" 
d="M985 690q0 -23 -16 -39t-39 -16h-664q-23 0 -39 16t-16 39t16 39t39 16h664q23 0 39 -16t16 -39z" />
    <glyph glyph-name="emdash.case" horiz-adv-x="1880" 
d="M1669 690q0 -23 -16 -39t-39 -16h-1348q-23 0 -39 16t-16 39t16 39t39 16h1348q23 0 39 -16t16 -39z" />
    <glyph glyph-name="periodcentered.case" horiz-adv-x="335" 
d="M168 573q-96 -1 -96 97t96 98t96 -98t-96 -97z" />
    <glyph glyph-name="questiondown.case" horiz-adv-x="944" 
d="M524 1395q96 1 96 -97t-96 -98t-96 98t96 97zM631 898q0 -91 -44 -148q-45 -58 -107 -98t-126 -81t-107 -105q-44 -64 -44 -162q-1 -98 71 -154t199 -58q127 0 197 62t69 184q-1 27 19 47q20 21 49 21t48 -20t19 -48q0 -172 -104 -269t-294 -97t-297 89q-108 90 -107 256
q0 99 43 179t105 128t124 88t106 82t44 84t-22 76t-23 60q0 26 21 43q22 18 48 18t47 -20q66 -66 66 -157z" />
    <glyph glyph-name="exclamdown.case" horiz-adv-x="425" 
d="M213 1395q96 1 96 -97t-96 -98t-96 98t96 97zM213 -16q-74 0 -72 71l31 965q0 37 41 37t41 -37l31 -965q2 -71 -72 -71z" />
    <glyph glyph-name="bullet.case" horiz-adv-x="856" 
d="M428 424q-266 0 -266 272t266 273q266 -1 266 -273t-266 -272z" />
    <glyph glyph-name="dollar.onum" horiz-adv-x="968" 
d="M477 1075q-121 0 -181 -48t-60 -119q0 -72 48 -118t120 -71q172 -60 311 -128q72 -36 120 -109t48 -171q1 -143 -95 -234t-258 -100v-157q0 -20 -15 -36t-38 -17q-23 0 -38 16t-15 37v155q-236 23 -358 209q-29 49 6 82q18 18 49 18t51 -32q98 -154 293 -154
q287 0 287 213q0 72 -48 123t-120 78q-72 28 -157 60t-157 66t-120 102t-48 163q0 137 96 209t226 84v125q0 23 15 38t38 15t38 -15t15 -38v-125q219 -25 320 -178q10 -16 10 -39t-18 -41t-48 -18t-51 28q-94 127 -266 127z" />
    <glyph glyph-name="cent.onum" horiz-adv-x="1028" 
d="M72 547q0 268 112 406q113 138 314 159v141q0 21 15 37t38 16t38 -16t15 -37v-139q92 -6 168 -41t120 -74t44 -71q0 -33 -18 -51q-18 -19 -46 -19t-45 21q-100 113 -268 112q-354 -1 -354 -447t354 -446q176 0 264 103q20 27 48 27q29 0 47 -18q18 -17 18 -51t-45 -72
q-109 -93 -287 -112v-155q0 -20 -15 -36t-38 -17q-23 0 -38 16t-15 37v157q-193 10 -310 156q-116 146 -116 414z" />
    <glyph glyph-name="sterling.onum" horiz-adv-x="1026" 
d="M573 516h-213q25 -64 25 -134t-26 -135t-66 -106q49 25 105 25t160 -36t151 -36q88 0 149 80q18 25 47 25t52 -24t4 -73q-68 -133 -252 -133q-59 0 -170 39t-183 39t-170 -57q-52 -31 -84 6q-16 18 -16 46t29 46q63 41 102 113q39 73 39 155t-33 160h-90q-27 0 -44 18
t-17 44q0 27 17 44t44 17h27q-66 117 -66 239t106 222t276 100q172 0 273 -66t142 -169q6 -16 6 -38t-17 -39q-17 -18 -50 -18t-52 39q-76 168 -282 168q-125 0 -197 -59q-72 -58 -72 -156t74 -223h272q27 0 44 -17t17 -44q0 -26 -16 -44q-18 -18 -45 -18z" />
    <glyph glyph-name="yen.onum" horiz-adv-x="993" 
d="M791 365h-230v-316q0 -29 -18 -47t-46 -18t-47 19t-20 46v316h-227q-27 0 -44 17t-18 44t17 44t45 17h227v74h-227q-27 -1 -44 17t-18 45t17 44t45 17h166l-301 389q-39 54 2 91q20 20 49 20t49 -27l330 -432l325 432q21 27 51 27t49 -20t19 -46q0 -27 -16 -45l-301 -389
h166q27 0 44 -17t17 -44t-17 -44t-44 -18h-230v-74h230q27 0 44 -17t17 -44t-17 -44t-44 -17z" />
    <glyph glyph-name="florin.onum" horiz-adv-x="839" 
d="M864 1300q0 -53 -51 -55q-10 1 -54 19t-118 18q-150 0 -190 -229l-41 -238h198q23 0 39 -16q17 -16 17 -39t-16 -39t-40 -16h-217l-127 -705q-35 -196 -141 -304t-285 -108q-76 0 -127 20t-51 50q0 31 16 47t32 16t55 -11q38 -11 85 -11q117 0 189 76t96 207l129 723
h-133q-23 0 -39 16t-16 39t16 39t39 16h152l38 221q63 356 338 357q106 0 177 -45q30 -21 30 -48z" />
    <glyph glyph-name="Euro.onum" horiz-adv-x="1126" 
d="M522 639h-291q-2 -23 -2 -49t2 -60h291q23 0 39 -16q17 -16 17 -39t-16 -39t-40 -16h-278q35 -162 138 -242t262 -80t259 123q25 31 53 31t46 -16t18 -41t-16 -48q-136 -174 -360 -174t-358 124t-175 323h-50q-23 0 -39 16t-16 39t16 39t39 16h37q-2 33 -2 58l2 51h-37
q-23 0 -39 16t-16 39t16 39t39 17h50q43 224 188 336t336 112q133 0 232 -48t139 -110q14 -26 14 -48t-18 -39t-47 -17q-28 0 -50 25q-102 115 -270 114q-328 0 -391 -325h278q23 0 39 -16q17 -16 17 -40q0 -23 -16 -39t-40 -16z" />
    <glyph glyph-name="ampersand.salt1" horiz-adv-x="1169" 
d="M221 375q1 -133 95 -209t226 -76t242 66q-55 104 -201 267t-192 228q-170 -109 -170 -276zM524 1288q-159 0 -159 -212q0 -104 81 -251q222 139 222 298q0 85 -41 125t-103 40zM1079 451q0 -203 -149 -336q23 -63 22 -142q0 -137 -79 -239t-226 -103q-92 0 -151 39
q-33 16 -33 56q0 27 18 45q19 18 39 18t51 -16t74 -17q84 0 130 66t46 130t-4 83q-121 -63 -294 -63t-303 108q-130 109 -130 295q0 227 244 383q-100 160 -100 316t77 244q78 89 206 89t205 -74t77 -200q0 -221 -297 -416q51 -76 184 -224t193 -243q72 80 71 201
q0 74 -37 126t-125 115q-30 20 -30 50t18 48t40 19q22 0 40 -10q100 -53 162 -146t61 -202z" />
    <glyph glyph-name="ornament.B" horiz-adv-x="1499" 
d="M516 1298q59 -86 130 -130t183 -81q-47 79 -131 139t-182 72zM1210 1395q80 1 136 -55t55 -134q0 -125 -119 -188t-260 -64l-39 2q4 -39 4 -92q0 -221 -139 -405t-299 -252q-12 -7 -12 -25t22 -18q6 0 19 4q156 66 274 199t174 309q88 0 148 -62t61 -174
q0 -190 -165 -323q-166 -133 -416 -133t-403 114t-153 318q0 145 121 145q88 0 88 -92q0 -39 -37 -75t-37 -68t31 -61t72 -29t73 32q31 32 31 74q0 41 -37 155t-36 183q0 102 65 164q66 61 162 61q174 0 264 -160q16 45 16 140l-4 84q-139 27 -279 115t-190 208
q-63 -4 -105 -41t-42 -88t30 -77t66 -26q67 1 70 -56q0 -23 -16 -40t-42 -18q-90 0 -156 58t-67 164q0 108 92 174t236 65q144 0 289 -95t207 -247q29 -4 59 -4q116 0 190 44t74 101q0 30 -22 52t-53 22t-53 -22t-22 -48t-16 -43q-16 -16 -39 -16t-39 16t-16 39q0 78 52 134
t132 55z" />
    <glyph glyph-name="slash.case" horiz-adv-x="833" 
d="M143 -180q-29 0 -47 18t-18 39t6 39l541 1595q14 47 53 47t62 -24q23 -25 8 -72l-541 -1595q-14 -47 -64 -47z" />
    <glyph glyph-name="backslash.case" horiz-adv-x="833" 
d="M756 -123q0 -21 -20 -39t-46 -18q-49 0 -63 47l-541 1595q-6 18 -6 38t19 39t46 20q50 -1 64 -48l541 -1595q6 -18 6 -39z" />
    <glyph glyph-name="bar.case" horiz-adv-x="446" 
d="M289 1614v-1847q1 -29 -19 -49t-49 -19q-29 0 -48 19t-19 49v1847q0 29 19 48t48 19t49 -19t19 -48z" />
    <glyph glyph-name="zero.numerator" horiz-adv-x="610" 
d="M305 770q-254 0 -254 318t254 319q254 -1 254 -319t-254 -318zM305 866q145 0 145 222t-145 223q-145 -1 -145 -223t145 -222z" />
    <glyph glyph-name="one.numerator" horiz-adv-x="401" 
d="M104 1198q-20 0 -35 15t-15 39t24 40l147 99q14 10 34 10q20 -1 35 -17t15 -36v-519q0 -23 -15 -37t-38 -16q-23 0 -38 16t-15 37v426l-62 -43q-17 -14 -37 -14z" />
    <glyph glyph-name="two.numerator" horiz-adv-x="544" 
d="M270 1407q102 0 162 -48t60 -124t-52 -131t-113 -85q-165 -80 -165 -138h276q20 -1 34 -15t15 -34q0 -20 -14 -35q-14 -14 -35 -15h-342q-20 0 -34 14t-15 35q0 81 53 141q54 60 116 89q170 79 169 164q0 37 -30 61q-29 24 -95 25q-66 0 -106 -60q-16 -20 -38 -20t-35 13
q-13 12 -13 28t4 26q45 109 198 109z" />
    <glyph glyph-name="three.numerator" horiz-adv-x="530" 
d="M479 967q0 -85 -59 -141t-190 -56t-195 119q-8 17 -8 33t13 29t37 13t40 -26q41 -70 125 -70q129 0 129 107q0 98 -123 98h-45q-20 0 -35 14q-14 15 -14 33t12 35l127 137h-191q-20 0 -35 16t-16 35t15 35t36 17h295q19 1 35 -15t16 -38t-14 -35l-139 -144q94 0 139 -55
t45 -141z" />
    <glyph glyph-name="four.numerator" horiz-adv-x="532" 
d="M311 1012v196l-137 -196h137zM418 1012h33q20 0 34 -14q15 -14 15 -35t-14 -35t-35 -15h-33v-84q0 -23 -16 -37q-38 -33 -74 0q-16 15 -17 37v84h-227q-20 1 -34 15t-15 32q0 18 12 35l275 383q18 23 40 23q22 -1 39 -17q16 -16 17 -36v-336z" />
    <glyph glyph-name="five.numerator" horiz-adv-x="536" 
d="M256 1186q100 0 165 -50t65 -154t-63 -158q-62 -54 -167 -54q-150 0 -219 117q-10 15 -10 33t13 31t37 13t42 -28q43 -68 137 -68q57 0 89 31t32 81t-32 81t-89 31q-56 0 -102 -20t-61 -21q-15 0 -31 16t-7 59l39 222q8 45 51 45h273q20 -1 36 -15t15 -37q0 -23 -15 -37
t-36 -14h-234l-20 -121q37 17 92 17z" />
    <glyph glyph-name="six.numerator" horiz-adv-x="563" 
d="M284 866q62 0 94 31t32 82t-35 80t-81 29t-81 -24q-35 -22 -49 -63q0 -55 28 -95q30 -40 92 -40zM298 1180q94 0 154 -52t60 -151t-62 -153t-163 -54q-236 0 -236 305q0 168 68 250t175 82t159 -43q18 -16 18 -38t-13 -34q-14 -14 -30 -14t-49 16t-85 17q-52 0 -96 -49
t-44 -146q49 64 144 64z" />
    <glyph glyph-name="seven.numerator" horiz-adv-x="479" 
d="M102 831q0 90 37 169t82 124q119 119 119 168h-268q-23 0 -37 16t-15 35q0 19 14 35t38 17h329q19 1 35 -15t17 -37q0 -105 -86 -204q-35 -39 -71 -79q-89 -99 -87 -229q0 -23 -15 -39t-37 -16q-23 0 -39 16t-16 39z" />
    <glyph glyph-name="eight.numerator" horiz-adv-x="555" 
d="M276 1065q-123 0 -122 -100q0 -99 122 -99t123 100q0 100 -123 99zM276 1311q-104 0 -104 -77t104 -77t105 78q-1 76 -105 76zM276 770q-231 0 -231 195q0 106 98 149q-75 33 -75 119t57 130t151 44t152 -44t57 -130q0 -86 -75 -119q98 -43 98 -149q-1 -195 -232 -195z
" />
    <glyph glyph-name="nine.numerator" horiz-adv-x="563" 
d="M280 1311q-62 0 -95 -31q-31 -31 -31 -82t34 -80q34 -28 81 -28q46 0 81 22t49 64q0 55 -28 95q-29 40 -91 40zM265 997q-95 -1 -154 51t-59 152t62 154t162 53q236 0 236 -305q0 -168 -68 -250t-175 -82t-158 43q-19 15 -19 37t13 36t29 13t50 -17q33 -16 85 -16t97 49
q44 49 44 146q-50 -64 -145 -64z" />
    <glyph glyph-name="zero.denominator" horiz-adv-x="610" 
d="M305 -27q-254 1 -254 319t254 318t254 -318t-254 -319zM305 70q145 0 145 222t-144 222q-146 0 -146 -222t145 -222z" />
    <glyph glyph-name="one.denominator" horiz-adv-x="401" 
d="M104 406q-20 0 -35 15t-15 39t24 40l147 98q14 10 34 10t35 -15t15 -38v-518q0 -21 -15 -37t-38 -16t-38 16t-15 37v426l-62 -43q-17 -14 -37 -14z" />
    <glyph glyph-name="two.denominator" horiz-adv-x="544" 
d="M385 435q1 93 -125 93q-66 0 -106 -59q-16 -20 -38 -20t-35 13q-13 12 -13 28t4 26q45 109 198 109q102 0 162 -48q60 -49 60 -125t-52 -130t-113 -85q-165 -80 -165 -139h276q20 0 34 -14t15 -34q0 -20 -14 -36q-14 -14 -35 -14h-342q-20 0 -35 14q-14 14 -14 35
q0 80 53 140q54 59 116 89t116 71q53 42 53 86z" />
    <glyph glyph-name="three.denominator" horiz-adv-x="530" 
d="M479 170q0 -86 -59 -141t-190 -55t-195 118q-8 16 -8 32t13 30t37 14t40 -27q41 -70 125 -69q129 0 129 106q0 98 -123 98h-45q-21 0 -35 14t-14 34t12 34l127 138h-191q-20 0 -35 14t-16 37t15 37t36 14h295q19 0 35 -14t16 -38t-14 -36l-139 -143q94 1 139 -55t45 -142
z" />
    <glyph glyph-name="four.denominator" horiz-adv-x="532" 
d="M311 219v197l-137 -197h137zM418 219h33q20 0 34 -14q15 -15 15 -35t-14 -34t-35 -15h-33v-84q0 -21 -16 -37t-37 -16q-20 0 -37 16q-16 16 -17 37v84h-227q-20 0 -35 14q-14 13 -14 33t12 35l275 383q18 22 40 22t39 -15q16 -15 17 -38v-336z" />
    <glyph glyph-name="five.denominator" horiz-adv-x="536" 
d="M256 387q100 0 165 -50q65 -49 65 -153t-63 -158q-62 -54 -167 -55q-150 0 -219 117q-10 16 -10 34t13 30q13 14 37 14t42 -29q43 -68 137 -67q57 0 89 30t32 81q0 50 -32 81t-89 31q-56 -1 -102 -21t-61 -20t-31 16t-7 60l39 221q8 45 51 45h273q20 0 36 -14t15 -37
q0 -23 -15 -37t-36 -14h-234l-20 -121q37 16 92 16z" />
    <glyph glyph-name="six.denominator" horiz-adv-x="563" 
d="M284 68q62 0 94 30t32 82q0 51 -35 80t-81 29t-81 -23t-49 -63q0 -55 28 -95q30 -40 92 -40zM298 381q94 0 154 -51q60 -52 60 -152t-62 -153t-163 -54q-236 0 -236 305q0 168 68 250t175 82t159 -43q18 -15 18 -37q0 -47 -47 -49q-12 1 -45 17t-85 16t-96 -49t-44 -146
q49 64 144 64z" />
    <glyph glyph-name="seven.denominator" horiz-adv-x="479" 
d="M102 35q0 90 37 169t82 124q119 119 119 168h-268q-23 0 -37 14t-15 37q0 23 14 37t38 14h329q19 0 35 -14t17 -37q0 -106 -86 -205q-35 -39 -71 -79q-89 -99 -87 -228q0 -23 -15 -39t-37 -16q-23 0 -39 16t-16 39z" />
    <glyph glyph-name="eight.denominator" horiz-adv-x="555" 
d="M276 266q-123 0 -122 -100q0 -98 122 -98t123 99q0 99 -123 99zM276 512q-104 0 -104 -77t104 -77t105 78q-1 76 -105 76zM276 -29q-231 0 -231 195q0 106 98 149q-75 33 -75 119t57 130t151 44t152 -44t57 -130q0 -86 -75 -119q98 -43 98 -149q-1 -195 -232 -195z" />
    <glyph glyph-name="nine.denominator" horiz-adv-x="563" 
d="M280 512q-62 0 -95 -31q-31 -31 -31 -82t34 -80t81 -29q46 0 81 24q35 22 49 63q0 55 -28 95q-29 40 -91 40zM265 199q-95 0 -154 51t-59 151q0 99 62 153t162 54q236 0 236 -305q0 -168 -68 -250t-175 -82t-158 43q-19 14 -19 36t13 36t29 14t50 -16q33 -16 85 -16
t97 49q44 49 44 145q-50 -63 -145 -63z" />
    <glyph glyph-name="a.salt" horiz-adv-x="1024" 
d="M492 92q141 0 217 95t75 280q0 373 -292 373q-287 0 -287 -374t287 -374zM911 881v-832q0 -29 -19 -47t-46 -18t-46 18t-20 47v57q-113 -133 -302 -133t-298 123t-108 371q0 248 108 370q108 121 300 121t300 -127v50q0 29 20 47t46 18q27 0 46 -18t19 -47z" />
    <glyph glyph-name="aacute.salt" horiz-adv-x="1024" 
d="M469 1069q-30 -31 -62 -4t-6 61l183 222q33 41 77 0t7 -78zM492 92q141 0 217 95t75 280q0 373 -292 373q-287 0 -287 -374t287 -374zM911 881v-832q0 -29 -19 -47t-46 -18t-46 18t-20 47v57q-113 -133 -302 -133t-298 123t-108 371q0 248 108 370q108 121 300 121
t300 -127v50q0 29 20 47t46 18q27 0 46 -18t19 -47z" />
    <glyph glyph-name="abreve.salt" horiz-adv-x="1024" 
d="M514 1083q-100 -1 -166 51t-65 156q0 20 14 34q15 14 35 15q20 0 34 -14t15 -35q0 -112 133 -112t133 112q1 20 15 34t34 15q20 0 34 -14t15 -35q1 -104 -65 -156t-166 -51zM492 92q141 0 217 95t75 280q0 373 -292 373q-287 0 -287 -374t287 -374zM911 881v-832
q0 -29 -19 -47t-46 -18t-46 18t-20 47v57q-113 -133 -302 -133t-298 123t-108 371q0 248 108 370q108 121 300 121t300 -127v50q0 29 20 47t46 18q27 0 46 -18t19 -47z" />
    <glyph glyph-name="acircumflex.salt" horiz-adv-x="1024" 
d="M312 1069q-20 0 -36 14q-14 14 -14 37t19 37l196 162q17 12 33 12t33 -12l196 -162q19 -15 19 -37t-14 -36t-36 -15q-20 0 -32 12l-166 140l-166 -140q-12 -12 -32 -12zM492 92q141 0 217 95t75 280q0 373 -292 373q-287 0 -287 -374t287 -374zM911 881v-832
q0 -29 -19 -47t-46 -18t-46 18t-20 47v57q-113 -133 -302 -133t-298 123t-108 371q0 248 108 370q108 121 300 121t300 -127v50q0 29 20 47t46 18q27 0 46 -18t19 -47z" />
    <glyph glyph-name="adieresis.salt" horiz-adv-x="1024" 
d="M664 1094q-74 0 -74 76t74 77q74 -1 74 -77t-74 -76zM342 1094q-74 0 -74 76t74 77q74 -1 74 -77t-74 -76zM492 92q141 0 217 95t75 280q0 373 -292 373q-287 0 -287 -374t287 -374zM911 881v-832q0 -29 -19 -47t-46 -18t-46 18t-20 47v57q-113 -133 -302 -133t-298 123
t-108 371q0 248 108 370q108 121 300 121t300 -127v50q0 29 20 47t46 18q27 0 46 -18t19 -47z" />
    <glyph glyph-name="agrave.salt" horiz-adv-x="1024" 
d="M610 1126q27 -34 -5 -61t-62 4l-199 201q-37 37 6 78q45 41 78 0zM492 92q141 0 217 95t75 280q0 373 -292 373q-287 0 -287 -374t287 -374zM911 881v-832q0 -29 -19 -47t-46 -18t-46 18t-20 47v57q-113 -133 -302 -133t-298 123t-108 371q0 248 108 370q108 121 300 121
t300 -127v50q0 29 20 47t46 18q27 0 46 -18t19 -47z" />
    <glyph glyph-name="amacron.salt" horiz-adv-x="1024" 
d="M741 1151q0 -19 -14 -35t-37 -16h-381q-23 0 -37 15t-14 35t14 36t37 16h381q23 0 37 -16t14 -35zM492 92q141 0 217 95t75 280q0 373 -292 373q-287 0 -287 -374t287 -374zM911 881v-832q0 -29 -19 -47t-46 -18t-46 18t-20 47v57q-113 -133 -302 -133t-298 123t-108 371
q0 248 108 370q108 121 300 121t300 -127v50q0 29 20 47t46 18q27 0 46 -18t19 -47z" />
    <glyph glyph-name="aogonek.salt" horiz-adv-x="1024" 
d="M492 92q141 0 217 95t75 280q0 373 -292 373q-287 0 -287 -374t287 -374zM869 -281q52 1 81 13t43 12q13 0 27 -13t14 -35t-22 -36q-58 -35 -152 -35t-150 45t-57 129q0 131 146 203q-18 18 -19 47v57q-113 -133 -302 -133t-298 123t-108 371q0 248 108 370
q108 121 300 121t300 -127v50q0 29 20 47t46 18q27 0 46 -18t19 -47v-832q0 -35 -41 -61q-115 -72 -114 -160q0 -53 30 -81t83 -28z" />
    <glyph glyph-name="aring.salt" horiz-adv-x="1024" 
d="M510 1106q127 0 127 123q-1 63 -29 93t-98 30t-98 -30t-29 -93q0 -123 127 -123zM510 1028q-213 0 -213 201t213 201t213 -201t-213 -201zM492 92q141 0 217 95t75 280q0 373 -292 373q-287 0 -287 -374t287 -374zM911 881v-832q0 -29 -19 -47t-46 -18t-46 18t-20 47v57
q-113 -133 -302 -133t-298 123t-108 371q0 248 108 370q108 121 300 121t300 -127v50q0 29 20 47t46 18q27 0 46 -18t19 -47z" />
    <glyph glyph-name="aringacute.salt" horiz-adv-x="1024" 
d="M512 1106q127 0 127 123q-1 63 -29 93t-98 30t-98 -30t-29 -93q0 -123 127 -123zM512 1028q-213 0 -213 201t213 201t213 -201t-213 -201zM453 1487q-31 -31 -63 -4t-5 61l182 221q33 41 77 0t7 -77zM492 92q141 0 217 95t75 280q0 373 -292 373q-287 0 -287 -374
t287 -374zM911 881v-832q0 -29 -19 -47t-46 -18t-46 18t-20 47v57q-113 -133 -302 -133t-298 123t-108 371q0 248 108 370q108 121 300 121t300 -127v50q0 29 20 47t46 18q27 0 46 -18t19 -47z" />
    <glyph glyph-name="atilde.salt" horiz-adv-x="1024" 
d="M393 1264q53 0 127 -40t120 -40t89 57q17 23 39 23t36 -14t15 -32q0 -16 -6 -28q-53 -106 -178 -107q-53 0 -127 40t-120 40t-89 -57q-17 -23 -39 -23q-22 1 -36 15t-15 30q0 16 6 29q53 107 178 107zM492 92q141 0 217 95t75 280q0 373 -292 373q-287 0 -287 -374
t287 -374zM911 881v-832q0 -29 -19 -47t-46 -18t-46 18t-20 47v57q-113 -133 -302 -133t-298 123t-108 371q0 248 108 370q108 121 300 121t300 -127v50q0 29 20 47t46 18q27 0 46 -18t19 -47z" />
    <glyph glyph-name="c_t" horiz-adv-x="1456" 
d="M1306 106q76 0 76 -61q0 -27 -18 -44t-45 -17q-119 0 -185 72t-65 186v565h-80q-27 0 -44 17t-17 44t17 44t44 18h80v86q0 281 -235 280q-94 0 -148 -47t-53 -123q0 -76 38 -137q38 -60 82 -109t57 -64t13 -40t-17 -41t-43 -16t-48 24q-84 96 -221 97q-289 0 -289 -374
t289 -374q119 0 237 88q47 33 81 -3q17 -17 17 -43t-26 -50q-135 -111 -323 -111t-299 123q-110 123 -109 371q0 248 109 370q110 122 313 121q96 0 172 -34q-117 106 -117 247q0 106 82 171t207 65q184 0 273 -105t89 -282v-90h133q27 0 44 -18t17 -44q0 -27 -16 -44
q-18 -17 -45 -17h-133v-565q0 -64 33 -100t73 -36z" />
    <glyph glyph-name="at.case" horiz-adv-x="1642" 
d="M776 412q88 0 155 52t66 146v68h-237q-164 0 -164 -133q0 -63 46 -98t134 -35zM760 766h237v51q0 76 -52 117t-148 41t-170 -84q-17 -19 -39 -19t-36 14t-15 34q0 18 10 32q89 119 245 119t230 -72t74 -192v-250q0 -82 32 -116t101 -33q115 0 171 74t56 253
q0 307 -169 457t-473 150t-467 -156q-163 -154 -163 -499t163 -498t469 -153t474 114q12 8 28 8t32 -14q14 -14 14 -36t-21 -36q-203 -125 -541 -125t-530 184q-190 184 -190 557t190 558q190 186 534 186t549 -178q204 -178 204 -519q0 -210 -87 -312t-247 -102t-213 125
q-80 -125 -244 -124q-119 0 -197 59q-77 59 -77 163t70 163q71 59 196 59z" />
    <glyph glyph-name="g.salt" horiz-adv-x="1013" 
d="M478 -289q138 0 216 68t78 203v116q-96 -125 -288 -125t-303 122q-110 122 -109 370q0 248 109 371q109 122 303 122t308 -104t113 -301v-571q0 -199 -118 -296t-302 -98q-225 0 -342 142q-12 16 -12 40q1 24 19 42t45 18t49 -23q96 -96 234 -96zM772 553q0 139 -78 213
t-198 74q-293 0 -293 -374t293 -374q86 0 154 42t95 83l27 41v295z" />
    <glyph glyph-name="gcircumflex.salt" horiz-adv-x="1013" 
d="M300 1069q-20 0 -36 14q-14 14 -14 37t18 37l197 162q17 12 33 12t32 -12l197 -162q18 -15 18 -37t-14 -36q-15 -14 -35 -15q-20 0 -32 12l-166 140l-166 -140q-12 -12 -32 -12zM478 -289q138 0 216 68t78 203v116q-96 -125 -288 -125t-303 122q-110 122 -109 370
q0 248 109 371q109 122 303 122t308 -104t113 -301v-571q0 -199 -118 -296t-302 -98q-225 0 -342 142q-12 16 -12 40q1 24 19 42t45 18t49 -23q96 -96 234 -96zM772 553q0 139 -78 213t-198 74q-293 0 -293 -374t293 -374q86 0 154 42t95 83l27 41v295z" />
    <glyph glyph-name="gbreve.salt" horiz-adv-x="1013" 
d="M496 1083q-100 -1 -166 51t-66 156q0 20 14 34t35 15q21 0 35 -14t14 -35q0 -112 134 -112t133 112q0 20 14 34q15 14 35 15q20 0 34 -14t15 -35q1 -104 -65 -156t-166 -51zM478 -289q138 0 216 68t78 203v116q-96 -125 -288 -125t-303 122q-110 122 -109 370
q0 248 109 371q109 122 303 122t308 -104t113 -301v-571q0 -199 -118 -296t-302 -98q-225 0 -342 142q-12 16 -12 40q1 24 19 42t45 18t49 -23q96 -96 234 -96zM772 553q0 139 -78 213t-198 74q-293 0 -293 -374t293 -374q86 0 154 42t95 83l27 41v295z" />
    <glyph glyph-name="gdotaccent.salt" horiz-adv-x="1013" 
d="M496 1114q-78 0 -78 81t78 81t78 -81t-78 -81zM478 -289q138 0 216 68t78 203v116q-96 -125 -288 -125t-303 122q-110 122 -109 370q0 248 109 371q109 122 303 122t308 -104t113 -301v-571q0 -199 -118 -296t-302 -98q-225 0 -342 142q-12 16 -12 40q1 24 19 42t45 18
t49 -23q96 -96 234 -96zM772 553q0 139 -78 213t-198 74q-293 0 -293 -374t293 -374q86 0 154 42t95 83l27 41v295z" />
    <glyph glyph-name="gcommaaccent.salt" horiz-adv-x="1013" 
d="M391 1159q0 197 131 334q12 12 27 12q31 0 31 -30q0 -8 -7 -19q-59 -82 -59 -132t37 -102t37 -96q0 -98 -96 -98q-101 0 -101 131zM478 -289q138 0 216 68t78 203v116q-96 -125 -288 -125t-303 122q-110 122 -109 370q0 248 109 371q109 122 303 122t308 -104t113 -301
v-571q0 -199 -118 -296t-302 -98q-225 0 -342 142q-12 16 -12 40q1 24 19 42t45 18t49 -23q96 -96 234 -96zM772 553q0 139 -78 213t-198 74q-293 0 -293 -374t293 -374q86 0 154 42t95 83l27 41v295z" />
    </font>
</defs>
</svg>
